<?xml version="1.0" encoding="UTF-8" standalone="no"?>
<svg
   xmlns:dc="http://purl.org/dc/elements/1.1/"
   xmlns:cc="http://creativecommons.org/ns#"
   xmlns:rdf="http://www.w3.org/1999/02/22-rdf-syntax-ns#"
   xmlns:svg="http://www.w3.org/2000/svg"
   xmlns="http://www.w3.org/2000/svg"
   viewBox="0 0 730.66669 512"
   height="512"
   width="730.66669"
   xml:space="preserve"
   id="svg2"
   version="1.1"><metadata
     id="metadata8"><rdf:RDF><cc:Work
         rdf:about=""><dc:format>image/svg+xml</dc:format><dc:type
           rdf:resource="http://purl.org/dc/dcmitype/StillImage" /></cc:Work></rdf:RDF></metadata><defs
     id="defs6" /><g
     transform="matrix(1.3333333,0,0,-1.3333333,0,512)"
     id="g10"><g
       transform="scale(0.1)"
       id="g12"><path
         id="path14"
         style="fill:#ffffff;fill-opacity:1;fill-rule:nonzero;stroke:none"
         d="m 504.539,3732.57 -3.148,-259.93 c -1.024,-27.14 15.32,-184.6 15.32,-184.6 l -39.191,-4.15 -222.649,-11.59 -144.613,6.64 -2,47.01 -9.3596,172.12 0.9727,226.58 26.1089,2.03 139.52,-2.55 z" /><path
         id="path16"
         style="fill:#000000;fill-opacity:1;fill-rule:nonzero;stroke:none"
         d="m 494.73,3731.92 c -1.421,-150.44 -3.16,-296.68 12.317,-446.46 3.48,3.32 6.961,6.64 10.441,9.96 -99.961,-10.59 -205.621,-18.29 -302.808,-13.83 -31.27,1.44 -62.543,2.87 -93.813,4.31 -11.488,0.53 -1.129,1.36 -0.89,-4.29 -0.297,7.17 -0.61,14.33 -0.907,21.49 -0.382,8.8 -0.683,17.61 -1.16,26.4 -3.07,56.41 -6.133,112.82 -9.203,169.23 -3.078,56.52 0.481,114.17 0.731,170.77 0.062,14.18 0.121,28.37 0.179,42.55 0.082,19.29 -9.23,5.33 2.531,6.25 25.84,2.01 51.93,0.3 77.832,-0.17 104.708,-1.91 209.118,3.37 313.778,7.07 11.199,0.4 14.691,15.21 1.562,14.75 -73.781,-2.61 -147.562,-5.21 -221.34,-7.82 -61.113,-2.15 -122.339,4.64 -183.343,-0.1 -3.9768,-0.31 -10.5589,-3.11 -10.5784,-8.03 -0.6406,-149.34 4.0391,-296.59 10.3904,-445.71 0.16,-3.62 2.719,-6.47 6.539,-6.64 136.942,-6.29 272.309,-5.45 408.95,9.02 5.41,0.57 11.062,3.9 10.429,9.96 -15.347,148.44 -13.429,293.54 -12.019,442.6 0.101,10.47 -19.528,7.82 -19.618,-1.31 z" /><path
         id="path18"
         style="fill:#000000;fill-opacity:1;fill-rule:nonzero;stroke:none"
         d="m 304.891,3637.87 h 15.347 c -1.277,-20.16 -1.429,-41.2 -0.476,-63.12 0.968,-21.92 2.406,-44.24 4.328,-66.96 1.91,-22.72 3.988,-45.53 6.238,-68.4 2.231,-22.88 3.992,-45.52 5.274,-67.92 -0.954,-2.56 -2.082,-3.92 -3.364,-4.08 -1.277,-0.16 -3.039,-0.24 -5.269,-0.24 -6.078,-1.6 -9.77,-0.16 -11.039,4.32 0,19.2 -0.731,40.4 -2.16,63.6 -1.45,23.2 -3.051,45.92 -4.809,68.16 -1.762,22.24 -3.441,42.8 -5.039,61.68 -1.602,18.88 -2.723,33.6 -3.363,44.16 0,2.56 -0.161,5.68 -0.469,9.36 -0.328,3.68 -0.57,7.12 -0.731,10.32 -0.16,3.2 0.082,5.76 0.731,7.68 0.629,1.92 2.23,2.4 4.801,1.44 z" /><path
         id="path20"
         style="fill:#ffffff;fill-opacity:1;fill-rule:nonzero;stroke:none"
         d="m 1029.09,3732.57 -3.16,-259.93 c -1.01,-27.14 15.33,-184.6 15.33,-184.6 l -39.19,-4.15 -222.66,-11.59 -144.601,6.64 -2,47.01 -9.36,172.12 0.961,226.58 26.121,2.03 139.52,-2.55 z" /><path
         id="path22"
         style="fill:#000000;fill-opacity:1;fill-rule:nonzero;stroke:none"
         d="m 1019.28,3731.92 c -1.42,-150.44 -3.17,-296.68 12.32,-446.46 3.48,3.32 6.96,6.64 10.44,9.96 -99.962,-10.59 -205.618,-18.29 -302.81,-13.83 -31.269,1.44 -62.539,2.87 -93.808,4.31 -11.492,0.53 -1.133,1.36 -0.891,-4.29 -0.301,7.17 -0.609,14.33 -0.91,21.49 -0.383,8.8 -0.68,17.61 -1.16,26.4 -3.07,56.41 -6.133,112.82 -9.199,169.23 -3.082,56.52 0.476,114.17 0.718,170.77 0.071,14.18 0.122,28.37 0.18,42.55 0.09,19.29 -9.23,5.33 2.531,6.25 25.848,2 51.938,0.3 77.84,-0.17 104.707,-1.91 209.117,3.37 313.779,7.07 11.2,0.4 14.69,15.21 1.56,14.75 -73.78,-2.61 -147.561,-5.21 -221.339,-7.82 -61.109,-2.15 -122.351,4.64 -183.34,-0.1 -3.98,-0.31 -10.562,-3.11 -10.589,-8.03 -0.633,-149.34 4.046,-296.59 10.398,-445.71 0.16,-3.62 2.719,-6.47 6.539,-6.64 136.941,-6.29 272.313,-5.45 408.951,9.02 5.41,0.57 11.06,3.9 10.43,9.96 -15.35,148.44 -13.43,293.54 -12.02,442.6 0.1,10.47 -19.53,7.82 -19.62,-1.31 z" /><path
         id="path24"
         style="fill:#000000;fill-opacity:1;fill-rule:nonzero;stroke:none"
         d="m 837.832,3643.39 c 4.16,-3.53 6.16,-10.4 6,-20.64 -0.16,-10.24 -1.613,-22.64 -4.32,-37.2 -2.723,-14.57 -6.321,-30.56 -10.801,-48 -4.481,-17.45 -9.121,-35.2 -13.922,-53.28 -4.797,-18.08 -9.359,-35.68 -13.68,-52.8 -4.32,-17.12 -7.609,-32.72 -9.839,-46.8 8.64,4.15 18.64,9.84 30,17.04 11.351,7.2 22.722,14.96 34.082,23.28 11.359,8.32 22.078,16.72 32.16,25.2 10.078,8.47 18.32,16.08 24.718,22.8 2.231,0 3.84,-0.72 4.801,-2.16 0.961,-1.44 1.598,-3.28 1.918,-5.52 0.321,-2.24 0.391,-4.64 0.242,-7.2 -0.171,-2.57 -0.242,-4.96 -0.242,-7.2 -21.117,-16.96 -42.797,-33.12 -65.039,-48.48 -22.238,-15.36 -45.359,-30.08 -69.359,-44.16 -3.531,-1.6 -6.16,-2.23 -7.922,-1.92 -1.758,0.32 -3.438,1.76 -5.039,4.32 1.922,15.04 4.871,31.68 8.879,49.92 4,18.24 8.402,36.72 13.203,55.44 4.797,18.72 9.519,37.03 14.16,54.96 4.637,17.92 8.477,34.15 11.52,48.72 3.039,14.56 4.796,26.72 5.277,36.48 0.492,9.76 -1.039,15.92 -4.559,18.48 -0.648,2.24 -4.238,1.12 -10.8,-3.36 -6.571,-4.48 -14,-10.97 -22.321,-19.44 -8.328,-8.48 -16.32,-18.08 -24,-28.8 -7.679,-10.72 -12.808,-21.36 -15.359,-31.92 -1.918,-0.65 -3.281,-0.96 -4.078,-0.96 -0.801,0 -1.602,0.07 -2.403,0.24 -0.8,0.16 -1.679,0.31 -2.64,0.48 -0.957,0.16 -2.399,0.24 -4.321,0.24 -1.918,5.76 0.161,13.44 6.243,23.04 6.07,9.6 13.597,19.52 22.558,29.76 8.949,10.24 18.071,19.76 27.36,28.56 9.281,8.8 16.32,15.44 21.121,19.92 4.152,2.56 8.242,4.48 12.242,5.76 3.988,1.27 8.707,-0.32 14.16,-4.8 z" /><path
         id="path26"
         style="fill:#ffffff;fill-opacity:1;fill-rule:nonzero;stroke:none"
         d="m 1584.54,3732.57 -3.15,-259.93 c -1.02,-27.15 15.32,-184.61 15.32,-184.61 l -39.19,-4.14 -222.65,-11.6 -144.61,6.64 -2,47.01 -9.36,172.13 0.97,226.58 26.11,2.03 139.52,-2.55 z" /><path
         id="path28"
         style="fill:#000000;fill-opacity:1;fill-rule:nonzero;stroke:none"
         d="m 1574.73,3731.92 c -1.42,-150.44 -3.16,-296.68 12.32,-446.47 3.48,3.32 6.96,6.64 10.44,9.96 -99.97,-10.56 -205.62,-18.29 -302.81,-13.83 -31.27,1.44 -62.54,2.87 -93.81,4.31 -11.49,0.53 -1.13,1.36 -0.89,-4.28 -0.3,7.16 -0.61,14.32 -0.91,21.49 -0.38,8.8 -0.68,17.6 -1.16,26.4 -3.07,56.41 -6.13,112.82 -9.2,169.23 -3.08,56.52 0.48,114.18 0.73,170.77 0.06,14.19 0.12,28.37 0.18,42.55 0.08,19.29 -9.23,5.33 2.53,6.25 25.84,2 51.93,0.3 77.83,-0.17 104.71,-1.91 209.12,3.37 313.78,7.07 11.2,0.4 14.69,15.21 1.56,14.75 -73.78,-2.61 -147.56,-5.21 -221.34,-7.82 -61.11,-2.15 -122.34,4.64 -183.34,-0.1 -3.98,-0.31 -10.56,-3.11 -10.58,-8.03 -0.64,-149.34 4.04,-296.59 10.39,-445.72 0.16,-3.61 2.72,-6.46 6.54,-6.64 136.95,-6.29 272.3,-5.42 408.95,9.03 5.41,0.56 11.06,3.89 10.43,9.96 -15.35,148.43 -13.43,293.53 -12.02,442.6 0.1,10.47 -19.53,7.82 -19.62,-1.31 z" /><path
         id="path30"
         style="fill:#000000;fill-opacity:1;fill-rule:nonzero;stroke:none"
         d="m 1405.07,3623.79 c 1.28,-5.12 1.52,-10.24 0.73,-15.36 -0.82,-5.12 -2.18,-10.01 -4.09,-14.64 -1.91,-4.64 -4.39,-9.12 -7.43,-13.45 -3.05,-4.31 -6.16,-8.24 -9.37,-11.76 -7.68,-8.63 -16.64,-16.64 -26.87,-23.99 9.6,4.48 19.51,7.2 29.75,8.16 10.25,0.95 20,0.24 29.28,-2.16 9.29,-2.4 17.84,-6.32 25.69,-11.76 7.84,-5.44 13.99,-12.48 18.47,-21.12 6.41,-12.48 8.81,-26.41 7.21,-41.76 -1.6,-15.36 -6.64,-30.33 -15.12,-44.88 -8.48,-14.57 -20.16,-27.77 -35.04,-39.59 -14.89,-11.86 -32.24,-20.34 -52.08,-25.45 -6.74,-1.92 -13.52,-3.36 -20.4,-4.32 -6.89,-0.96 -12.96,-1.68 -18.25,-2.17 -5.27,-0.47 -9.59,-0.71 -12.95,-0.71 -3.37,0 -5.05,0.32 -5.05,0.97 l 6.25,10.07 c 22.08,1.6 41.43,6.16 58.08,13.68 16.63,7.52 30.56,16.64 41.76,27.36 11.2,10.71 19.52,22.24 24.96,34.56 5.44,12.31 8,24.24 7.68,35.76 -0.32,11.52 -3.6,21.92 -9.84,31.2 -6.24,9.28 -15.6,16 -28.08,20.16 -9.29,3.19 -18.48,4.32 -27.6,3.36 -9.14,-0.96 -17.76,-2.97 -25.92,-6 -8.16,-3.04 -15.61,-6.48 -22.32,-10.32 -6.73,-3.84 -12.16,-7.04 -16.32,-9.6 -1.92,-0.64 -3.13,0.63 -3.6,3.84 -0.48,3.19 -0.09,6.55 1.2,10.09 10.56,6.71 20.64,14.22 30.24,22.55 9.6,8.32 17.76,16.64 24.48,24.97 6.71,8.31 11.76,16.38 15.12,24.23 3.36,7.84 4.07,14.48 2.15,19.92 -1.91,5.44 -5.36,9.43 -10.31,12 -4.97,2.56 -11.04,2.95 -18.25,1.2 -7.19,-1.76 -15.11,-6.08 -23.75,-12.96 -8.64,-6.88 -17.44,-16.88 -26.41,-30 l -3.84,1.92 c -2.23,1.27 -3.2,2.24 -2.87,2.88 8.64,15.36 18.48,27.51 29.52,36.48 11.03,8.95 21.6,14.72 31.67,17.28 10.07,2.56 18.97,2.07 26.65,-1.44 7.68,-3.53 12.62,-9.92 14.87,-19.2 z" /><path
         id="path32"
         style="fill:#ffffff;fill-opacity:1;fill-rule:nonzero;stroke:none"
         d="m 2124.55,3732.57 -3.16,-259.93 c -1.01,-27.15 15.33,-184.61 15.33,-184.61 l -39.19,-4.14 -222.66,-11.6 -144.6,6.64 -2,47.01 -9.36,172.13 0.96,226.58 26.12,2.03 139.52,-2.55 z" /><path
         id="path34"
         style="fill:#000000;fill-opacity:1;fill-rule:nonzero;stroke:none"
         d="m 2114.74,3731.92 c -1.42,-150.44 -3.17,-296.68 12.32,-446.47 3.48,3.32 6.96,6.64 10.44,9.96 -99.97,-10.56 -205.62,-18.29 -302.81,-13.83 l -93.81,4.31 c -11.49,0.53 -1.13,1.36 -0.89,-4.28 -0.3,7.16 -0.61,14.32 -0.91,21.49 -0.38,8.8 -0.68,17.6 -1.16,26.4 -3.07,56.41 -6.13,112.82 -9.2,169.23 -3.08,56.52 0.48,114.17 0.72,170.77 0.07,14.19 0.12,28.37 0.18,42.55 0.09,19.29 -9.23,5.33 2.53,6.25 25.85,2 51.94,0.3 77.84,-0.17 104.71,-1.91 209.12,3.37 313.78,7.07 11.2,0.4 14.69,15.21 1.56,14.75 -73.78,-2.61 -147.56,-5.21 -221.34,-7.82 -61.11,-2.15 -122.35,4.64 -183.34,-0.1 -3.98,-0.31 -10.56,-3.11 -10.59,-8.03 -0.63,-149.34 4.05,-296.59 10.4,-445.72 0.16,-3.61 2.72,-6.46 6.54,-6.64 136.95,-6.29 272.3,-5.42 408.95,9.03 5.41,0.56 11.06,3.89 10.43,9.96 -15.35,148.43 -13.43,293.53 -12.02,442.6 0.1,10.47 -19.53,7.82 -19.62,-1.31 z" /><path
         id="path36"
         style="fill:#000000;fill-opacity:1;fill-rule:nonzero;stroke:none"
         d="m 1951.55,3641.48 c 0.32,-3.53 0.32,-9.05 0,-16.56 -0.32,-7.52 -0.71,-16.64 -1.19,-27.36 -0.48,-10.73 -1.12,-22.64 -1.92,-35.76 -0.8,-13.12 -1.36,-26.88 -1.67,-41.29 6.39,0.97 11.67,2.01 15.83,3.13 4.16,1.11 7.68,1.2 10.56,0.23 2.55,-1.27 4.55,-3.43 6,-6.47 1.44,-3.04 1.2,-5.84 -0.72,-8.4 -6.71,-0.65 -12.89,-2 -18.48,-4.08 -5.6,-2.08 -10.64,-3.92 -15.12,-5.52 -0.64,-11.52 -1.04,-25.44 -1.2,-41.76 -0.18,-16.33 -0.32,-32.24 -0.48,-47.76 -0.16,-15.52 -0.56,-29.37 -1.2,-41.52 -0.64,-12.16 -1.76,-20.16 -3.36,-24 -0.64,-0.64 -1.92,-1.03 -3.84,-1.2 -1.92,-0.16 -4,-0.16 -6.24,0 -2.24,0.17 -4.16,0.4 -5.76,0.71 -1.6,0.33 -2.4,0.81 -2.4,1.45 0.97,4.49 2,11.83 3.12,22.08 1.12,10.24 2.16,22.23 3.12,36 0.97,13.75 1.76,28.71 2.4,44.88 0.64,16.16 0.96,32.23 0.96,48.24 -4.48,-0.97 -10.8,-2.73 -18.96,-5.28 -8.16,-2.56 -16.56,-5.04 -25.2,-7.45 -8.63,-2.4 -16.88,-4.55 -24.73,-6.47 -7.84,-1.92 -13.68,-2.57 -17.52,-1.92 1.93,8.32 4.33,16.79 7.21,25.45 2.88,8.63 5.84,17.27 8.88,25.91 3.04,8.64 5.91,17.35 8.64,26.16 2.7,8.79 4.88,17.83 6.48,27.12 0.95,2.88 2.88,5.11 5.76,6.72 2.89,1.59 7.51,1.59 13.92,0 0.31,-2.24 -0.96,-7.6 -3.84,-16.08 -2.89,-8.49 -6.16,-17.69 -9.84,-27.61 -3.68,-9.92 -7.37,-19.51 -11.05,-28.79 -3.67,-9.28 -6.16,-15.84 -7.43,-19.68 12.16,2.55 23.84,5.52 35.04,8.88 11.2,3.36 22.23,7.11 33.12,11.28 0.95,14.72 1.92,29.19 2.88,43.44 0.96,14.23 1.76,27.04 2.39,38.4 0.64,11.35 1.05,20.8 1.21,28.32 0.16,7.51 -0.24,11.92 -1.21,13.2 0,0.64 0.41,1.51 1.21,2.64 0.79,1.12 1.84,1.99 3.13,2.64 1.27,0.64 2.87,0.88 4.79,0.72 1.93,-0.16 4.16,-1.04 6.71,-2.64 z" /><path
         id="path38"
         style="fill:#ffffff;fill-opacity:1;fill-rule:nonzero;stroke:none"
         d="m 2664.54,3732.57 -3.15,-259.93 c -1.02,-27.15 15.32,-184.61 15.32,-184.61 l -39.19,-4.14 -222.65,-11.6 -144.61,6.64 -2,47.01 -9.36,172.13 0.97,226.58 26.11,2.03 139.52,-2.55 z" /><path
         id="path40"
         style="fill:#000000;fill-opacity:1;fill-rule:nonzero;stroke:none"
         d="m 2654.73,3731.92 c -1.42,-150.45 -3.17,-296.69 12.32,-446.47 3.48,3.32 6.96,6.64 10.44,9.96 -99.97,-10.56 -205.62,-18.29 -302.81,-13.83 -31.27,1.43 -62.54,2.87 -93.81,4.3 -11.49,0.53 -1.13,1.36 -0.89,-4.27 -0.3,7.16 -0.61,14.31 -0.91,21.48 -0.38,8.8 -0.68,17.61 -1.16,26.41 -3.07,56.4 -6.13,112.81 -9.2,169.23 -3.08,56.52 0.48,114.17 0.73,170.77 0.06,14.19 0.12,28.37 0.18,42.55 0.08,19.28 -9.23,5.33 2.53,6.25 25.84,2.01 51.93,0.3 77.83,-0.17 104.71,-1.91 209.12,3.38 313.78,7.07 11.2,0.39 14.69,15.22 1.56,14.75 -73.78,-2.6 -147.56,-5.21 -221.34,-7.82 -61.11,-2.15 -122.34,4.64 -183.34,-0.1 -3.98,-0.32 -10.56,-3.11 -10.58,-8.03 -0.64,-149.35 4.04,-296.59 10.39,-445.72 0.16,-3.62 2.72,-6.47 6.54,-6.64 136.95,-6.29 272.3,-5.42 408.95,9.02 5.41,0.57 11.06,3.9 10.43,9.96 -15.35,148.44 -13.43,293.55 -12.02,442.61 0.1,10.47 -19.53,7.82 -19.62,-1.31 z" /><path
         id="path42"
         style="fill:#000000;fill-opacity:1;fill-rule:nonzero;stroke:none"
         d="m 2513.56,3648.04 c 0.96,-0.97 1.99,-2.32 3.12,-4.08 1.12,-1.77 1.92,-3.61 2.4,-5.52 0.48,-1.91 0.72,-3.59 0.72,-5.04 0,-1.44 -0.64,-2.32 -1.92,-2.64 -8.97,0.32 -17.85,-0.24 -26.64,-1.68 -8.8,-1.44 -17.6,-3.29 -26.4,-5.52 -8.81,-2.25 -17.61,-4.56 -26.41,-6.96 -8.8,-2.4 -17.67,-4.41 -26.63,-6 -1.92,-3.53 -3.37,-8.49 -4.32,-14.87 -0.96,-6.41 -1.44,-12.82 -1.44,-19.2 0,-6.41 0.39,-12.09 1.2,-17.05 0.79,-4.97 1.68,-7.91 2.64,-8.88 9.6,-1.61 19.28,-3.68 29.04,-6.24 9.76,-2.56 19.2,-5.69 28.32,-9.36 9.11,-3.69 17.59,-7.68 25.44,-12 7.83,-4.33 14.64,-9.05 20.4,-14.16 10.87,-9.6 17.91,-19.68 21.11,-30.24 3.2,-10.56 3.92,-20.64 2.16,-30.24 -1.75,-9.61 -5.36,-18.41 -10.79,-26.4 -5.45,-8 -11.21,-14.4 -17.28,-19.2 -7.68,-5.76 -16.8,-10.49 -27.37,-14.16 -10.55,-3.69 -21.68,-5.84 -33.36,-6.49 -11.68,-0.64 -23.51,0.32 -35.51,2.89 -12.01,2.56 -23.28,7.03 -33.84,13.44 -0.96,0.96 -0.72,2.07 0.72,3.36 1.44,1.27 3.27,2.4 5.52,3.36 l 8.64,3.84 c 10.56,-5.44 22.24,-8.96 35.04,-10.56 12.79,-1.6 25.2,-1.04 37.2,1.68 12,2.71 22.63,7.6 31.92,14.64 9.28,7.04 15.52,16.47 18.72,28.32 2.87,10.87 2.8,20.56 -0.24,29.03 -3.05,8.48 -8.09,16.01 -15.12,22.57 -7.04,6.55 -15.29,12.16 -24.73,16.8 -9.44,4.64 -18.87,8.72 -28.32,12.23 -9.44,3.53 -18.32,6.49 -26.64,8.89 -8.32,2.4 -14.87,4.56 -19.67,6.48 -7.37,2.88 -10.73,9.67 -10.08,20.4 0.63,10.72 1.6,24.88 2.88,42.48 -1.93,0.95 -3.45,1.52 -4.56,1.68 -1.13,0.15 -2,0.31 -2.64,0.48 -0.64,0.16 -1.13,0.47 -1.44,0.96 -0.33,0.48 -0.8,1.68 -1.44,3.59 -0.97,5.12 -0.89,9.05 0.23,11.76 1.13,2.72 2.33,4.24 3.61,4.57 10.88,1.59 21.19,3.75 30.96,6.48 9.75,2.71 19.59,5.36 29.52,7.92 9.91,2.56 20.15,4.72 30.72,6.48 10.56,1.76 22.08,2.47 34.56,2.16 z" /><path
         id="path44"
         style="fill:#ffffff;fill-opacity:1;fill-rule:nonzero;stroke:none"
         d="m 3204.55,3732.57 -3.16,-259.93 c -1.01,-27.15 15.33,-184.61 15.33,-184.61 l -39.19,-4.14 -222.66,-11.6 -144.6,6.64 -2,47.01 -9.36,172.13 0.96,226.58 26.12,2.03 139.52,-2.55 z" /><path
         id="path46"
         style="fill:#000000;fill-opacity:1;fill-rule:nonzero;stroke:none"
         d="m 3194.74,3731.92 c -1.42,-150.45 -3.17,-296.69 12.32,-446.47 3.48,3.32 6.96,6.64 10.44,9.96 -99.97,-10.56 -205.62,-18.29 -302.81,-13.83 l -93.81,4.3 c -11.49,0.53 -1.13,1.36 -0.89,-4.27 -0.3,7.16 -0.61,14.31 -0.91,21.48 -0.38,8.8 -0.68,17.61 -1.16,26.41 -3.07,56.4 -6.13,112.81 -9.2,169.23 -3.08,56.52 0.48,114.17 0.72,170.77 0.07,14.19 0.12,28.37 0.18,42.55 0.09,19.28 -9.23,5.33 2.53,6.25 25.85,2.01 51.94,0.3 77.84,-0.17 104.71,-1.91 209.12,3.38 313.78,7.07 11.2,0.39 14.69,15.22 1.56,14.75 -73.78,-2.6 -147.56,-5.21 -221.34,-7.82 -61.11,-2.15 -122.35,4.64 -183.34,-0.1 -3.98,-0.32 -10.56,-3.11 -10.59,-8.03 -0.63,-149.35 4.05,-296.59 10.4,-445.72 0.16,-3.62 2.72,-6.47 6.54,-6.64 136.95,-6.29 272.3,-5.42 408.95,9.02 5.41,0.57 11.06,3.9 10.43,9.96 -15.35,148.44 -13.43,293.54 -12.02,442.61 0.1,10.47 -19.53,7.82 -19.62,-1.31 z" /><path
         id="path48"
         style="fill:#000000;fill-opacity:1;fill-rule:nonzero;stroke:none"
         d="m 2977.78,3389.71 c 10.23,0.63 20.63,4.72 31.2,12.25 10.56,7.51 19.84,15.99 27.84,25.43 7.98,9.43 13.84,18.47 17.52,27.12 3.66,8.64 3.92,14.23 0.73,16.8 -9.61,7.36 -18.89,8.71 -27.86,4.08 -8.95,-4.64 -16.96,-12.09 -24,-22.32 -7.03,-10.24 -12.79,-21.45 -17.27,-33.59 -4.49,-12.17 -7.21,-22.09 -8.16,-29.77 m -8.16,251.99 c -8.64,-17.6 -14.98,-35.35 -18.96,-53.27 -4,-17.92 -6.41,-35.36 -7.2,-52.32 -0.82,-16.97 -0.48,-32.96 0.96,-48 1.44,-15.04 3.36,-28.49 5.76,-40.31 2.39,-11.86 4.87,-21.78 7.44,-29.77 2.56,-8.01 4.48,-13.28 5.76,-15.84 1.92,7.99 4.48,16.39 7.67,25.2 3.2,8.79 6.89,17.04 11.05,24.72 4.16,7.68 8.47,14.48 12.97,20.39 4.47,5.92 9.11,10.34 13.91,13.21 2.88,2.55 7.03,4.72 12.48,6.48 5.43,1.76 11.11,2.72 17.04,2.87 5.92,0.17 11.59,-0.71 17.04,-2.64 5.42,-1.91 9.44,-4.96 12,-9.12 2.55,-3.82 3.42,-8.95 2.64,-15.35 -0.8,-6.4 -2.97,-13.37 -6.48,-20.88 -3.54,-7.53 -8.24,-15.29 -14.16,-23.28 -5.92,-8.01 -12.72,-15.45 -20.4,-22.32 -7.68,-6.89 -16.02,-12.8 -24.96,-17.76 -8.97,-4.97 -18.4,-8.08 -28.32,-9.36 -0.65,-2.24 -0.56,-4.73 0.24,-7.44 0.79,-2.72 0.88,-4.4 0.24,-5.04 -5.13,-0.64 -8.96,-0.4 -11.52,0.72 -2.57,1.12 -4.32,2.48 -5.28,4.07 -0.65,1.29 -1.13,2.17 -1.44,2.65 -0.32,0.48 -0.48,1.2 -0.48,2.16 v 3.59 c 0,1.45 0.32,3.77 0.96,6.97 -6.72,7.99 -12.01,17.99 -15.85,30 -3.84,12 -6.71,23.91 -8.63,35.77 -6.41,39.99 -7.37,76.3 -2.89,108.95 4.49,32.64 12.32,63.04 23.52,91.2 2.57,0.64 4.73,0.72 6.48,0.24 1.77,-0.48 3.29,-1.19 4.57,-2.16 1.27,-1.28 2.56,-2.73 3.84,-4.33" /><path
         id="path50"
         style="fill:#ffffff;fill-opacity:1;fill-rule:nonzero;stroke:none"
         d="m 3744.54,3732.57 -3.15,-259.93 c -1.02,-27.16 15.32,-184.61 15.32,-184.61 l -39.19,-4.14 -222.65,-11.6 -144.61,6.64 -2,47.01 -9.36,172.13 0.97,226.57 26.11,2.04 139.52,-2.54 z" /><path
         id="path52"
         style="fill:#000000;fill-opacity:1;fill-rule:nonzero;stroke:none"
         d="m 3734.73,3731.93 c -1.42,-150.45 -3.17,-296.7 12.32,-446.48 3.48,3.32 6.96,6.64 10.44,9.96 -99.97,-10.56 -205.62,-18.29 -302.81,-13.83 -31.27,1.43 -62.54,2.87 -93.81,4.31 -11.49,0.52 -1.13,1.35 -0.89,-4.28 -0.3,7.16 -0.61,14.31 -0.91,21.48 -0.38,8.8 -0.68,17.61 -1.16,26.41 -3.07,56.4 -6.13,112.81 -9.2,169.23 -3.08,56.52 0.48,114.17 0.73,170.77 0.06,14.19 0.12,28.37 0.18,42.55 0.08,19.28 -9.23,5.33 2.53,6.25 25.84,2.01 51.93,0.3 77.83,-0.18 104.71,-1.89 209.12,3.4 313.78,7.09 11.2,0.39 14.69,15.22 1.56,14.75 -73.78,-2.61 -147.56,-5.21 -221.34,-7.82 -61.11,-2.15 -122.34,4.63 -183.34,-0.11 -3.98,-0.31 -10.56,-3.11 -10.58,-8.03 -0.64,-149.35 4.04,-296.59 10.39,-445.72 0.16,-3.62 2.72,-6.47 6.54,-6.64 136.95,-6.29 272.3,-5.42 408.95,9.02 5.41,0.57 11.06,3.9 10.43,9.96 -15.35,148.44 -13.43,293.55 -12.02,442.62 0.1,10.47 -19.53,7.82 -19.62,-1.31 z" /><path
         id="path54"
         style="fill:#000000;fill-opacity:1;fill-rule:nonzero;stroke:none"
         d="m 3583.8,3641.5 c 2.56,1.28 4,-1.68 4.32,-8.88 0.32,-7.21 0,-17.21 -0.95,-30 -0.97,-12.8 -2.4,-27.68 -4.33,-44.66 -1.91,-16.94 -3.91,-34.46 -5.99,-52.55 -2.09,-18.07 -4.01,-35.91 -5.76,-53.52 -1.76,-17.59 -2.97,-33.43 -3.61,-47.51 -0.96,-9.29 -1.19,-17.13 -0.71,-23.51 0.48,-6.41 0.71,-12.01 0.71,-16.82 -1.28,-1.27 -3.84,-1.27 -7.68,0 -3.84,1.29 -6.09,3.84 -6.71,7.68 -0.97,21.77 -0.8,42.97 0.48,63.61 1.28,20.64 3.03,41.11 5.28,61.44 2.24,20.32 4.38,40.72 6.47,61.18 2.07,20.5 3.44,41.77 4.09,63.86 -2.57,0.96 -7.92,0.64 -16.09,-0.95 -8.15,-1.62 -17.27,-3.61 -27.36,-6.01 -10.07,-2.4 -19.91,-4.65 -29.51,-6.72 -9.6,-2.09 -16.81,-2.96 -21.6,-2.66 -2.25,0.34 -4,1.29 -5.3,2.9 -1.26,1.6 -2.21,5.28 -2.87,11.04 8.32,2.24 17.36,4.38 27.12,6.47 9.77,2.07 19.84,4.09 30.24,6 10.4,1.91 20.65,3.68 30.73,5.28 10.08,1.61 19.75,3.04 29.03,4.33 z" /><path
         id="path56"
         style="fill:#ffffff;fill-opacity:1;fill-rule:nonzero;stroke:none"
         d="m 4284.55,3732.57 -3.16,-259.93 c -1.01,-27.16 15.33,-184.61 15.33,-184.61 l -39.19,-4.14 -222.66,-11.6 -144.6,6.64 -2,47.01 -9.36,172.13 0.96,226.57 26.12,2.04 139.52,-2.54 z" /><path
         id="path58"
         style="fill:#000000;fill-opacity:1;fill-rule:nonzero;stroke:none"
         d="m 4274.74,3731.93 c -1.42,-150.45 -3.17,-296.69 12.32,-446.48 3.48,3.32 6.96,6.64 10.44,9.96 -99.97,-10.56 -205.62,-18.29 -302.81,-13.83 l -93.81,4.31 c -11.49,0.52 -1.13,1.35 -0.89,-4.28 -0.3,7.16 -0.61,14.31 -0.91,21.48 -0.38,8.8 -0.68,17.61 -1.16,26.41 -3.07,56.4 -6.13,112.81 -9.2,169.23 -3.08,56.52 0.48,114.17 0.72,170.77 0.07,14.19 0.12,28.37 0.18,42.55 0.09,19.28 -9.23,5.33 2.53,6.25 25.85,2 51.94,0.3 77.84,-0.18 104.71,-1.89 209.12,3.4 313.78,7.09 11.2,0.39 14.69,15.22 1.56,14.75 -73.78,-2.61 -147.56,-5.21 -221.34,-7.82 -61.11,-2.15 -122.35,4.63 -183.34,-0.11 -3.98,-0.32 -10.56,-3.11 -10.59,-8.03 -0.63,-149.35 4.05,-296.59 10.4,-445.72 0.16,-3.62 2.72,-6.47 6.54,-6.64 136.95,-6.29 272.3,-5.42 408.95,9.02 5.41,0.57 11.06,3.89 10.43,9.96 -15.36,148.45 -13.43,293.55 -12.02,442.62 0.1,10.47 -19.53,7.82 -19.62,-1.31 z" /><path
         id="path60"
         style="fill:#000000;fill-opacity:1;fill-rule:nonzero;stroke:none"
         d="m 4088.91,3394.5 c 5.44,0.96 9.2,5.67 11.28,14.15 2.08,8.48 2.8,18.24 2.16,29.29 -0.65,11.04 -2.48,22 -5.52,32.88 -3.05,10.88 -6.8,19.2 -11.28,24.96 -2.25,-5.12 -4.32,-11.45 -6.24,-18.97 -1.91,-7.52 -3.44,-15.28 -4.56,-23.28 -1.12,-7.99 -1.85,-15.91 -2.16,-23.75 -0.32,-7.85 0.08,-14.65 1.2,-20.41 1.12,-5.76 2.88,-10.08 5.29,-12.95 2.39,-2.89 5.67,-3.53 9.83,-1.92 m -7.2,130.56 c 1.27,3.84 3.67,9.67 7.2,17.52 3.52,7.83 6.96,15.91 10.32,24.23 3.36,8.32 6,15.84 7.92,22.56 1.93,6.72 1.93,10.88 0,12.48 -5.12,3.52 -11.12,6.41 -18,8.65 -6.88,2.23 -13.04,2.55 -18.48,0.96 -10.88,-4.49 -17.6,-10.49 -20.16,-18 -2.57,-7.52 -2.57,-15.36 0,-23.52 2.56,-8.16 6.8,-16.25 12.73,-24.24 5.9,-8.01 12.07,-14.88 18.47,-20.64 m 32.16,98.4 c 2.88,-0.96 5.84,-2.41 8.88,-4.32 3.04,-1.92 4.08,-6.24 3.12,-12.96 -2.88,-9.93 -5.6,-18.89 -8.16,-26.89 -2.56,-7.99 -5.21,-15.68 -7.92,-23.03 -2.73,-7.37 -5.6,-14.56 -8.63,-21.6 -3.05,-7.04 -6.33,-14.41 -9.85,-22.08 7.03,-8.32 12.8,-18.97 17.28,-31.92 4.48,-12.97 7.12,-26.16 7.92,-39.61 0.8,-13.43 -0.48,-25.99 -3.84,-37.67 -3.36,-11.68 -9.2,-20.08 -17.52,-25.2 -6.08,-3.2 -10.72,-4.65 -13.92,-4.32 -3.2,0.32 -6.71,2.4 -10.56,6.24 -3.84,4.16 -6.72,9.76 -8.64,16.79 -1.92,7.04 -3.12,14.65 -3.6,22.81 -0.48,8.16 -0.32,16.63 0.48,25.43 0.8,8.8 1.84,17.21 3.12,25.21 0.64,2.88 1.52,6.4 2.64,10.56 1.11,4.16 2.47,8.16 4.08,12 1.6,4.48 3.36,9.28 5.28,14.4 -2.24,4.8 -5.92,10.08 -11.04,15.84 -5.12,5.76 -10.08,12.15 -14.88,19.2 -4.8,7.03 -8.8,14.8 -12,23.28 -3.2,8.48 -4.16,17.84 -2.87,28.08 -0.33,5.11 1.19,10.23 4.55,15.36 3.37,5.12 6.32,8.79 8.88,11.04 7.68,6.4 17.28,10 28.8,10.8 11.53,0.8 24.32,-1.68 38.4,-7.44" /><path
         id="path62"
         style="fill:#ffffff;fill-opacity:1;fill-rule:nonzero;stroke:none"
         d="m 4824.54,3732.57 -3.15,-259.93 c -1.02,-27.16 15.32,-184.61 15.32,-184.61 l -39.19,-4.14 -222.65,-11.6 -144.61,6.64 -2,47.01 -9.36,172.13 0.97,226.57 26.11,2.04 139.52,-2.54 z" /><path
         id="path64"
         style="fill:#000000;fill-opacity:1;fill-rule:nonzero;stroke:none"
         d="m 4814.73,3731.93 c -1.42,-150.45 -3.17,-296.7 12.32,-446.48 3.48,3.32 6.96,6.64 10.44,9.96 -99.97,-10.56 -205.62,-18.29 -302.81,-13.83 -31.27,1.43 -62.54,2.87 -93.81,4.31 -11.49,0.52 -1.13,1.35 -0.89,-4.28 -0.3,7.16 -0.61,14.31 -0.91,21.48 -0.38,8.8 -0.68,17.61 -1.16,26.41 -3.07,56.4 -6.13,112.81 -9.2,169.23 -3.08,56.52 0.48,114.17 0.73,170.77 0.06,14.19 0.12,28.37 0.18,42.55 0.08,19.28 -9.23,5.33 2.53,6.25 25.84,2 51.93,0.3 77.83,-0.18 104.71,-1.89 209.12,3.4 313.78,7.09 11.2,0.39 14.69,15.22 1.56,14.75 -73.78,-2.61 -147.56,-5.21 -221.34,-7.82 -61.11,-2.15 -122.34,4.63 -183.34,-0.11 -3.98,-0.32 -10.56,-3.11 -10.58,-8.03 -0.64,-149.35 4.04,-296.59 10.39,-445.72 0.16,-3.62 2.72,-6.47 6.54,-6.64 136.95,-6.29 272.3,-5.42 408.95,9.02 5.41,0.57 11.06,3.89 10.43,9.96 -15.35,148.44 -13.43,293.55 -12.02,442.62 0.1,10.47 -19.53,7.82 -19.62,-1.31 z" /><path
         id="path66"
         style="fill:#000000;fill-opacity:1;fill-rule:nonzero;stroke:none"
         d="m 4573.84,3584.5 c 2.88,-5.45 7.69,-7.29 14.4,-5.52 6.72,1.75 13.75,5.34 21.12,10.79 7.36,5.43 14.16,12.16 20.4,20.16 6.24,8 10.32,15.68 12.24,23.05 -10.56,0.63 -20.4,-0.96 -29.52,-4.8 -9.12,-3.86 -16.96,-8.48 -23.52,-13.93 -6.57,-5.43 -11.28,-11.04 -14.16,-16.79 -2.88,-5.76 -3.21,-10.08 -0.96,-12.96 m 85.92,61.91 c 0.64,0.97 0.48,-2 -0.48,-8.87 -0.96,-6.88 -2.24,-15.36 -3.84,-25.43 -1.6,-10.09 -3.28,-20.73 -5.04,-31.95 -1.77,-11.18 -3.12,-20.8 -4.08,-28.78 0,-0.95 -0.4,-5.84 -1.2,-14.65 -0.8,-8.8 -1.6,-19.75 -2.4,-32.87 -0.8,-13.13 -1.76,-27.36 -2.88,-42.72 -1.13,-15.37 -2.08,-30.18 -2.87,-44.41 -0.82,-14.23 -1.37,-26.87 -1.68,-37.91 -0.33,-11.05 -0.33,-18.8 0,-23.28 -3.85,-0.65 -6.41,-0.88 -7.69,-0.72 -1.28,0.16 -3.84,1.18 -7.68,3.13 0.64,21.41 1.52,41.34 2.64,59.75 1.11,18.39 2.32,36.71 3.6,54.94 1.27,18.25 2.64,36.9 4.08,55.93 1.44,19.04 3.12,39.91 5.05,62.64 -6.09,-5.75 -12.9,-11.05 -20.41,-15.83 -7.52,-4.81 -15.04,-8.24 -22.56,-10.33 -7.52,-2.07 -14.49,-2.48 -20.88,-1.19 -6.41,1.26 -11.52,5.27 -15.36,12 -2.56,5.76 -1.36,13.5 3.6,23.28 4.96,9.75 12.4,18.95 22.32,27.59 9.92,8.65 21.67,15.29 35.28,19.93 13.6,4.64 27.76,4.55 42.48,-0.25" /><path
         id="path68"
         style="fill:#ffffff;fill-opacity:1;fill-rule:nonzero;stroke:none"
         d="m 5364.55,3732.57 -3.16,-259.94 c -1.01,-27.15 15.33,-184.61 15.33,-184.61 l -39.19,-4.14 -222.66,-11.6 -144.6,6.64 -2,47.01 -9.36,172.13 0.96,226.58 26.12,2.03 139.52,-2.54 z" /><path
         id="path70"
         style="fill:#000000;fill-opacity:1;fill-rule:nonzero;stroke:none"
         d="m 5354.74,3731.92 c -1.42,-150.45 -3.17,-296.69 12.32,-446.48 3.48,3.32 6.96,6.64 10.44,9.96 -99.97,-10.56 -205.62,-18.29 -302.81,-13.83 l -93.81,4.31 c -11.49,0.52 -1.13,1.35 -0.89,-4.28 -0.3,7.16 -0.61,14.31 -0.91,21.48 -0.38,8.8 -0.68,17.61 -1.16,26.41 -3.07,56.4 -6.13,112.81 -9.2,169.23 -3.08,56.52 0.48,114.17 0.72,170.77 0.07,14.19 0.12,28.37 0.18,42.55 0.09,19.28 -9.23,5.33 2.53,6.25 25.85,2.01 51.94,0.3 77.84,-0.17 104.71,-1.9 209.12,3.39 313.78,7.08 11.19,0.39 14.69,15.22 1.56,14.75 -73.78,-2.61 -147.56,-5.21 -221.34,-7.82 -61.11,-2.15 -122.35,4.63 -183.34,-0.11 -3.98,-0.31 -10.56,-3.11 -10.59,-8.03 -0.63,-149.35 4.05,-296.59 10.4,-445.72 0.16,-3.62 2.72,-6.47 6.54,-6.64 136.95,-6.29 272.3,-5.42 408.95,9.02 5.41,0.57 11.06,3.9 10.43,9.96 -15.36,148.45 -13.43,293.55 -12.02,442.62 0.1,10.47 -19.53,7.82 -19.62,-1.31 z" /><path
         id="path72"
         style="fill:#000000;fill-opacity:1;fill-rule:nonzero;stroke:none"
         d="m 5090.36,3635.71 h 15.34 c -1.27,-20.16 -1.43,-41.2 -0.48,-63.12 0.98,-21.92 2.41,-44.23 4.33,-66.97 1.91,-22.71 3.99,-45.52 6.24,-68.39 2.23,-22.88 4,-45.52 5.27,-67.92 -0.95,-2.56 -2.08,-3.92 -3.36,-4.08 -1.27,-0.16 -3.04,-0.23 -5.27,-0.23 -6.07,-1.61 -9.77,-0.18 -11.04,4.31 0,19.2 -0.73,40.39 -2.16,63.6 -1.44,23.2 -3.05,45.91 -4.8,68.16 -1.77,22.23 -3.45,42.79 -5.05,61.68 -1.59,18.87 -2.72,33.59 -3.36,44.16 0,2.55 -0.16,5.68 -0.47,9.36 -0.33,3.68 -0.57,7.12 -0.73,10.33 -0.16,3.18 0.09,5.75 0.73,7.67 0.63,1.92 2.24,2.41 4.81,1.44 z" /><path
         id="path74"
         style="fill:#000000;fill-opacity:1;fill-rule:nonzero;stroke:none"
         d="m 5173.21,3473.18 c 0.32,-9.92 1.05,-19.92 2.17,-30 1.11,-10.08 2.71,-19.2 4.79,-27.36 2.08,-8.16 4.81,-14.72 8.17,-19.68 3.36,-4.97 7.59,-7.28 12.71,-6.96 4.81,-0.65 9.52,2.64 14.16,9.84 4.64,7.21 8.8,15.92 12.49,26.16 3.67,10.24 6.87,20.88 9.6,31.93 2.72,11.03 4.72,20.07 6,27.11 1.27,8.96 1.99,18 2.16,27.12 0.15,9.13 -0.08,17.6 -0.73,25.43 -0.64,7.85 -1.61,15.04 -2.87,21.61 -1.29,6.56 -2.57,11.75 -3.85,15.6 -3.52,10.57 -9.59,20 -18.23,28.32 -8.64,8.32 -19.85,13.12 -33.6,14.4 -0.65,-2.88 -1.38,-7.76 -2.16,-14.63 -0.81,-6.9 -1.68,-14.81 -2.65,-23.77 -0.95,-8.97 -2,-18.56 -3.11,-28.8 -1.12,-10.25 -2.09,-20.16 -2.88,-29.76 -0.81,-9.61 -1.44,-18.47 -1.93,-26.64 -0.47,-8.16 -0.56,-14.8 -0.24,-19.92 m 86.89,84.96 c 2.23,-32.32 1.51,-60.17 -2.16,-83.51 -3.68,-23.37 -8.73,-42.73 -15.12,-58.09 -6.41,-15.36 -13.28,-27.05 -20.64,-35.04 -7.38,-8.01 -13.61,-12.96 -18.73,-14.88 -7.36,-1.92 -12.95,-2 -16.79,-0.24 -3.84,1.76 -7.68,5.83 -11.54,12.24 -3.51,7.04 -6.3,16.4 -8.39,28.08 -2.07,11.68 -3.59,24.23 -4.55,37.68 -0.97,13.44 -1.44,26.95 -1.44,40.56 0,13.59 0.31,25.68 0.96,36.24 0.94,12.8 1.68,23.52 2.15,32.16 0.48,8.64 1.13,16.48 1.93,23.52 0.79,7.03 1.6,14 2.4,20.88 0.78,6.88 1.99,14.95 3.59,24.24 -5.11,0.63 -8.56,2.88 -10.31,6.73 -1.77,3.83 -2.64,7.51 -2.64,11.03 23.04,-1.92 41.2,-6.64 54.48,-14.16 13.27,-7.52 23.36,-15.76 30.24,-24.72 6.87,-8.97 11.28,-17.52 13.19,-25.68 1.93,-8.16 3.04,-13.85 3.37,-17.04" /><path
         id="path76"
         style="fill:#000000;fill-opacity:1;fill-rule:nonzero;stroke:none"
         d="m 849.789,1045.13 c -31.437,-0.25 -89.059,5.84 -119.57,20.61 -5.149,2.5 -14.41,8.78 -20.61,6.19 -2.488,2.75 -0.757,3.27 0,6.18 -40.8,15.2 -72.218,44.84 -103.058,76.27 -19.75,12.8 -38.051,44.24 -59.781,61.84 0.699,4.82 -0.34,7.9 -2.059,10.32 -8.16,4.8 -12.711,18.54 -16.492,28.85 -1.117,4.65 -3.18,-2.5 -6.18,2.06 -2.668,24.65 -16.84,28.6 -30.918,63.91 10.391,0.07 9,-29.47 24.719,-30.93 7.558,-18.55 17.18,-35.04 30.93,-47.41 -4.891,9.96 -10.731,30.14 -24.731,37.1 0.77,3.27 3.609,-1.8 4.121,2.08 -32.992,40.86 -62.012,123.41 -49.48,216.42 -8.239,-11.24 -2.66,-76.51 -6.18,-70.08 -5.852,12.37 -0.34,31.52 -2.059,45.35 -5.332,43.12 20.438,113.37 41.219,142.23 26.969,46.72 65.11,81.26 107.199,123.68 -25.429,-68.71 -105.05,-112.08 -125.738,-185.51 -9.883,-10.66 -20.363,-40.55 -14.441,-53.59 15.98,69.3 50.929,113.02 88.648,152.53 -36.68,-77.39 -59.879,-193.34 -47.418,-292.71 8.59,-68.11 40.281,-116.04 72.149,-164.91 -16.75,16.59 -27.489,31.27 -39.18,49.47 -7.809,-11.68 10.152,-19.32 16.5,-26.79 13.66,-15.99 26.113,-37.63 41.223,-49.48 3.707,1.55 0.347,3.78 0,6.18 -5.411,4.9 9.726,-4.03 2.07,-8.24 21.039,-17.52 27.566,-35.55 49.469,-45.35 33.851,-40.02 97.66,-67.68 158.73,-70.08 81.578,-3.27 163.348,37.7 222.619,74.2 -40.11,-48.09 -128.4,-75.41 -191.701,-80.39 m 51.52,729.71 c -10.469,-3.52 -31.938,10.66 -45.34,4.13 -2.739,-0.09 -1.891,4.21 -0.34,4.21 -13.828,6.27 -53.77,4.21 -75.93,1.97 -64.41,-6.35 -129.34,-42.6 -166.969,-74.2 46.04,82.79 192.481,127.11 288.579,63.89 m 39.179,-14.43 c -1.117,-4.29 -3.179,-4.37 -6.187,-2.06 -31.949,40.89 -84.692,60.98 -160.781,57.72 79.011,18.47 135.359,-11.16 166.968,-55.66 m -160.789,22.68 c 11.09,-0.77 10.231,-0.6 20.621,-2.05 -2.148,-2.66 -21.64,-5.33 -20.621,2.05 M 1253.8,1416.17 c 0.19,3.28 5.25,1.64 4.13,6.19 -9.62,7.38 -7.63,25.93 -12.37,45.35 -10.73,1.02 3.96,-11.85 -2.06,-12.37 -6.43,6.36 -3.26,16.4 -4.12,22.68 -4.55,-5.07 -13.92,13.39 -12.37,14.43 4.73,0.59 2.32,-5.93 6.19,-6.19 -0.18,5.24 -1.12,9.79 -4.13,12.36 -1.37,-6.17 -4.38,1.99 -8.24,0 3.7,7.4 -8.75,13.92 -10.32,22.68 4.83,-1.38 5.51,-6.87 10.32,-8.25 -3.61,7.49 -13.92,29.2 -16.49,18.56 -0.09,10.57 -13.92,31.52 -22.67,32.98 5.23,-3.78 9.87,-7.98 10.31,-16.49 -0.44,2.74 -10.39,9.45 -6.19,4.12 24.72,-44.58 80.82,-106.33 65.96,-183.45 -0.94,-4.82 -4.99,-14 -8.25,-14.44 2.67,-3.78 -2.32,-12.71 -2.06,-16.49 -0.42,1.63 -0.09,4.04 -2.06,4.12 -3.69,-12.71 -12.29,-23.7 -8.24,-32.98 -3.87,-0.43 -4.55,2.32 -8.24,2.06 -4.82,-16.66 -25.27,-27.99 -24.75,-43.29 -17.17,-0.86 -31.09,-33.32 -45.35,-37.1 12.03,16.83 18.98,38.73 26.79,59.78 -3.26,2.06 -8.24,1.98 -4.12,6.18 3.28,-0.16 1.64,-5.23 6.2,-4.12 -3.01,11.42 11.59,17.26 2.06,22.67 14.34,23.04 19.5,81.17 14.42,111.32 -1.2,7.04 -11.15,20.27 -2.06,12.38 -5.75,15.7 -3.35,28.24 -12.36,30.91 11.85,15.54 -14.7,38.73 -14.44,49.47 4.72,0.6 2.33,-5.93 6.18,-6.19 0.69,10.31 -12.01,7.22 -12.36,16.49 4.21,-0.59 4.03,-5.58 8.24,-6.18 -6.86,20.52 -18.2,34.79 -26.79,57.72 -2.84,0.09 -4.56,-0.95 -6.19,-2.06 3,4.89 4.39,3.86 2.06,10.3 -5.15,-0.34 -8.49,1.04 -10.3,4.13 2.39,0.34 5.83,-0.34 6.18,2.06 -11.76,2.23 -3.35,8.67 -12.37,8.24 27.58,-61.14 70.19,-129.6 65.97,-218.5 0.86,-3.26 6.52,-1.71 4.12,-8.23 -2.05,-0.27 -4.12,8.93 -6.18,2.05 6.86,-18.37 -9.89,-45.1 -6.18,-59.78 -20.02,-36.84 -38.4,-112.77 -88.65,-138.12 34.02,59.62 48.78,159.76 24.74,222.63 4.9,-40.19 18.05,-86.92 0,-121.6 2.4,-0.36 5.84,0.34 6.18,-2.08 -9.7,-16.83 -14.08,-53.76 -22.67,-70.08 -2.75,0 -1.89,3.61 -4.12,4.12 0,-4.89 0.77,-18.12 -4.13,-10.3 -1.2,-13.48 -3.44,-7.65 -2.06,-16.5 -8.33,3.53 -11.17,-16.23 -16.48,-22.66 -9.97,-11.95 -30.67,-20.36 -47.41,-30.93 -24.57,-15.46 -50.082,-32.98 -76.269,-43.29 -68.121,-26.71 -147.653,-35.12 -197.891,-14.43 1.449,-2.83 -12.199,10.56 -16.5,2.06 0,2.07 1.719,2.5 2.059,4.12 C 644.16,1134.29 532,1248 522.039,1385.25 c -2.758,38.31 0.25,79.63 4.121,107.2 1.879,13.57 1.879,27.56 4.121,39.16 0.09,0.43 4.117,-2.07 4.117,-2.07 9.961,31.35 17.692,70.09 30.93,101.01 2.652,6.19 10.82,11.34 6.184,20.62 7.289,-5.67 14.758,12.45 10.308,18.55 2.91,-0.77 3.512,-2.5 6.172,0 2.496,10.73 12.02,23.19 20.61,30.91 20.449,18.3 54.117,41.66 76.289,51.54 57.711,25.78 135.949,27.14 199.937,18.55 13.223,-11.68 37.871,-9.52 45.352,-30.92 -4.461,-3.09 -5.758,-9.26 -10.309,-12.37 10.488,-2.14 27.219,3.36 26.797,18.55 10.652,-4.03 15.371,-18.03 20.621,-14.42 4.289,-18.2 20.43,-33.93 28.852,-41.23 -1.371,-1.72 1.98,-14.34 10.309,-12.37 -5.5,-6.53 3.87,-12.8 6.17,-12.37 -3.85,-8.07 7.82,-18.2 12.38,-24.73 -12.1,40.1 -44.492,71.37 -59.781,98.94 13.051,-3.69 21.39,-23.69 39.161,-14.42 -20.61,16.14 -42.501,19.41 -57.712,32.97 -9.188,18.3 -34.789,31.19 -41.227,45.35 54.719,-27.74 80.477,-48.09 119.559,-92.75 -7.98,3 -12.1,9.87 -18.55,14.43 1.21,-7.39 -12.282,-0.09 -10.309,-8.25 5.839,3.95 16.329,-1.12 12.369,-6.18 9.01,3.77 6.61,-3.01 14.42,-8.25 2.23,-1.46 11.68,-1.89 14.44,-4.12 3.08,-2.59 3.44,-9.11 6.19,-12.37 14.59,-17.44 39.25,-23.97 49.46,-47.41 3.87,-1.98 6.87,6.18 8.25,0 -5.41,-8.51 13.15,-27.84 20.61,-37.1 -0.6,4.71 5.93,2.32 6.19,6.18 -7.73,1.89 -10.31,16.58 -8.24,18.55 -7.14,4.12 0.16,-0.95 -4.13,-2.05 -10.48,8.5 -6.11,20 -18.55,24.73 0.77,-0.44 5.06,1.11 4.12,2.06 -13.75,13.31 -29.19,25.07 -43.3,39.16 -18.45,18.47 -34,39.77 -53.59,57.72 -9.86,9.1 -22.161,14.85 -32.982,22.67 -8.839,6.46 -13.23,15.73 -20.597,20.62 -13.153,8.77 -29.383,10.56 -41.242,20.61 -3.848,0.43 -4.547,-2.32 -8.25,-2.06 -8.668,5.5 -20.68,17.18 -30.911,14.43 -4.296,10.91 -21.976,25.42 -30.918,18.56 13.051,-3.53 22.5,-10.49 28.848,-20.63 -14.418,3.35 -39.5,6.7 -49.457,6.19 -65.031,12.97 -147.48,-42.6 -197.891,-80.39 -21.21,-15.89 -42.519,-39.17 -57.71,-53.6 -7.399,-6.95 -9.629,-11.41 -12.301,-14.26 0,0.86 -2.821,3.01 -4.199,1.9 -7.559,-6.02 -12.45,-20.71 -20.61,-32.98 -19.332,-29.12 -47.93,-64.94 -55.66,-98.96 -1.719,-7.72 1.371,-14.34 0,-20.61 -0.09,-0.43 -4.129,2.07 -4.129,2.07 -4.551,-10.91 -5.75,-38.99 -6.172,-55.66 -1.39,-59.52 15.801,-109.84 28.852,-162.85 12.199,-16.65 22.758,-34.95 28.859,-57.71 81.86,-115.53 175.809,-236.28 379.281,-212.33 6.797,2.24 7.219,3.96 14.438,6.19 7.73,2.32 15.891,0.26 22.672,2.07 25.508,6.88 48.527,19.15 72.149,37.11 10.39,7.8 28.26,10.55 30.92,24.72 0.43,-1.63 1.72,-2.4 4.12,-2.06 74.3,95.95 214.46,143.87 218.51,296.84 -1.56,3.27 -6.54,3.09 -6.2,8.24" /><g
         transform="scale(10)"
         id="g78"><text
           id="text82"
           style="font-variant:normal;font-weight:normal;font-size:12px;font-family:Papyrus;-inkscape-font-specification:Papyrus;writing-mode:lr-tb;fill:#000000;fill-opacity:1;fill-rule:nonzero;stroke:none"
           transform="matrix(1,0,0,-1,55.6691,142.232)"><tspan
             id="tspan80"
             y="0"
             x="0 6.7317662 9.2397661 14.112 18.455999 25.164 31.596001 34.236 36.959999 43.294598 49.666595 56.038597">Virtual Peer</tspan></text>
</g><path
         id="path84"
         style="fill:#000000;fill-opacity:1;fill-rule:nonzero;stroke:none"
         d="m 3169.55,1045.13 c -31.44,-0.25 -89.06,5.84 -119.57,20.61 -5.15,2.5 -14.41,8.78 -20.61,6.19 -2.49,2.75 -0.76,3.27 0,6.18 -40.8,15.2 -72.22,44.84 -103.06,76.27 -19.75,12.8 -38.05,44.24 -59.78,61.84 0.7,4.82 -0.34,7.9 -2.06,10.32 -8.16,4.8 -12.71,18.54 -16.49,28.85 -1.12,4.65 -3.18,-2.5 -6.18,2.06 -2.67,24.65 -16.84,28.6 -30.92,63.91 10.39,0.07 9,-29.47 24.72,-30.93 7.56,-18.55 17.18,-35.04 30.93,-47.41 -4.89,9.96 -10.73,30.14 -24.73,37.1 0.77,3.27 3.61,-1.8 4.12,2.08 -32.99,40.86 -62.01,123.41 -49.48,216.42 -8.24,-11.24 -2.66,-76.51 -6.18,-70.08 -5.85,12.37 -0.34,31.52 -2.06,45.35 -5.33,43.12 20.44,113.37 41.22,142.23 26.97,46.72 65.11,81.26 107.2,123.68 -25.43,-68.71 -105.05,-112.08 -125.74,-185.51 -9.88,-10.66 -20.36,-40.55 -14.44,-53.59 15.98,69.3 50.93,113.02 88.65,152.53 -36.68,-77.39 -59.88,-193.34 -47.42,-292.71 8.59,-68.11 40.28,-116.04 72.15,-164.91 -16.75,16.59 -27.49,31.27 -39.18,49.47 -7.81,-11.68 10.15,-19.32 16.5,-26.79 13.66,-15.99 26.11,-37.63 41.22,-49.48 3.71,1.55 0.35,3.78 0,6.18 -5.41,4.9 9.73,-4.03 2.07,-8.24 21.04,-17.52 27.57,-35.55 49.47,-45.35 33.85,-40.02 97.66,-67.68 158.73,-70.08 81.58,-3.27 163.35,37.7 222.62,74.2 -40.11,-48.09 -128.4,-75.41 -191.7,-80.39 m 51.52,729.71 c -10.47,-3.52 -31.94,10.66 -45.34,4.13 -2.74,-0.09 -1.89,4.21 -0.34,4.21 -13.83,6.27 -53.77,4.21 -75.93,1.97 -64.41,-6.35 -129.34,-42.6 -166.97,-74.2 46.04,82.79 192.48,127.11 288.58,63.89 m 39.18,-14.43 c -1.12,-4.29 -3.18,-4.37 -6.19,-2.06 -31.95,40.89 -84.69,60.98 -160.78,57.72 79.01,18.47 135.36,-11.16 166.97,-55.66 m -160.79,22.68 c 11.09,-0.77 10.23,-0.6 20.62,-2.05 -2.15,-2.66 -21.64,-5.33 -20.62,2.05 m 474.1,-366.92 c 0.19,3.28 5.25,1.64 4.13,6.19 -9.62,7.38 -7.63,25.93 -12.37,45.35 -10.73,1.02 3.96,-11.85 -2.06,-12.37 -6.43,6.36 -3.26,16.4 -4.12,22.68 -4.55,-5.07 -13.92,13.39 -12.37,14.43 4.73,0.59 2.32,-5.93 6.19,-6.19 -0.18,5.24 -1.12,9.79 -4.13,12.36 -1.37,-6.17 -4.38,1.99 -8.24,0 3.7,7.4 -8.75,13.92 -10.32,22.68 4.83,-1.38 5.51,-6.87 10.32,-8.25 -3.61,7.49 -13.92,29.2 -16.49,18.56 -0.09,10.57 -13.92,31.52 -22.67,32.98 5.23,-3.78 9.87,-7.98 10.31,-16.49 -0.44,2.74 -10.39,9.45 -6.19,4.12 24.72,-44.58 80.82,-106.33 65.96,-183.45 -0.94,-4.82 -4.99,-14 -8.25,-14.44 2.67,-3.78 -2.32,-12.71 -2.06,-16.49 -0.42,1.63 -0.09,4.04 -2.06,4.12 -3.69,-12.71 -12.29,-23.7 -8.24,-32.98 -3.87,-0.43 -4.55,2.32 -8.24,2.06 -4.82,-16.66 -25.27,-27.99 -24.75,-43.29 -17.17,-0.86 -31.09,-33.32 -45.35,-37.1 12.03,16.83 18.98,38.73 26.79,59.78 -3.26,2.06 -8.24,1.98 -4.12,6.18 3.28,-0.16 1.64,-5.23 6.2,-4.12 -3.01,11.42 11.59,17.26 2.06,22.67 14.34,23.04 19.5,81.17 14.42,111.32 -1.2,7.04 -11.15,20.27 -2.06,12.38 -5.75,15.7 -3.35,28.24 -12.36,30.91 11.85,15.54 -14.7,38.73 -14.44,49.47 4.72,0.6 2.33,-5.93 6.18,-6.19 0.69,10.31 -12.01,7.22 -12.36,16.49 4.21,-0.59 4.03,-5.58 8.24,-6.18 -6.86,20.52 -18.2,34.79 -26.79,57.72 -2.84,0.09 -4.56,-0.95 -6.19,-2.06 3,4.89 4.39,3.86 2.06,10.3 -5.15,-0.34 -8.49,1.04 -10.3,4.13 2.39,0.34 5.83,-0.34 6.18,2.06 -11.76,2.23 -3.35,8.67 -12.37,8.24 27.58,-61.14 70.19,-129.6 65.97,-218.5 0.86,-3.26 6.52,-1.71 4.12,-8.23 -2.05,-0.27 -4.12,8.93 -6.18,2.05 6.86,-18.37 -9.89,-45.1 -6.18,-59.78 -20.02,-36.84 -38.4,-112.77 -88.65,-138.12 34.02,59.62 48.78,159.76 24.74,222.63 4.9,-40.19 18.05,-86.92 0,-121.6 2.4,-0.36 5.84,0.34 6.18,-2.08 -9.7,-16.83 -14.08,-53.76 -22.67,-70.08 -2.75,0 -1.89,3.61 -4.12,4.12 0,-4.89 0.77,-18.12 -4.13,-10.3 -1.2,-13.48 -3.44,-7.65 -2.06,-16.5 -8.33,3.53 -11.17,-16.23 -16.48,-22.66 -9.97,-11.95 -30.67,-20.36 -47.41,-30.93 -24.57,-15.46 -50.08,-32.98 -76.27,-43.29 -68.12,-26.71 -147.65,-35.12 -197.89,-14.43 1.45,-2.83 -12.2,10.56 -16.5,2.06 0,2.07 1.72,2.5 2.06,4.12 -94.31,52.06 -206.47,165.77 -216.43,303.02 -2.76,38.31 0.25,79.63 4.12,107.2 1.88,13.57 1.88,27.56 4.12,39.16 0.09,0.43 4.12,-2.07 4.12,-2.07 9.96,31.35 17.69,70.09 30.93,101.01 2.65,6.19 10.82,11.34 6.18,20.62 7.29,-5.67 14.76,12.45 10.31,18.55 2.91,-0.77 3.51,-2.5 6.17,0 2.5,10.73 12.02,23.19 20.61,30.91 20.45,18.3 54.12,41.66 76.29,51.54 57.71,25.78 135.95,27.14 199.94,18.55 13.22,-11.68 37.87,-9.52 45.35,-30.92 -4.46,-3.09 -5.76,-9.26 -10.31,-12.37 10.49,-2.14 27.22,3.36 26.8,18.55 10.65,-4.03 15.37,-18.03 20.62,-14.42 4.29,-18.2 20.43,-33.93 28.85,-41.23 -1.37,-1.72 1.98,-14.34 10.31,-12.37 -5.5,-6.53 3.87,-12.8 6.17,-12.37 -3.85,-8.07 7.82,-18.2 12.38,-24.73 -12.1,40.1 -44.49,71.37 -59.78,98.94 13.05,-3.69 21.39,-23.69 39.16,-14.42 -20.61,16.14 -42.5,19.41 -57.71,32.97 -9.19,18.3 -34.79,31.19 -41.23,45.35 54.72,-27.74 80.48,-48.09 119.56,-92.75 -7.98,3 -12.1,9.87 -18.55,14.43 1.21,-7.39 -12.28,-0.09 -10.31,-8.25 5.84,3.95 16.33,-1.12 12.37,-6.18 9.01,3.77 6.61,-3.01 14.42,-8.25 2.23,-1.46 11.68,-1.89 14.44,-4.12 3.08,-2.59 3.44,-9.11 6.19,-12.37 14.59,-17.44 39.25,-23.97 49.46,-47.41 3.87,-1.98 6.87,6.18 8.25,0 -5.41,-8.51 13.15,-27.84 20.61,-37.1 -0.6,4.71 5.93,2.32 6.19,6.18 -7.73,1.89 -10.31,16.58 -8.24,18.55 -7.14,4.12 0.16,-0.95 -4.13,-2.05 -10.48,8.5 -6.11,20 -18.55,24.73 0.77,-0.44 5.06,1.11 4.12,2.06 -13.75,13.31 -29.19,25.07 -43.3,39.16 -18.45,18.47 -34,39.77 -53.59,57.72 -9.86,9.1 -22.16,14.85 -32.98,22.67 -8.84,6.46 -13.23,15.73 -20.6,20.62 -13.15,8.77 -29.38,10.56 -41.24,20.61 -3.85,0.43 -4.55,-2.32 -8.25,-2.06 -8.67,5.5 -20.68,17.18 -30.91,14.43 -4.3,10.91 -21.98,25.42 -30.92,18.56 13.05,-3.53 22.5,-10.49 28.85,-20.63 -14.42,3.35 -39.5,6.7 -49.46,6.19 -65.03,12.97 -147.48,-42.6 -197.89,-80.39 -21.21,-15.89 -42.52,-39.17 -57.71,-53.6 -7.4,-6.95 -9.63,-11.41 -12.3,-14.26 0,0.86 -2.82,3.01 -4.2,1.9 -7.56,-6.02 -12.45,-20.71 -20.61,-32.98 -19.33,-29.12 -47.93,-64.94 -55.66,-98.96 -1.72,-7.72 1.37,-14.34 0,-20.61 -0.09,-0.43 -4.13,2.07 -4.13,2.07 -4.55,-10.91 -5.75,-38.99 -6.17,-55.66 -1.39,-59.52 15.8,-109.84 28.85,-162.85 12.2,-16.65 22.76,-34.95 28.86,-57.71 81.86,-115.53 175.81,-236.28 379.28,-212.33 6.8,2.24 7.22,3.96 14.44,6.19 7.73,2.32 15.89,0.26 22.67,2.07 25.51,6.88 48.53,19.15 72.15,37.11 10.39,7.8 28.26,10.55 30.92,24.72 0.43,-1.63 1.72,-2.4 4.12,-2.06 74.3,95.95 214.46,143.87 218.51,296.84 -1.56,3.27 -6.54,3.09 -6.2,8.24" /><g
         transform="scale(10)"
         id="g86"><text
           id="text90"
           style="font-variant:normal;font-weight:normal;font-size:12px;font-family:Papyrus;-inkscape-font-specification:Papyrus;writing-mode:lr-tb;fill:#000000;fill-opacity:1;fill-rule:nonzero;stroke:none"
           transform="matrix(1,0,0,-1,287.645,142.232)"><tspan
             id="tspan88"
             y="0"
             x="0 6.7317662 9.2397661 14.112 18.455999 25.164 31.596001 34.236 36.959999 43.294598 49.666595 56.038597">Virtual Peer</tspan></text>
</g><path
         id="path92"
         style="fill:#000000;fill-opacity:1;fill-rule:nonzero;stroke:none"
         d="m 2009.67,1045.13 c -31.44,-0.25 -89.06,5.84 -119.57,20.61 -5.15,2.5 -14.41,8.78 -20.61,6.19 -2.49,2.75 -0.76,3.27 0,6.18 -40.8,15.2 -72.22,44.84 -103.06,76.27 -19.75,12.8 -38.05,44.24 -59.78,61.84 0.7,4.82 -0.34,7.9 -2.06,10.32 -8.16,4.8 -12.71,18.54 -16.49,28.85 -1.12,4.65 -3.18,-2.5 -6.18,2.06 -2.67,24.65 -16.84,28.6 -30.92,63.91 10.39,0.07 9,-29.47 24.72,-30.93 7.56,-18.55 17.18,-35.04 30.93,-47.41 -4.89,9.96 -10.73,30.14 -24.73,37.1 0.77,3.27 3.61,-1.8 4.12,2.08 -32.99,40.86 -62.01,123.41 -49.48,216.42 -8.24,-11.24 -2.66,-76.51 -6.18,-70.08 -5.85,12.37 -0.34,31.52 -2.06,45.35 -5.33,43.12 20.44,113.37 41.22,142.23 26.97,46.72 65.11,81.26 107.2,123.68 -25.43,-68.71 -105.05,-112.08 -125.74,-185.51 -9.88,-10.66 -20.36,-40.55 -14.44,-53.59 15.98,69.3 50.93,113.02 88.65,152.53 -36.68,-77.39 -59.88,-193.34 -47.42,-292.71 8.59,-68.11 40.28,-116.04 72.15,-164.91 -16.75,16.59 -27.49,31.27 -39.18,49.47 -7.81,-11.68 10.15,-19.32 16.5,-26.79 13.66,-15.99 26.11,-37.63 41.22,-49.48 3.71,1.55 0.35,3.78 0,6.18 -5.41,4.9 9.73,-4.03 2.07,-8.24 21.04,-17.52 27.57,-35.55 49.47,-45.35 33.85,-40.02 97.66,-67.68 158.73,-70.08 81.58,-3.27 163.35,37.7 222.62,74.2 -40.11,-48.09 -128.4,-75.41 -191.7,-80.39 m 51.52,729.71 c -10.47,-3.52 -31.94,10.66 -45.34,4.13 -2.74,-0.09 -1.89,4.21 -0.34,4.21 -13.83,6.27 -53.77,4.21 -75.93,1.97 -64.41,-6.35 -129.34,-42.6 -166.97,-74.2 46.04,82.79 192.48,127.11 288.58,63.89 m 39.18,-14.43 c -1.12,-4.29 -3.18,-4.37 -6.19,-2.06 -31.95,40.89 -84.69,60.98 -160.78,57.72 79.01,18.47 135.36,-11.16 166.97,-55.66 m -160.79,22.68 c 11.09,-0.77 10.23,-0.6 20.62,-2.05 -2.15,-2.66 -21.64,-5.33 -20.62,2.05 m 474.1,-366.92 c 0.19,3.28 5.25,1.64 4.13,6.19 -9.62,7.38 -7.63,25.93 -12.37,45.35 -10.73,1.02 3.96,-11.85 -2.06,-12.37 -6.43,6.36 -3.26,16.4 -4.12,22.68 -4.55,-5.07 -13.92,13.39 -12.37,14.43 4.73,0.59 2.32,-5.93 6.19,-6.19 -0.18,5.24 -1.12,9.79 -4.13,12.36 -1.37,-6.17 -4.38,1.99 -8.24,0 3.7,7.4 -8.75,13.92 -10.32,22.68 4.83,-1.38 5.51,-6.87 10.32,-8.25 -3.61,7.49 -13.92,29.2 -16.49,18.56 -0.09,10.57 -13.92,31.52 -22.67,32.98 5.23,-3.78 9.87,-7.98 10.31,-16.49 -0.44,2.74 -10.39,9.45 -6.19,4.12 24.72,-44.58 80.82,-106.33 65.96,-183.45 -0.94,-4.82 -4.99,-14 -8.25,-14.44 2.67,-3.78 -2.32,-12.71 -2.06,-16.49 -0.42,1.63 -0.09,4.04 -2.06,4.12 -3.69,-12.71 -12.29,-23.7 -8.24,-32.98 -3.87,-0.43 -4.55,2.32 -8.24,2.06 -4.82,-16.66 -25.27,-27.99 -24.75,-43.29 -17.17,-0.86 -31.09,-33.32 -45.35,-37.1 12.03,16.83 18.98,38.73 26.79,59.78 -3.26,2.06 -8.24,1.98 -4.12,6.18 3.28,-0.16 1.64,-5.23 6.2,-4.12 -3.01,11.42 11.59,17.26 2.06,22.67 14.34,23.04 19.5,81.17 14.42,111.32 -1.2,7.04 -11.15,20.27 -2.06,12.38 -5.75,15.7 -3.35,28.24 -12.36,30.91 11.85,15.54 -14.7,38.73 -14.44,49.47 4.72,0.6 2.33,-5.93 6.18,-6.19 0.69,10.31 -12.01,7.22 -12.36,16.49 4.21,-0.59 4.03,-5.58 8.24,-6.18 -6.86,20.52 -18.2,34.79 -26.79,57.72 -2.84,0.09 -4.56,-0.95 -6.19,-2.06 3,4.89 4.39,3.86 2.06,10.3 -5.15,-0.34 -8.49,1.04 -10.3,4.13 2.39,0.34 5.83,-0.34 6.18,2.06 -11.76,2.23 -3.35,8.67 -12.37,8.24 27.58,-61.14 70.19,-129.6 65.97,-218.5 0.86,-3.26 6.52,-1.71 4.12,-8.23 -2.05,-0.27 -4.12,8.93 -6.18,2.05 6.86,-18.37 -9.89,-45.1 -6.18,-59.78 -20.02,-36.84 -38.4,-112.77 -88.65,-138.12 34.02,59.62 48.78,159.76 24.74,222.63 4.9,-40.19 18.05,-86.92 0,-121.6 2.4,-0.36 5.84,0.34 6.18,-2.08 -9.7,-16.83 -14.08,-53.76 -22.67,-70.08 -2.75,0 -1.89,3.61 -4.12,4.12 0,-4.89 0.77,-18.12 -4.13,-10.3 -1.2,-13.48 -3.44,-7.65 -2.06,-16.5 -8.33,3.53 -11.17,-16.23 -16.48,-22.66 -9.97,-11.95 -30.67,-20.36 -47.41,-30.93 -24.57,-15.46 -50.08,-32.98 -76.27,-43.29 -68.12,-26.71 -147.65,-35.12 -197.89,-14.43 1.45,-2.83 -12.2,10.56 -16.5,2.06 0,2.07 1.72,2.5 2.06,4.12 -94.31,52.06 -206.47,165.77 -216.43,303.02 -2.76,38.31 0.25,79.63 4.12,107.2 1.88,13.57 1.88,27.56 4.12,39.16 0.09,0.43 4.12,-2.07 4.12,-2.07 9.96,31.35 17.69,70.09 30.93,101.01 2.65,6.19 10.82,11.34 6.18,20.62 7.29,-5.67 14.76,12.45 10.31,18.55 2.91,-0.77 3.51,-2.5 6.17,0 2.5,10.73 12.02,23.19 20.61,30.91 20.45,18.3 54.12,41.66 76.29,51.54 57.71,25.78 135.95,27.14 199.94,18.55 13.22,-11.68 37.87,-9.52 45.35,-30.92 -4.46,-3.09 -5.76,-9.26 -10.31,-12.37 10.49,-2.14 27.22,3.36 26.8,18.55 10.65,-4.03 15.37,-18.03 20.62,-14.42 4.29,-18.2 20.43,-33.93 28.85,-41.23 -1.37,-1.72 1.98,-14.34 10.31,-12.37 -5.5,-6.53 3.87,-12.8 6.17,-12.37 -3.85,-8.07 7.82,-18.2 12.38,-24.73 -12.1,40.1 -44.49,71.37 -59.78,98.94 13.05,-3.69 21.39,-23.69 39.16,-14.42 -20.61,16.14 -42.5,19.41 -57.71,32.97 -9.19,18.3 -34.79,31.19 -41.23,45.35 54.72,-27.74 80.48,-48.09 119.56,-92.75 -7.98,3 -12.1,9.87 -18.55,14.43 1.21,-7.39 -12.28,-0.09 -10.31,-8.25 5.84,3.95 16.33,-1.12 12.37,-6.18 9.01,3.77 6.61,-3.01 14.42,-8.25 2.23,-1.46 11.68,-1.89 14.44,-4.12 3.08,-2.59 3.44,-9.11 6.19,-12.37 14.59,-17.44 39.25,-23.97 49.46,-47.41 3.87,-1.98 6.87,6.18 8.25,0 -5.41,-8.51 13.15,-27.84 20.61,-37.1 -0.6,4.71 5.93,2.32 6.19,6.18 -7.73,1.89 -10.31,16.58 -8.24,18.55 -7.14,4.12 0.16,-0.95 -4.13,-2.05 -10.48,8.5 -6.11,20 -18.55,24.73 0.77,-0.44 5.06,1.11 4.12,2.06 -13.75,13.31 -29.19,25.07 -43.3,39.16 -18.45,18.47 -34,39.77 -53.59,57.72 -9.86,9.1 -22.16,14.85 -32.98,22.67 -8.84,6.46 -13.23,15.73 -20.6,20.62 -13.15,8.77 -29.38,10.56 -41.24,20.61 -3.85,0.43 -4.55,-2.32 -8.25,-2.06 -8.67,5.5 -20.68,17.18 -30.91,14.43 -4.3,10.91 -21.98,25.42 -30.92,18.56 13.05,-3.53 22.5,-10.49 28.85,-20.63 -14.42,3.35 -39.5,6.7 -49.46,6.19 -65.03,12.97 -147.48,-42.6 -197.89,-80.39 -21.21,-15.89 -42.52,-39.17 -57.71,-53.6 -7.4,-6.95 -9.63,-11.41 -12.3,-14.26 0,0.86 -2.82,3.01 -4.2,1.9 -7.56,-6.02 -12.45,-20.71 -20.61,-32.98 -19.33,-29.12 -47.93,-64.94 -55.66,-98.96 -1.72,-7.72 1.37,-14.34 0,-20.61 -0.09,-0.43 -4.13,2.07 -4.13,2.07 -4.55,-10.91 -5.75,-38.99 -6.17,-55.66 -1.39,-59.52 15.8,-109.84 28.85,-162.85 12.2,-16.65 22.76,-34.95 28.86,-57.71 81.86,-115.53 175.81,-236.28 379.28,-212.33 6.8,2.24 7.22,3.96 14.44,6.19 7.73,2.32 15.89,0.26 22.67,2.07 25.51,6.88 48.53,19.15 72.15,37.11 10.39,7.8 28.26,10.55 30.92,24.72 0.43,-1.63 1.72,-2.4 4.12,-2.06 74.3,95.95 214.46,143.87 218.51,296.84 -1.56,3.27 -6.54,3.09 -6.2,8.24" /><g
         transform="scale(10)"
         id="g94"><text
           id="text98"
           style="font-variant:normal;font-weight:normal;font-size:12px;font-family:Papyrus;-inkscape-font-specification:Papyrus;writing-mode:lr-tb;fill:#000000;fill-opacity:1;fill-rule:nonzero;stroke:none"
           transform="matrix(1,0,0,-1,171.657,142.232)"><tspan
             id="tspan96"
             y="0"
             x="0 6.7317662 9.2397661 14.112 18.455999 25.164 31.596001 34.236 36.959999 43.294598 49.666595 56.038597">Virtual Peer</tspan></text>
</g><path
         id="path100"
         style="fill:#000000;fill-opacity:1;fill-rule:nonzero;stroke:none"
         d="m 4329.43,1045.13 c -31.44,-0.25 -89.06,5.84 -119.57,20.61 -5.15,2.5 -14.41,8.78 -20.61,6.19 -2.49,2.75 -0.76,3.27 0,6.18 -40.8,15.2 -72.22,44.84 -103.06,76.27 -19.75,12.8 -38.05,44.24 -59.78,61.84 0.7,4.82 -0.34,7.9 -2.06,10.32 -8.16,4.8 -12.71,18.54 -16.49,28.85 -1.12,4.65 -3.18,-2.5 -6.18,2.06 -2.67,24.65 -16.84,28.6 -30.92,63.91 10.39,0.07 9,-29.47 24.72,-30.93 7.56,-18.55 17.18,-35.04 30.93,-47.41 -4.89,9.96 -10.73,30.14 -24.73,37.1 0.77,3.27 3.61,-1.8 4.12,2.08 -32.99,40.86 -62.01,123.41 -49.48,216.42 -8.24,-11.24 -2.66,-76.51 -6.18,-70.08 -5.85,12.37 -0.34,31.52 -2.06,45.35 -5.33,43.12 20.44,113.37 41.22,142.23 26.97,46.72 65.11,81.26 107.2,123.68 -25.43,-68.71 -105.05,-112.08 -125.74,-185.51 -9.88,-10.66 -20.36,-40.55 -14.44,-53.59 15.98,69.3 50.93,113.02 88.65,152.53 -36.68,-77.39 -59.88,-193.34 -47.42,-292.71 8.59,-68.11 40.28,-116.04 72.15,-164.91 -16.75,16.59 -27.49,31.27 -39.18,49.47 -7.81,-11.68 10.15,-19.32 16.5,-26.79 13.66,-15.99 26.11,-37.63 41.22,-49.48 3.71,1.55 0.35,3.78 0,6.18 -5.41,4.9 9.73,-4.03 2.07,-8.24 21.04,-17.52 27.57,-35.55 49.47,-45.35 33.85,-40.02 97.66,-67.68 158.73,-70.08 81.58,-3.27 163.35,37.7 222.62,74.2 -40.11,-48.09 -128.4,-75.41 -191.7,-80.39 m 51.52,729.71 c -10.47,-3.52 -31.94,10.66 -45.34,4.13 -2.74,-0.09 -1.89,4.21 -0.34,4.21 -13.83,6.27 -53.77,4.21 -75.93,1.97 -64.41,-6.35 -129.34,-42.6 -166.97,-74.2 46.04,82.79 192.48,127.11 288.58,63.89 m 39.18,-14.43 c -1.12,-4.29 -3.18,-4.37 -6.19,-2.06 -31.95,40.89 -84.69,60.98 -160.78,57.72 79.01,18.47 135.36,-11.16 166.97,-55.66 m -160.79,22.68 c 11.09,-0.77 10.23,-0.6 20.62,-2.05 -2.15,-2.66 -21.64,-5.33 -20.62,2.05 m 474.1,-366.92 c 0.19,3.28 5.25,1.64 4.13,6.19 -9.62,7.38 -7.63,25.93 -12.37,45.35 -10.73,1.02 3.96,-11.85 -2.06,-12.37 -6.43,6.36 -3.26,16.4 -4.12,22.68 -4.55,-5.07 -13.92,13.39 -12.37,14.43 4.73,0.59 2.32,-5.93 6.19,-6.19 -0.18,5.24 -1.12,9.79 -4.13,12.36 -1.37,-6.17 -4.38,1.99 -8.24,0 3.7,7.4 -8.75,13.92 -10.32,22.68 4.83,-1.38 5.51,-6.87 10.32,-8.25 -3.61,7.49 -13.92,29.2 -16.49,18.56 -0.09,10.57 -13.92,31.52 -22.67,32.98 5.23,-3.78 9.87,-7.98 10.31,-16.49 -0.44,2.74 -10.39,9.45 -6.19,4.12 24.72,-44.58 80.82,-106.33 65.96,-183.45 -0.94,-4.82 -4.99,-14 -8.25,-14.44 2.67,-3.78 -2.32,-12.71 -2.06,-16.49 -0.42,1.63 -0.09,4.04 -2.06,4.12 -3.69,-12.71 -12.29,-23.7 -8.24,-32.98 -3.87,-0.43 -4.55,2.32 -8.24,2.06 -4.82,-16.66 -25.27,-27.99 -24.75,-43.29 -17.17,-0.86 -31.09,-33.32 -45.35,-37.1 12.03,16.83 18.98,38.73 26.79,59.78 -3.27,2.06 -8.24,1.98 -4.12,6.18 3.28,-0.16 1.64,-5.23 6.2,-4.12 -3.01,11.42 11.59,17.26 2.06,22.67 14.34,23.04 19.5,81.17 14.42,111.32 -1.2,7.04 -11.15,20.27 -2.06,12.38 -5.75,15.7 -3.35,28.24 -12.36,30.91 11.85,15.54 -14.7,38.73 -14.44,49.47 4.72,0.6 2.33,-5.93 6.18,-6.19 0.69,10.31 -12.01,7.22 -12.36,16.49 4.21,-0.59 4.03,-5.58 8.24,-6.18 -6.87,20.52 -18.2,34.79 -26.79,57.72 -2.84,0.09 -4.56,-0.95 -6.19,-2.06 3,4.89 4.39,3.86 2.06,10.3 -5.15,-0.34 -8.49,1.04 -10.3,4.13 2.39,0.34 5.83,-0.34 6.18,2.06 -11.76,2.23 -3.35,8.67 -12.37,8.24 27.58,-61.14 70.19,-129.6 65.97,-218.5 0.86,-3.26 6.52,-1.71 4.12,-8.23 -2.05,-0.27 -4.12,8.93 -6.18,2.05 6.86,-18.37 -9.89,-45.1 -6.18,-59.78 -20.02,-36.84 -38.4,-112.77 -88.65,-138.12 34.02,59.62 48.78,159.76 24.74,222.63 4.9,-40.19 18.05,-86.92 0,-121.6 2.4,-0.36 5.84,0.34 6.18,-2.08 -9.7,-16.83 -14.08,-53.76 -22.67,-70.08 -2.75,0 -1.89,3.61 -4.12,4.12 0,-4.89 0.77,-18.12 -4.13,-10.3 -1.2,-13.48 -3.45,-7.65 -2.06,-16.5 -8.33,3.53 -11.17,-16.23 -16.48,-22.66 -9.97,-11.95 -30.67,-20.36 -47.41,-30.93 -24.57,-15.46 -50.08,-32.98 -76.27,-43.29 -68.12,-26.71 -147.65,-35.12 -197.89,-14.43 1.45,-2.83 -12.2,10.56 -16.5,2.06 0,2.07 1.72,2.5 2.06,4.12 -94.31,52.06 -206.47,165.77 -216.43,303.02 -2.76,38.31 0.25,79.63 4.12,107.2 1.88,13.57 1.88,27.56 4.12,39.16 0.09,0.43 4.12,-2.07 4.12,-2.07 9.96,31.35 17.69,70.09 30.93,101.01 2.65,6.19 10.82,11.34 6.18,20.62 7.29,-5.67 14.76,12.45 10.31,18.55 2.91,-0.77 3.51,-2.5 6.17,0 2.5,10.73 12.02,23.19 20.61,30.91 20.45,18.3 54.12,41.66 76.29,51.54 57.71,25.78 135.95,27.14 199.94,18.55 13.22,-11.68 37.87,-9.52 45.35,-30.92 -4.46,-3.09 -5.76,-9.26 -10.31,-12.37 10.49,-2.14 27.22,3.36 26.8,18.55 10.65,-4.03 15.37,-18.03 20.62,-14.42 4.29,-18.2 20.43,-33.93 28.85,-41.23 -1.37,-1.72 1.98,-14.34 10.31,-12.37 -5.5,-6.53 3.87,-12.8 6.17,-12.37 -3.85,-8.07 7.82,-18.2 12.38,-24.73 -12.1,40.1 -44.49,71.37 -59.78,98.94 13.05,-3.69 21.39,-23.69 39.16,-14.42 -20.61,16.14 -42.5,19.41 -57.71,32.97 -9.19,18.3 -34.79,31.19 -41.23,45.35 54.72,-27.74 80.48,-48.09 119.56,-92.75 -7.98,3 -12.1,9.87 -18.55,14.43 1.21,-7.39 -12.28,-0.09 -10.31,-8.25 5.84,3.95 16.33,-1.12 12.37,-6.18 9.01,3.77 6.61,-3.01 14.42,-8.25 2.23,-1.46 11.68,-1.89 14.44,-4.12 3.08,-2.59 3.44,-9.11 6.19,-12.37 14.59,-17.44 39.25,-23.97 49.46,-47.41 3.87,-1.98 6.87,6.18 8.25,0 -5.41,-8.51 13.15,-27.84 20.61,-37.1 -0.6,4.71 5.93,2.32 6.19,6.18 -7.73,1.89 -10.31,16.58 -8.24,18.55 -7.14,4.12 0.16,-0.95 -4.13,-2.05 -10.48,8.5 -6.11,20 -18.55,24.73 0.77,-0.44 5.06,1.11 4.12,2.06 -13.75,13.31 -29.19,25.07 -43.3,39.16 -18.45,18.47 -34,39.77 -53.59,57.72 -9.86,9.1 -22.16,14.85 -32.98,22.67 -8.84,6.46 -13.23,15.73 -20.6,20.62 -13.15,8.77 -29.38,10.56 -41.24,20.61 -3.85,0.43 -4.55,-2.32 -8.25,-2.06 -8.67,5.5 -20.68,17.18 -30.91,14.43 -4.3,10.91 -21.98,25.42 -30.92,18.56 13.05,-3.53 22.5,-10.49 28.85,-20.63 -14.42,3.35 -39.5,6.7 -49.46,6.19 -65.03,12.97 -147.48,-42.6 -197.89,-80.39 -21.21,-15.89 -42.52,-39.17 -57.71,-53.6 -7.4,-6.95 -9.63,-11.41 -12.3,-14.26 0,0.86 -2.82,3.01 -4.2,1.9 -7.56,-6.02 -12.45,-20.71 -20.61,-32.98 -19.33,-29.12 -47.93,-64.94 -55.66,-98.96 -1.72,-7.72 1.37,-14.34 0,-20.61 -0.09,-0.43 -4.13,2.07 -4.13,2.07 -4.55,-10.91 -5.75,-38.99 -6.17,-55.66 -1.39,-59.52 15.8,-109.84 28.85,-162.85 12.2,-16.65 22.76,-34.95 28.86,-57.71 81.86,-115.53 175.81,-236.28 379.28,-212.33 6.8,2.24 7.22,3.96 14.44,6.19 7.73,2.32 15.89,0.26 22.67,2.07 25.51,6.88 48.53,19.15 72.15,37.11 10.39,7.8 28.26,10.55 30.92,24.72 0.43,-1.63 1.72,-2.4 4.12,-2.06 74.3,95.95 214.46,143.87 218.51,296.84 -1.56,3.27 -6.54,3.09 -6.2,8.24" /><g
         transform="scale(10)"
         id="g102"><text
           id="text106"
           style="font-variant:normal;font-weight:normal;font-size:12px;font-family:Papyrus;-inkscape-font-specification:Papyrus;writing-mode:lr-tb;fill:#000000;fill-opacity:1;fill-rule:nonzero;stroke:none"
           transform="matrix(1,0,0,-1,403.633,142.232)"><tspan
             id="tspan104"
             y="0"
             x="0 6.7317662 9.2397661 14.112 18.455999 25.164 31.596001 34.236 36.959999 43.294598 49.666595 56.038597">Virtual Peer</tspan></text>
</g><path
         id="path108"
         style="fill:none;stroke:#000000;stroke-width:10;stroke-linecap:round;stroke-linejoin:round;stroke-miterlimit:10;stroke-dasharray:100, 30, 20, 30, 20, 30;stroke-dashoffset:0;stroke-opacity:1"
         d="M 1170,1670 2251.06,3196.39" /><path
         id="path110"
         style="fill:none;stroke:#000000;stroke-width:10;stroke-linecap:butt;stroke-linejoin:miter;stroke-miterlimit:10;stroke-dasharray:none;stroke-opacity:1"
         d="m 2297.29,3261.68 -46.23,-65.29 m -24.49,17.34 70.72,47.95 -21.75,-82.63" /><path
         id="path112"
         style="fill:none;stroke:#000000;stroke-width:10;stroke-linecap:round;stroke-linejoin:round;stroke-miterlimit:10;stroke-dasharray:100, 30, 20, 30, 20, 30;stroke-dashoffset:0;stroke-opacity:1"
         d="M 2340,1670 4065.96,3202.2" /><path
         id="path114"
         style="fill:none;stroke:#000000;stroke-width:10;stroke-linecap:butt;stroke-linejoin:miter;stroke-miterlimit:10;stroke-dasharray:none;stroke-opacity:1"
         d="m 4125.79,3255.31 -59.83,-53.11 m -19.91,22.44 79.74,30.67 -39.91,-75.54" /><path
         id="path116"
         style="fill:none;stroke:#000000;stroke-width:10;stroke-linecap:round;stroke-linejoin:round;stroke-miterlimit:10;stroke-dasharray:100, 30, 20, 30, 20, 30;stroke-dashoffset:0;stroke-opacity:1"
         d="M 3150,1934.65 1517.59,3228.51" /><path
         id="path118"
         style="fill:none;stroke:#000000;stroke-width:10;stroke-linecap:butt;stroke-linejoin:miter;stroke-miterlimit:10;stroke-dasharray:none;stroke-opacity:1"
         d="m 1454.89,3278.2 62.7,-49.69 m -18.64,-23.51 -44.06,73.2 81.33,-26.18" /><path
         id="path120"
         style="fill:none;stroke:#000000;stroke-width:10;stroke-linecap:round;stroke-linejoin:round;stroke-miterlimit:10;stroke-dasharray:100, 30, 20, 30, 20, 30;stroke-dashoffset:0;stroke-opacity:1"
         d="m 4500,1844.65 103.31,1337.04" /><path
         id="path122"
         style="fill:none;stroke:#000000;stroke-width:10;stroke-linecap:butt;stroke-linejoin:miter;stroke-miterlimit:10;stroke-dasharray:none;stroke-opacity:1"
         d="m 4609.47,3261.45 -6.16,-79.76 m -29.91,2.31 36.07,77.45 23.75,-82.07" /><path
         id="path124"
         style="fill:none;stroke:#000000;stroke-width:20;stroke-linecap:butt;stroke-linejoin:miter;stroke-miterlimit:10;stroke-dasharray:none;stroke-opacity:1"
         d="m 1160,440 c 4.91,61.336 19.14,133.785 1.27,197.586 -21.76,57.297 -89.34,41.84 -140.49,36.277 -88.514,-9.617 -184.034,-10.41 -273.022,-4.008 -52.723,3.79 -105.942,11.891 -158.531,3.219 -49.563,-8.179 -64.973,-38.121 -60.973,-82.308 2.742,-30.301 11.582,-59.621 13.184,-90.051 2.488,-47.379 5.476,-94.75 10.207,-142 2.953,-29.391 9.179,-58.559 8.921,-88.11 -0.23,-26.48 -1.429,-52.929 -0.191,-79.429 0.531,-11.031 -0.277,-34.883 11.152,-42.5 22.457,-14.981 56.629,-18.223 83.207,-21.563 70.672,-8.886 142.633,-2.648 213.633,-6.187 62.481,-3.102 125.039,-6.403 187.513,-2.192 26.26,1.758 52.28,5.629 77.44,12.711 7.77,2.16 19.09,5.129 25.5,10.129 7.25,5.68 4.34,37.02 4.7,45.653 3.46,83.449 -10.75,166.066 -3.52,252.773 z" /><g
         transform="scale(10)"
         id="g126"><text
           id="text130"
           style="font-variant:normal;font-weight:normal;font-size:12px;font-family:Papyrus;-inkscape-font-specification:Papyrus;writing-mode:lr-tb;fill:#000000;fill-opacity:1;fill-rule:nonzero;stroke:none"
           transform="matrix(1,0,0,-1,66.918,37.8371)"><tspan
             id="tspan128"
             y="0"
             x="0 4.632 11.004 18.372 21.011999 23.52 29.496">replica</tspan></text>
</g><path
         id="path132"
         style="fill:none;stroke:#000000;stroke-width:20;stroke-linecap:butt;stroke-linejoin:miter;stroke-miterlimit:10;stroke-dasharray:none;stroke-opacity:1"
         d="m 2340,440 c 7.25,61.336 21.48,133.785 3.61,197.586 -21.76,57.297 -89.34,41.84 -140.49,36.277 -88.51,-9.617 -184.03,-10.41 -273.02,-4.008 -52.72,3.79 -105.94,11.891 -158.53,3.219 -49.56,-8.179 -64.97,-38.121 -60.97,-82.308 2.74,-30.301 11.58,-59.621 13.18,-90.051 2.49,-47.379 5.48,-94.75 10.21,-142 2.95,-29.391 9.18,-58.559 8.92,-88.11 -0.23,-26.48 -1.43,-52.929 -0.19,-79.429 0.53,-11.031 -0.28,-34.883 11.16,-42.5 22.45,-14.981 56.62,-18.223 83.2,-21.563 70.67,-8.886 142.63,-2.648 213.63,-6.187 62.48,-3.102 125.04,-6.403 187.51,-2.192 26.26,1.758 52.28,5.629 77.45,12.711 7.76,2.16 19.08,5.129 25.49,10.129 7.26,5.68 4.34,37.02 4.7,45.653 3.47,83.449 -10.75,166.066 -5.86,252.773 z" /><g
         transform="scale(10)"
         id="g134"><text
           id="text138"
           style="font-variant:normal;font-weight:normal;font-size:12px;font-family:Papyrus;-inkscape-font-specification:Papyrus;writing-mode:lr-tb;fill:#000000;fill-opacity:1;fill-rule:nonzero;stroke:none"
           transform="matrix(1,0,0,-1,185.152,37.8371)"><tspan
             id="tspan136"
             y="0"
             x="0 4.632 11.004 18.372 21.011999 23.52 29.496">replica</tspan></text>
</g><path
         id="path140"
         style="fill:none;stroke:#000000;stroke-width:20;stroke-linecap:butt;stroke-linejoin:miter;stroke-miterlimit:10;stroke-dasharray:none;stroke-opacity:1"
         d="m 3520,440 c 9.6,61.336 23.83,133.785 5.96,197.586 -21.76,57.297 -89.34,41.84 -140.49,36.277 -88.51,-9.617 -184.03,-10.41 -273.02,-4.008 -52.72,3.79 -105.94,11.891 -158.53,3.219 -49.56,-8.179 -64.97,-38.121 -60.97,-82.308 2.74,-30.301 11.58,-59.621 13.18,-90.051 2.49,-47.379 5.48,-94.75 10.21,-142 2.95,-29.391 9.18,-58.559 8.92,-88.11 -0.23,-26.48 -1.43,-52.929 -0.19,-79.429 0.53,-11.031 -0.28,-34.883 11.15,-42.5 22.46,-14.981 56.63,-18.223 83.21,-21.563 70.67,-8.886 142.63,-2.648 213.63,-6.187 62.48,-3.102 125.04,-6.403 187.51,-2.192 26.26,1.758 52.28,5.629 77.45,12.711 7.76,2.16 19.08,5.129 25.49,10.129 7.26,5.68 4.34,37.02 4.7,45.653 3.47,83.449 -10.75,166.066 -8.21,252.773 z" /><g
         transform="scale(10)"
         id="g142"><text
           id="text146"
           style="font-variant:normal;font-weight:normal;font-size:12px;font-family:Papyrus;-inkscape-font-specification:Papyrus;writing-mode:lr-tb;fill:#000000;fill-opacity:1;fill-rule:nonzero;stroke:none"
           transform="matrix(1,0,0,-1,303.387,37.8371)"><tspan
             id="tspan144"
             y="0"
             x="0 4.632 11.004 18.372 21.011999 23.52 29.496">replica</tspan></text>
</g><path
         id="path148"
         style="fill:none;stroke:#000000;stroke-width:20;stroke-linecap:butt;stroke-linejoin:miter;stroke-miterlimit:10;stroke-dasharray:none;stroke-opacity:1"
         d="m 4680,440 c 7.25,61.336 21.48,133.785 3.61,197.586 -21.76,57.297 -89.34,41.84 -140.49,36.277 -88.51,-9.617 -184.03,-10.41 -273.02,-4.008 -52.72,3.79 -105.94,11.891 -158.53,3.219 -49.56,-8.179 -64.97,-38.121 -60.97,-82.308 2.74,-30.301 11.58,-59.621 13.19,-90.051 2.48,-47.379 5.47,-94.75 10.2,-142 2.95,-29.391 9.18,-58.559 8.92,-88.11 -0.23,-26.48 -1.43,-52.929 -0.19,-79.429 0.53,-11.031 -0.27,-34.883 11.15,-42.5 22.46,-14.981 56.63,-18.223 83.21,-21.563 70.67,-8.886 142.63,-2.648 213.63,-6.187 62.48,-3.102 125.04,-6.403 187.51,-2.192 26.26,1.758 52.28,5.629 77.45,12.711 7.76,2.16 19.08,5.129 25.49,10.129 7.26,5.68 4.34,37.02 4.7,45.653 3.47,83.449 -10.75,166.066 -5.86,252.773 z" /><g
         transform="scale(10)"
         id="g150"><text
           id="text154"
           style="font-variant:normal;font-weight:normal;font-size:12px;font-family:Papyrus;-inkscape-font-specification:Papyrus;writing-mode:lr-tb;fill:#000000;fill-opacity:1;fill-rule:nonzero;stroke:none"
           transform="matrix(1,0,0,-1,419.152,37.8371)"><tspan
             id="tspan152"
             y="0"
             x="0 4.632 11.004 18.372 21.011999 23.52 29.496">replica</tspan></text>
</g><path
         id="path156"
         style="fill:none;stroke:#000000;stroke-width:10;stroke-linecap:round;stroke-linejoin:round;stroke-miterlimit:10;stroke-dasharray:100, 30, 20, 30, 20, 30;stroke-dashoffset:0;stroke-opacity:1"
         d="m 847.805,1040 0.422,-265.215" /><path
         id="path158"
         style="fill:none;stroke:#000000;stroke-width:10;stroke-linecap:butt;stroke-linejoin:miter;stroke-miterlimit:10;stroke-dasharray:none;stroke-opacity:1"
         d="m 848.355,694.785 -0.128,80 m 30,0.047 -29.872,-80.047 -30.128,79.953" /><path
         id="path160"
         style="fill:none;stroke:#000000;stroke-width:10;stroke-linecap:round;stroke-linejoin:round;stroke-miterlimit:10;stroke-dasharray:100, 30, 20, 30, 20, 30;stroke-dashoffset:0;stroke-opacity:1"
         d="m 2024.12,1053.77 3,-278.965" /><path
         id="path162"
         style="fill:none;stroke:#000000;stroke-width:10;stroke-linecap:butt;stroke-linejoin:miter;stroke-miterlimit:10;stroke-dasharray:none;stroke-opacity:1"
         d="m 2027.98,694.812 -0.86,79.993 m 30,0.324 -29.14,-80.317 -30.86,79.672" /><path
         id="path164"
         style="fill:none;stroke:#000000;stroke-width:10;stroke-linecap:round;stroke-linejoin:round;stroke-miterlimit:10;stroke-dasharray:100, 30, 20, 30, 20, 30;stroke-dashoffset:0;stroke-opacity:1"
         d="m 3192.32,1055.08 9.05,-280.244" /><path
         id="path166"
         style="fill:none;stroke:#000000;stroke-width:10;stroke-linecap:butt;stroke-linejoin:miter;stroke-miterlimit:10;stroke-dasharray:none;stroke-opacity:1"
         d="m 3203.95,694.879 -2.58,79.957 m 29.98,0.969 -27.4,-80.926 -32.57,78.992" /><path
         id="path168"
         style="fill:none;stroke:#000000;stroke-width:10;stroke-linecap:round;stroke-linejoin:round;stroke-miterlimit:10;stroke-dasharray:100, 30, 20, 30, 20, 30;stroke-dashoffset:0;stroke-opacity:1"
         d="m 4351.38,1054.94 8.44,-280.104" /><path
         id="path170"
         style="fill:none;stroke:#000000;stroke-width:10;stroke-linecap:butt;stroke-linejoin:miter;stroke-miterlimit:10;stroke-dasharray:none;stroke-opacity:1"
         d="m 4362.23,694.871 -2.41,79.965 m 29.99,0.902 -27.58,-80.867 -32.39,79.059" /></g></g></svg>