<?xml version="1.0" encoding="UTF-8" standalone="no"?>
<svg
   xmlns:dc="http://purl.org/dc/elements/1.1/"
   xmlns:cc="http://creativecommons.org/ns#"
   xmlns:rdf="http://www.w3.org/1999/02/22-rdf-syntax-ns#"
   xmlns:svg="http://www.w3.org/2000/svg"
   xmlns="http://www.w3.org/2000/svg"
   viewBox="0 0 1092 732"
   height="732"
   width="1092"
   xml:space="preserve"
   id="svg2"
   version="1.1"><metadata
     id="metadata8"><rdf:RDF><cc:Work
         rdf:about=""><dc:format>image/svg+xml</dc:format><dc:type
           rdf:resource="http://purl.org/dc/dcmitype/StillImage" /></cc:Work></rdf:RDF></metadata><defs
     id="defs6" /><g
     transform="matrix(1.3333333,0,0,-1.3333333,0,732)"
     id="g10"><g
       transform="scale(0.1)"
       id="g12"><path
         id="path14"
         style="fill:#ffffff;fill-opacity:1;fill-rule:nonzero;stroke:none"
         d="m 954.539,5392.56 -3.148,-259.93 c -1.024,-27.13 15.32,-184.59 15.32,-184.59 l -39.191,-4.16 -222.649,-11.59 -144.613,6.64 -2,47.02 -9.36,172.11 0.973,226.58 26.109,2.04 139.52,-2.56 z" /><path
         id="path16"
         style="fill:#000000;fill-opacity:1;fill-rule:nonzero;stroke:none"
         d="m 944.73,5391.91 c -1.421,-150.43 -3.16,-296.68 12.321,-446.46 3.476,3.32 6.957,6.64 10.437,9.96 -99.961,-10.59 -205.621,-18.29 -302.808,-13.82 -31.27,1.43 -62.543,2.87 -93.813,4.3 -11.488,0.54 -1.129,1.36 -0.89,-4.28 -0.297,7.16 -0.61,14.32 -0.907,21.48 -0.382,8.8 -0.683,17.61 -1.16,26.41 -3.07,56.41 -6.133,112.82 -9.203,169.23 -3.078,56.52 0.481,114.16 0.731,170.77 0.062,14.18 0.121,28.37 0.179,42.55 0.082,19.29 -9.23,5.33 2.531,6.25 25.84,2 51.93,0.29 77.832,-0.18 104.708,-1.91 209.118,3.38 313.778,7.08 11.199,0.39 14.691,15.21 1.562,14.75 -73.781,-2.61 -147.562,-5.22 -221.34,-7.83 -61.113,-2.14 -122.339,4.65 -183.343,-0.09 -3.977,-0.32 -10.559,-3.12 -10.578,-8.03 -0.641,-149.34 4.039,-296.59 10.39,-445.71 0.16,-3.63 2.719,-6.47 6.539,-6.65 136.942,-6.28 272.309,-5.44 408.95,9.02 5.41,0.57 11.062,3.91 10.429,9.96 -15.347,148.45 -13.429,293.54 -12.019,442.61 0.101,10.47 -19.528,7.82 -19.618,-1.32 z" /><path
         id="path18"
         style="fill:#000000;fill-opacity:1;fill-rule:nonzero;stroke:none"
         d="m 754.891,5297.86 h 15.347 c -1.277,-20.16 -1.429,-41.2 -0.476,-63.12 0.968,-21.92 2.406,-44.24 4.328,-66.95 1.91,-22.73 3.988,-45.54 6.238,-68.41 2.231,-22.88 3.992,-45.52 5.274,-67.92 -0.954,-2.56 -2.082,-3.92 -3.364,-4.08 -1.277,-0.16 -3.039,-0.24 -5.269,-0.24 -6.078,-1.6 -9.77,-0.16 -11.039,4.32 0,19.2 -0.731,40.4 -2.16,63.6 -1.45,23.21 -3.051,45.92 -4.809,68.16 -1.762,22.24 -3.441,42.8 -5.039,61.68 -1.602,18.89 -2.723,33.6 -3.363,44.16 0,2.56 -0.161,5.68 -0.469,9.37 -0.328,3.68 -0.57,7.11 -0.731,10.32 -0.16,3.2 0.082,5.75 0.731,7.67 0.629,1.92 2.23,2.4 4.801,1.44 z" /><path
         id="path20"
         style="fill:#ffffff;fill-opacity:1;fill-rule:nonzero;stroke:none"
         d="m 1479.09,5392.56 -3.16,-259.93 c -1.01,-27.13 15.33,-184.59 15.33,-184.59 l -39.19,-4.16 -222.66,-11.59 -144.6,6.64 -2,47.02 -9.36,172.11 0.96,226.58 26.12,2.04 139.52,-2.56 z" /><path
         id="path22"
         style="fill:#000000;fill-opacity:1;fill-rule:nonzero;stroke:none"
         d="m 1469.28,5391.91 c -1.42,-150.43 -3.17,-296.68 12.32,-446.46 3.48,3.32 6.96,6.64 10.44,9.96 -99.96,-10.59 -205.62,-18.29 -302.81,-13.82 -31.27,1.43 -62.54,2.87 -93.81,4.3 -11.49,0.54 -1.13,1.36 -0.89,-4.28 -0.3,7.16 -0.61,14.32 -0.91,21.48 -0.38,8.8 -0.68,17.61 -1.16,26.41 -3.07,56.41 -6.13,112.82 -9.2,169.23 -3.08,56.52 0.48,114.16 0.72,170.77 0.07,14.18 0.12,28.36 0.18,42.55 0.09,19.29 -9.23,5.33 2.53,6.25 25.85,2 51.94,0.29 77.84,-0.18 104.71,-1.91 209.12,3.38 313.78,7.08 11.2,0.39 14.69,15.21 1.56,14.75 -73.78,-2.61 -147.56,-5.22 -221.34,-7.83 -61.11,-2.14 -122.35,4.65 -183.34,-0.09 -3.98,-0.32 -10.56,-3.12 -10.59,-8.03 -0.63,-149.34 4.05,-296.59 10.4,-445.71 0.16,-3.63 2.72,-6.47 6.54,-6.65 136.94,-6.28 272.31,-5.44 408.95,9.02 5.41,0.57 11.06,3.91 10.43,9.96 -15.35,148.45 -13.43,293.54 -12.02,442.61 0.1,10.47 -19.53,7.82 -19.62,-1.32 z" /><path
         id="path24"
         style="fill:#000000;fill-opacity:1;fill-rule:nonzero;stroke:none"
         d="m 1287.83,5303.38 c 4.16,-3.53 6.16,-10.4 6,-20.64 -0.16,-10.24 -1.61,-22.64 -4.32,-37.2 -2.72,-14.57 -6.32,-30.56 -10.8,-48 -4.48,-17.45 -9.12,-35.2 -13.92,-53.28 -4.8,-18.08 -9.36,-35.68 -13.68,-52.8 -4.32,-17.12 -7.61,-32.72 -9.84,-46.8 8.64,4.15 18.64,9.84 30,17.04 11.35,7.2 22.72,14.96 34.08,23.28 11.36,8.32 22.08,16.72 32.16,25.2 10.08,8.47 18.32,16.08 24.72,22.8 2.23,0 3.84,-0.72 4.8,-2.16 0.96,-1.44 1.6,-3.28 1.92,-5.52 0.32,-2.24 0.39,-4.64 0.24,-7.2 -0.17,-2.57 -0.24,-4.96 -0.24,-7.2 -21.12,-16.96 -42.8,-33.12 -65.04,-48.48 -22.24,-15.36 -45.36,-30.08 -69.36,-44.16 -3.53,-1.6 -6.16,-2.23 -7.92,-1.92 -1.76,0.32 -3.44,1.76 -5.04,4.32 1.92,15.04 4.87,31.68 8.88,49.92 4,18.24 8.4,36.72 13.2,55.44 4.8,18.72 9.52,37.03 14.16,54.96 4.64,17.92 8.48,34.15 11.52,48.72 3.04,14.56 4.8,26.72 5.28,36.48 0.49,9.76 -1.04,15.92 -4.56,18.48 -0.65,2.24 -4.24,1.12 -10.8,-3.36 -6.57,-4.48 -14,-10.97 -22.32,-19.44 -8.33,-8.48 -16.32,-18.08 -24,-28.8 -7.68,-10.72 -12.81,-21.36 -15.36,-31.92 -1.92,-0.65 -3.28,-0.96 -4.08,-0.96 -0.8,0 -1.6,0.07 -2.4,0.24 -0.8,0.16 -1.68,0.31 -2.64,0.48 -0.96,0.16 -2.4,0.24 -4.32,0.24 -1.92,5.76 0.16,13.44 6.24,23.04 6.07,9.6 13.6,19.52 22.56,29.76 8.95,10.24 18.07,19.76 27.36,28.56 9.28,8.8 16.32,15.44 21.12,19.92 4.15,2.56 8.24,4.48 12.24,5.76 3.99,1.27 8.71,-0.32 14.16,-4.8 z" /><path
         id="path26"
         style="fill:#ffffff;fill-opacity:1;fill-rule:nonzero;stroke:none"
         d="m 2034.54,5392.56 -3.15,-259.93 c -1.02,-27.15 15.32,-184.61 15.32,-184.61 l -39.19,-4.14 -222.65,-11.59 -144.61,6.64 -2,47 -9.36,172.14 0.97,226.57 26.11,2.04 139.52,-2.56 z" /><path
         id="path28"
         style="fill:#000000;fill-opacity:1;fill-rule:nonzero;stroke:none"
         d="m 2024.73,5391.91 c -1.42,-150.43 -3.16,-296.68 12.32,-446.46 3.48,3.32 6.96,6.64 10.44,9.96 -99.97,-10.57 -205.62,-18.29 -302.81,-13.84 -31.27,1.45 -62.54,2.88 -93.81,4.32 -11.49,0.52 -1.13,1.36 -0.89,-4.28 -0.3,7.16 -0.61,14.32 -0.91,21.48 -0.38,8.8 -0.68,17.61 -1.16,26.41 -3.07,56.41 -6.13,112.82 -9.2,169.23 -3.08,56.52 0.48,114.18 0.73,170.77 0.06,14.19 0.12,28.37 0.18,42.55 0.08,19.29 -9.23,5.33 2.53,6.25 25.84,2 51.93,0.3 77.83,-0.18 104.71,-1.91 209.12,3.38 313.78,7.08 11.2,0.39 14.69,15.21 1.56,14.75 -73.78,-2.61 -147.56,-5.22 -221.34,-7.83 -61.11,-2.14 -122.34,4.65 -183.34,-0.09 -3.98,-0.32 -10.56,-3.12 -10.58,-8.03 -0.64,-149.34 4.04,-296.59 10.39,-445.72 0.16,-3.62 2.72,-6.46 6.54,-6.64 136.95,-6.3 272.3,-5.43 408.95,9.02 5.41,0.57 11.06,3.89 10.43,9.96 -15.35,148.43 -13.43,293.54 -12.02,442.61 0.1,10.47 -19.53,7.82 -19.62,-1.32 z" /><path
         id="path30"
         style="fill:#000000;fill-opacity:1;fill-rule:nonzero;stroke:none"
         d="m 1855.07,5283.78 c 1.28,-5.12 1.52,-10.24 0.73,-15.36 -0.82,-5.12 -2.18,-10.01 -4.09,-14.64 -1.91,-4.64 -4.39,-9.12 -7.43,-13.45 -3.05,-4.31 -6.16,-8.24 -9.37,-11.76 -7.68,-8.63 -16.64,-16.64 -26.87,-23.99 9.6,4.48 19.51,7.2 29.75,8.16 10.25,0.95 20,0.24 29.28,-2.16 9.29,-2.4 17.84,-6.32 25.69,-11.76 7.84,-5.44 13.99,-12.48 18.47,-21.12 6.41,-12.48 8.81,-26.4 7.21,-41.76 -1.6,-15.36 -6.64,-30.32 -15.12,-44.88 -8.48,-14.57 -20.16,-27.77 -35.04,-39.59 -14.89,-11.86 -32.24,-20.34 -52.08,-25.45 -6.74,-1.92 -13.52,-3.36 -20.4,-4.32 -6.89,-0.96 -12.96,-1.68 -18.25,-2.17 -5.27,-0.47 -9.59,-0.71 -12.95,-0.71 -3.37,0 -5.05,0.32 -5.05,0.97 l 6.25,10.07 c 22.08,1.6 41.43,6.16 58.08,13.68 16.63,7.52 30.56,16.64 41.76,27.36 11.2,10.72 19.52,22.24 24.96,34.56 5.44,12.31 8,24.24 7.68,35.76 -0.32,11.52 -3.6,21.92 -9.84,31.2 -6.24,9.28 -15.6,16 -28.08,20.16 -9.29,3.19 -18.48,4.32 -27.6,3.36 -9.14,-0.96 -17.76,-2.97 -25.92,-6 -8.16,-3.04 -15.61,-6.48 -22.32,-10.32 -6.73,-3.84 -12.16,-7.04 -16.32,-9.6 -1.92,-0.64 -3.13,0.63 -3.6,3.84 -0.48,3.19 -0.09,6.55 1.2,10.09 10.56,6.71 20.64,14.22 30.24,22.55 9.6,8.32 17.76,16.64 24.48,24.97 6.71,8.31 11.76,16.38 15.12,24.23 3.36,7.84 4.07,14.48 2.15,19.92 -1.91,5.44 -5.36,9.43 -10.31,12 -4.97,2.56 -11.04,2.95 -18.25,1.2 -7.19,-1.76 -15.11,-6.08 -23.75,-12.96 -8.64,-6.88 -17.44,-16.88 -26.41,-30 l -3.84,1.92 c -2.23,1.27 -3.2,2.24 -2.87,2.88 8.64,15.36 18.48,27.51 29.52,36.48 11.03,8.95 21.6,14.72 31.67,17.28 10.07,2.56 18.97,2.07 26.65,-1.44 7.68,-3.53 12.62,-9.92 14.87,-19.2 z" /><path
         id="path32"
         style="fill:#ffffff;fill-opacity:1;fill-rule:nonzero;stroke:none"
         d="m 2574.55,5392.56 -3.16,-259.93 c -1.01,-27.15 15.33,-184.61 15.33,-184.61 l -39.19,-4.14 -222.66,-11.59 -144.6,6.64 -2,47 -9.36,172.14 0.96,226.57 26.12,2.04 139.52,-2.56 z" /><path
         id="path34"
         style="fill:#000000;fill-opacity:1;fill-rule:nonzero;stroke:none"
         d="m 2564.74,5391.91 c -1.42,-150.43 -3.17,-296.68 12.32,-446.46 3.48,3.32 6.96,6.64 10.44,9.96 -99.97,-10.57 -205.62,-18.29 -302.81,-13.84 l -93.81,4.32 c -11.49,0.52 -1.13,1.36 -0.89,-4.28 -0.3,7.16 -0.61,14.32 -0.91,21.48 -0.38,8.8 -0.68,17.61 -1.16,26.41 -3.07,56.41 -6.13,112.82 -9.2,169.23 -3.08,56.52 0.48,114.16 0.72,170.77 0.07,14.19 0.12,28.37 0.18,42.55 0.09,19.29 -9.23,5.33 2.53,6.25 25.85,2 51.94,0.29 77.84,-0.18 104.71,-1.91 209.12,3.38 313.78,7.08 11.2,0.39 14.69,15.21 1.56,14.75 -73.78,-2.61 -147.56,-5.22 -221.34,-7.83 -61.11,-2.14 -122.35,4.65 -183.34,-0.09 -3.98,-0.32 -10.56,-3.12 -10.59,-8.03 -0.63,-149.34 4.05,-296.59 10.4,-445.73 0.16,-3.61 2.72,-6.45 6.54,-6.63 136.95,-6.3 272.3,-5.43 408.95,9.02 5.41,0.57 11.06,3.89 10.43,9.96 -15.35,148.43 -13.43,293.54 -12.02,442.61 0.1,10.47 -19.53,7.82 -19.62,-1.32 z" /><path
         id="path36"
         style="fill:#000000;fill-opacity:1;fill-rule:nonzero;stroke:none"
         d="m 2401.55,5301.48 c 0.32,-3.53 0.32,-9.05 0,-16.56 -0.32,-7.52 -0.71,-16.64 -1.19,-27.36 -0.48,-10.73 -1.12,-22.64 -1.92,-35.76 -0.8,-13.12 -1.36,-26.88 -1.67,-41.29 6.39,0.97 11.67,2.01 15.83,3.13 4.16,1.11 7.68,1.2 10.56,0.23 2.55,-1.27 4.55,-3.43 6,-6.47 1.44,-3.04 1.2,-5.84 -0.72,-8.4 -6.71,-0.65 -12.89,-2 -18.48,-4.08 -5.6,-2.08 -10.64,-3.92 -15.12,-5.52 -0.64,-11.52 -1.04,-25.44 -1.2,-41.76 -0.18,-16.33 -0.32,-32.25 -0.48,-47.76 -0.16,-15.52 -0.56,-29.37 -1.2,-41.52 -0.64,-12.16 -1.76,-20.16 -3.36,-24 -0.64,-0.65 -1.92,-1.03 -3.84,-1.2 -1.92,-0.16 -4,-0.16 -6.24,0 -2.24,0.17 -4.16,0.39 -5.76,0.71 -1.6,0.33 -2.4,0.81 -2.4,1.45 0.97,4.49 2,11.83 3.12,22.07 1.12,10.25 2.16,22.23 3.12,36.01 0.97,13.75 1.76,28.71 2.4,44.88 0.64,16.16 0.96,32.23 0.96,48.24 -4.48,-0.97 -10.8,-2.73 -18.96,-5.28 -8.16,-2.56 -16.56,-5.04 -25.2,-7.45 -8.63,-2.4 -16.88,-4.55 -24.73,-6.47 -7.84,-1.93 -13.68,-2.57 -17.52,-1.93 1.93,8.32 4.33,16.8 7.21,25.46 2.88,8.63 5.84,17.27 8.88,25.91 3.04,8.64 5.91,17.35 8.64,26.16 2.7,8.79 4.88,17.83 6.48,27.12 0.95,2.88 2.88,5.1 5.76,6.72 2.89,1.59 7.51,1.59 13.92,0 0.31,-2.24 -0.96,-7.6 -3.84,-16.08 -2.89,-8.49 -6.16,-17.69 -9.84,-27.61 -3.68,-9.92 -7.37,-19.51 -11.05,-28.79 -3.67,-9.28 -6.16,-15.84 -7.43,-19.68 12.16,2.55 23.84,5.52 35.04,8.88 11.2,3.36 22.23,7.11 33.12,11.28 0.95,14.72 1.92,29.19 2.88,43.44 0.96,14.23 1.76,27.04 2.39,38.4 0.64,11.35 1.05,20.8 1.21,28.32 0.16,7.51 -0.24,11.92 -1.21,13.2 0,0.64 0.41,1.5 1.21,2.64 0.79,1.12 1.84,1.99 3.13,2.64 1.27,0.64 2.87,0.88 4.79,0.72 1.93,-0.16 4.16,-1.04 6.71,-2.64 z" /><path
         id="path38"
         style="fill:#ffffff;fill-opacity:1;fill-rule:nonzero;stroke:none"
         d="m 3114.54,5392.57 -3.15,-259.93 c -1.02,-27.16 15.32,-184.62 15.32,-184.62 l -39.19,-4.13 -222.65,-11.6 -144.61,6.64 -2,47 -9.36,172.14 0.97,226.57 26.11,2.04 139.52,-2.56 z" /><path
         id="path40"
         style="fill:#000000;fill-opacity:1;fill-rule:nonzero;stroke:none"
         d="m 3104.73,5391.92 c -1.42,-150.46 -3.17,-296.69 12.32,-446.47 3.48,3.32 6.96,6.64 10.44,9.96 -99.97,-10.56 -205.62,-18.29 -302.81,-13.83 -31.27,1.43 -62.54,2.87 -93.81,4.3 -11.49,0.53 -1.13,1.35 -0.89,-4.27 -0.3,7.16 -0.61,14.31 -0.91,21.48 -0.38,8.8 -0.68,17.61 -1.16,26.41 -3.07,56.39 -6.13,112.8 -9.2,169.23 -3.08,56.52 0.48,114.16 0.73,170.77 0.06,14.19 0.12,28.37 0.18,42.55 0.08,19.27 -9.23,5.33 2.53,6.25 25.84,2 51.93,0.3 77.83,-0.18 104.71,-1.91 209.12,3.39 313.78,7.08 11.2,0.39 14.69,15.22 1.56,14.75 -73.78,-2.6 -147.56,-5.22 -221.34,-7.83 -61.11,-2.14 -122.34,4.65 -183.34,-0.09 -3.98,-0.32 -10.56,-3.11 -10.58,-8.03 -0.64,-149.36 4.04,-296.59 10.39,-445.72 0.16,-3.62 2.72,-6.47 6.54,-6.64 136.95,-6.29 272.3,-5.43 408.95,9.02 5.41,0.57 11.06,3.89 10.43,9.96 -15.35,148.43 -13.43,293.55 -12.02,442.61 0.1,10.47 -19.53,7.82 -19.62,-1.31 z" /><path
         id="path42"
         style="fill:#000000;fill-opacity:1;fill-rule:nonzero;stroke:none"
         d="m 2963.56,5308.04 c 0.96,-0.97 1.99,-2.33 3.12,-4.09 1.12,-1.77 1.92,-3.61 2.4,-5.52 0.48,-1.91 0.72,-3.59 0.72,-5.04 0,-1.44 -0.64,-2.32 -1.92,-2.64 -8.97,0.32 -17.85,-0.23 -26.64,-1.68 -8.8,-1.43 -17.6,-3.28 -26.4,-5.52 -8.81,-2.25 -17.61,-4.55 -26.41,-6.96 -8.8,-2.39 -17.67,-4.41 -26.63,-6 -1.92,-3.52 -3.37,-8.48 -4.32,-14.87 -0.96,-6.4 -1.44,-12.81 -1.44,-19.2 0,-6.41 0.39,-12.09 1.2,-17.04 0.79,-4.98 1.68,-7.91 2.64,-8.89 9.6,-1.61 19.28,-3.68 29.04,-6.23 9.76,-2.57 19.2,-5.7 28.32,-9.36 9.11,-3.7 17.59,-7.69 25.44,-12 7.83,-4.34 14.64,-9.05 20.4,-14.16 10.87,-9.61 17.91,-19.68 21.11,-30.25 3.2,-10.55 3.92,-20.64 2.16,-30.23 -1.75,-9.61 -5.36,-18.41 -10.79,-26.41 -5.45,-8 -11.21,-14.4 -17.28,-19.2 -7.68,-5.75 -16.8,-10.48 -27.37,-14.16 -10.55,-3.68 -21.68,-5.84 -33.36,-6.48 -11.68,-0.65 -23.51,0.32 -35.51,2.89 -12.01,2.55 -23.28,7.02 -33.84,13.43 -0.96,0.96 -0.72,2.07 0.72,3.37 1.44,1.27 3.27,2.4 5.52,3.36 l 8.64,3.84 c 10.56,-5.45 22.24,-8.96 35.04,-10.57 12.79,-1.59 25.2,-1.04 37.2,1.68 12,2.71 22.63,7.6 31.92,14.64 9.28,7.04 15.52,16.48 18.72,28.32 2.87,10.88 2.8,20.56 -0.24,29.04 -3.05,8.48 -8.09,16 -15.12,22.57 -7.04,6.55 -15.29,12.16 -24.73,16.79 -9.44,4.64 -18.87,8.73 -28.32,12.24 -9.44,3.52 -18.32,6.49 -26.64,8.88 -8.32,2.41 -14.87,4.57 -19.67,6.48 -7.37,2.88 -10.73,9.68 -10.08,20.41 0.63,10.72 1.6,24.88 2.88,42.47 -1.93,0.96 -3.45,1.52 -4.56,1.68 -1.13,0.16 -2,0.32 -2.64,0.48 -0.64,0.16 -1.13,0.48 -1.44,0.96 -0.33,0.48 -0.8,1.68 -1.44,3.59 -0.97,5.13 -0.89,9.05 0.23,11.77 1.13,2.71 2.33,4.23 3.61,4.57 10.88,1.59 21.19,3.75 30.96,6.47 9.75,2.71 19.59,5.37 29.52,7.92 9.91,2.56 20.15,4.72 30.72,6.49 10.56,1.75 22.08,2.46 34.56,2.16 z" /><path
         id="path44"
         style="fill:#ffffff;fill-opacity:1;fill-rule:nonzero;stroke:none"
         d="m 3654.55,5392.57 -3.16,-259.94 c -1.01,-27.15 15.33,-184.61 15.33,-184.61 l -39.19,-4.13 -222.66,-11.6 -144.6,6.64 -2,47 -9.36,172.14 0.96,226.57 26.12,2.04 139.52,-2.56 z" /><path
         id="path46"
         style="fill:#000000;fill-opacity:1;fill-rule:nonzero;stroke:none"
         d="m 3644.74,5391.92 c -1.42,-150.46 -3.17,-296.69 12.32,-446.47 3.48,3.32 6.96,6.64 10.44,9.96 -99.97,-10.56 -205.62,-18.29 -302.81,-13.83 l -93.81,4.3 c -11.49,0.53 -1.13,1.35 -0.89,-4.27 -0.3,7.16 -0.61,14.31 -0.91,21.48 -0.38,8.8 -0.68,17.61 -1.16,26.41 -3.07,56.39 -6.13,112.8 -9.2,169.23 -3.08,56.52 0.48,114.16 0.72,170.77 0.07,14.19 0.12,28.37 0.18,42.55 0.09,19.27 -9.23,5.33 2.53,6.25 25.85,2 51.94,0.3 77.84,-0.18 104.71,-1.91 209.12,3.39 313.78,7.08 11.2,0.39 14.69,15.22 1.56,14.75 -73.78,-2.6 -147.56,-5.22 -221.34,-7.83 -61.11,-2.14 -122.35,4.65 -183.34,-0.09 -3.98,-0.32 -10.56,-3.11 -10.59,-8.03 -0.63,-149.36 4.05,-296.59 10.4,-445.72 0.16,-3.62 2.72,-6.47 6.54,-6.64 136.95,-6.29 272.3,-5.43 408.95,9.02 5.41,0.57 11.06,3.89 10.43,9.96 -15.35,148.43 -13.43,293.54 -12.02,442.61 0.1,10.47 -19.53,7.82 -19.62,-1.31 z" /><path
         id="path48"
         style="fill:#000000;fill-opacity:1;fill-rule:nonzero;stroke:none"
         d="m 3427.78,5049.71 c 10.23,0.63 20.63,4.72 31.2,12.25 10.56,7.5 19.84,15.99 27.84,25.43 7.98,9.43 13.84,18.47 17.52,27.12 3.66,8.63 3.92,14.22 0.73,16.79 -9.61,7.37 -18.89,8.72 -27.86,4.09 -8.95,-4.64 -16.96,-12.09 -24,-22.32 -7.03,-10.24 -12.79,-21.45 -17.27,-33.59 -4.49,-12.18 -7.21,-22.09 -8.16,-29.77 m -8.16,251.99 c -8.64,-17.6 -14.98,-35.35 -18.96,-53.27 -4,-17.92 -6.41,-35.36 -7.2,-52.32 -0.82,-16.97 -0.48,-32.96 0.96,-48 1.44,-15.04 3.36,-28.49 5.76,-40.31 2.39,-11.86 4.87,-21.78 7.44,-29.77 2.56,-8.01 4.48,-13.28 5.76,-15.84 1.92,7.99 4.48,16.38 7.67,25.2 3.2,8.79 6.89,17.04 11.05,24.72 4.16,7.68 8.47,14.48 12.97,20.39 4.47,5.92 9.11,10.34 13.91,13.21 2.88,2.55 7.03,4.72 12.48,6.48 5.43,1.76 11.11,2.72 17.04,2.86 5.92,0.18 11.59,-0.7 17.04,-2.63 5.42,-1.91 9.44,-4.96 12,-9.12 2.55,-3.82 3.42,-8.95 2.64,-15.35 -0.8,-6.4 -2.97,-13.37 -6.48,-20.88 -3.54,-7.53 -8.24,-15.29 -14.16,-23.28 -5.92,-8.01 -12.72,-15.45 -20.4,-22.33 -7.68,-6.89 -16.02,-12.79 -24.96,-17.75 -8.97,-4.98 -18.4,-8.09 -28.32,-9.36 -0.65,-2.24 -0.56,-4.73 0.24,-7.44 0.79,-2.72 0.88,-4.4 0.24,-5.04 -5.13,-0.64 -8.96,-0.41 -11.52,0.72 -2.57,1.12 -4.32,2.48 -5.28,4.07 -0.65,1.29 -1.13,2.16 -1.44,2.64 -0.32,0.49 -0.48,1.21 -0.48,2.16 v 3.59 c 0,1.46 0.32,3.78 0.96,6.98 -6.72,7.99 -12.01,17.99 -15.85,30 -3.84,12 -6.71,23.91 -8.63,35.77 -6.41,39.99 -7.37,76.3 -2.89,108.95 4.49,32.64 12.32,63.04 23.52,91.2 2.57,0.64 4.73,0.72 6.48,0.24 1.77,-0.48 3.29,-1.19 4.57,-2.16 1.27,-1.28 2.56,-2.73 3.84,-4.33" /><path
         id="path50"
         style="fill:#ffffff;fill-opacity:1;fill-rule:nonzero;stroke:none"
         d="m 4194.54,5392.57 -3.15,-259.94 c -1.02,-27.15 15.32,-184.61 15.32,-184.61 l -39.19,-4.14 -222.65,-11.6 -144.61,6.64 -2,47.01 -9.36,172.13 0.97,226.58 26.11,2.03 139.52,-2.54 z" /><path
         id="path52"
         style="fill:#000000;fill-opacity:1;fill-rule:nonzero;stroke:none"
         d="m 4184.73,5391.92 c -1.42,-150.45 -3.17,-296.7 12.32,-446.48 3.48,3.32 6.96,6.64 10.44,9.96 -99.97,-10.56 -205.62,-18.29 -302.81,-13.83 -31.27,1.43 -62.54,2.87 -93.81,4.31 -11.49,0.52 -1.13,1.35 -0.89,-4.28 -0.3,7.16 -0.61,14.31 -0.91,21.48 -0.38,8.8 -0.68,17.61 -1.16,26.41 -3.07,56.4 -6.13,112.81 -9.2,169.23 -3.08,56.52 0.48,114.17 0.73,170.77 0.06,14.19 0.12,28.37 0.18,42.55 0.08,19.28 -9.23,5.33 2.53,6.25 25.84,2.01 51.93,0.3 77.83,-0.17 104.71,-1.9 209.12,3.39 313.78,7.08 11.2,0.39 14.69,15.22 1.56,14.75 -73.78,-2.61 -147.56,-5.21 -221.34,-7.82 -61.11,-2.15 -122.34,4.63 -183.34,-0.11 -3.98,-0.31 -10.56,-3.11 -10.58,-8.03 -0.64,-149.35 4.04,-296.59 10.39,-445.72 0.16,-3.62 2.72,-6.47 6.54,-6.64 136.95,-6.29 272.3,-5.42 408.95,9.02 5.41,0.57 11.06,3.9 10.43,9.96 -15.35,148.44 -13.43,293.55 -12.02,442.62 0.1,10.47 -19.53,7.82 -19.62,-1.31 z" /><path
         id="path54"
         style="fill:#000000;fill-opacity:1;fill-rule:nonzero;stroke:none"
         d="m 4033.8,5301.49 c 2.56,1.28 4,-1.68 4.32,-8.88 0.32,-7.2 0,-17.2 -0.95,-30 -0.97,-12.8 -2.4,-27.68 -4.33,-44.65 -1.91,-16.95 -3.91,-34.47 -5.99,-52.55 -2.09,-18.08 -4.01,-35.92 -5.76,-53.52 -1.76,-17.6 -2.97,-33.44 -3.61,-47.52 -0.96,-9.29 -1.19,-17.13 -0.71,-23.51 0.48,-6.41 0.71,-12.01 0.71,-16.81 -1.28,-1.28 -3.84,-1.28 -7.68,0 -3.84,1.28 -6.09,3.84 -6.71,7.68 -0.97,21.76 -0.8,42.96 0.48,63.6 1.28,20.64 3.03,41.11 5.28,61.44 2.24,20.32 4.38,40.72 6.47,61.19 2.07,20.49 3.44,41.77 4.09,63.85 -2.57,0.96 -7.92,0.64 -16.09,-0.95 -8.15,-1.62 -17.27,-3.61 -27.36,-6.01 -10.07,-2.39 -19.91,-4.64 -29.51,-6.72 -9.6,-2.08 -16.81,-2.96 -21.6,-2.65 -2.25,0.33 -4,1.28 -5.3,2.89 -1.26,1.6 -2.21,5.28 -2.87,11.04 8.32,2.24 17.36,4.39 27.12,6.48 9.77,2.07 19.84,4.09 30.24,6 10.4,1.91 20.65,3.67 30.73,5.27 10.08,1.61 19.75,3.05 29.03,4.33 z" /><path
         id="path56"
         style="fill:#ffffff;fill-opacity:1;fill-rule:nonzero;stroke:none"
         d="m 4734.55,5392.57 -3.16,-259.94 c -1.01,-27.15 15.33,-184.61 15.33,-184.61 l -39.19,-4.14 -222.66,-11.6 -144.6,6.64 -2,47.01 -9.36,172.13 0.96,226.58 26.12,2.03 139.52,-2.54 z" /><path
         id="path58"
         style="fill:#000000;fill-opacity:1;fill-rule:nonzero;stroke:none"
         d="m 4724.74,5391.92 c -1.42,-150.45 -3.17,-296.69 12.32,-446.48 3.48,3.32 6.96,6.64 10.44,9.96 -99.97,-10.56 -205.62,-18.29 -302.81,-13.83 l -93.81,4.31 c -11.49,0.52 -1.13,1.35 -0.89,-4.28 -0.3,7.16 -0.61,14.31 -0.91,21.48 -0.38,8.8 -0.68,17.61 -1.16,26.41 -3.07,56.4 -6.13,112.81 -9.2,169.23 -3.08,56.52 0.48,114.17 0.72,170.77 0.07,14.19 0.12,28.37 0.18,42.55 0.09,19.28 -9.23,5.33 2.53,6.25 25.85,2.01 51.94,0.3 77.84,-0.17 104.71,-1.9 209.12,3.39 313.78,7.08 11.2,0.39 14.69,15.22 1.56,14.75 -73.78,-2.61 -147.56,-5.21 -221.34,-7.82 -61.11,-2.15 -122.35,4.63 -183.34,-0.11 -3.98,-0.31 -10.56,-3.11 -10.59,-8.03 -0.63,-149.35 4.05,-296.59 10.4,-445.72 0.16,-3.62 2.72,-6.47 6.54,-6.64 136.95,-6.29 272.3,-5.42 408.95,9.02 5.41,0.57 11.06,3.9 10.43,9.96 -15.36,148.45 -13.43,293.55 -12.02,442.62 0.1,10.47 -19.53,7.82 -19.62,-1.31 z" /><path
         id="path60"
         style="fill:#000000;fill-opacity:1;fill-rule:nonzero;stroke:none"
         d="m 4538.91,5054.49 c 5.44,0.96 9.2,5.67 11.28,14.15 2.08,8.48 2.8,18.24 2.16,29.29 -0.65,11.04 -2.48,22 -5.52,32.88 -3.05,10.89 -6.8,19.21 -11.28,24.96 -2.25,-5.12 -4.32,-11.45 -6.24,-18.97 -1.91,-7.51 -3.44,-15.28 -4.56,-23.28 -1.12,-7.98 -1.85,-15.91 -2.16,-23.75 -0.32,-7.85 0.08,-14.65 1.2,-20.41 1.12,-5.75 2.88,-10.07 5.29,-12.95 2.39,-2.89 5.67,-3.53 9.83,-1.92 m -7.2,130.56 c 1.27,3.84 3.67,9.67 7.2,17.52 3.52,7.83 6.96,15.91 10.32,24.23 3.36,8.32 6,15.84 7.92,22.56 1.93,6.72 1.93,10.88 0,12.48 -5.12,3.52 -11.12,6.41 -18,8.65 -6.88,2.23 -13.04,2.55 -18.48,0.96 -10.88,-4.49 -17.6,-10.49 -20.16,-18 -2.57,-7.52 -2.57,-15.36 0,-23.52 2.56,-8.16 6.8,-16.25 12.73,-24.23 5.9,-8.02 12.07,-14.88 18.47,-20.65 m 32.16,98.4 c 2.88,-0.96 5.84,-2.41 8.88,-4.32 3.04,-1.92 4.08,-6.24 3.12,-12.95 -2.88,-9.94 -5.6,-18.89 -8.16,-26.89 -2.56,-8 -5.21,-15.68 -7.92,-23.04 -2.73,-7.37 -5.6,-14.55 -8.63,-21.6 -3.05,-7.04 -6.33,-14.41 -9.85,-22.08 7.03,-8.32 12.8,-18.96 17.28,-31.92 4.48,-12.97 7.12,-26.16 7.92,-39.61 0.8,-13.43 -0.48,-25.99 -3.84,-37.66 -3.36,-11.68 -9.2,-20.09 -17.52,-25.2 -6.08,-3.21 -10.72,-4.66 -13.92,-4.32 -3.2,0.32 -6.71,2.39 -10.56,6.23 -3.84,4.16 -6.72,9.77 -8.64,16.79 -1.92,7.04 -3.12,14.66 -3.6,22.82 -0.48,8.16 -0.32,16.62 0.48,25.42 0.8,8.81 1.84,17.21 3.12,25.22 0.64,2.87 1.52,6.39 2.64,10.55 1.11,4.16 2.47,8.16 4.08,12 1.6,4.49 3.36,9.29 5.28,14.4 -2.24,4.8 -5.92,10.09 -11.04,15.84 -5.12,5.76 -10.08,12.16 -14.88,19.2 -4.8,7.03 -8.8,14.8 -12,23.28 -3.2,8.48 -4.16,17.84 -2.87,28.09 -0.33,5.1 1.19,10.22 4.55,15.35 3.37,5.13 6.32,8.79 8.88,11.04 7.68,6.41 17.28,10 28.8,10.8 11.53,0.81 24.32,-1.68 38.4,-7.44" /><path
         id="path62"
         style="fill:#ffffff;fill-opacity:1;fill-rule:nonzero;stroke:none"
         d="m 5274.54,5392.57 -3.15,-259.94 c -1.02,-27.15 15.32,-184.61 15.32,-184.61 l -39.19,-4.14 -222.65,-11.6 -144.61,6.64 -2,47.01 -9.36,172.13 0.97,226.58 26.11,2.03 139.52,-2.54 z" /><path
         id="path64"
         style="fill:#000000;fill-opacity:1;fill-rule:nonzero;stroke:none"
         d="m 5264.73,5391.92 c -1.42,-150.45 -3.17,-296.7 12.32,-446.48 3.48,3.32 6.96,6.64 10.44,9.96 -99.97,-10.56 -205.62,-18.29 -302.81,-13.83 -31.27,1.43 -62.54,2.87 -93.81,4.31 -11.49,0.52 -1.13,1.35 -0.89,-4.28 -0.3,7.16 -0.61,14.31 -0.91,21.48 -0.38,8.8 -0.68,17.61 -1.16,26.41 -3.07,56.4 -6.13,112.81 -9.2,169.23 -3.08,56.52 0.48,114.17 0.73,170.77 0.06,14.19 0.12,28.37 0.18,42.55 0.08,19.28 -9.23,5.33 2.53,6.25 25.84,2.01 51.93,0.3 77.83,-0.17 104.71,-1.9 209.12,3.39 313.78,7.08 11.2,0.39 14.69,15.22 1.56,14.75 -73.78,-2.61 -147.56,-5.21 -221.34,-7.82 -61.11,-2.15 -122.34,4.63 -183.34,-0.11 -3.98,-0.31 -10.56,-3.11 -10.58,-8.03 -0.64,-149.35 4.04,-296.59 10.39,-445.72 0.16,-3.62 2.72,-6.47 6.54,-6.64 136.95,-6.29 272.3,-5.42 408.95,9.02 5.41,0.57 11.06,3.9 10.43,9.96 -15.35,148.44 -13.43,293.55 -12.02,442.62 0.1,10.47 -19.53,7.82 -19.62,-1.31 z" /><path
         id="path66"
         style="fill:#000000;fill-opacity:1;fill-rule:nonzero;stroke:none"
         d="m 5023.84,5244.49 c 2.88,-5.44 7.69,-7.28 14.4,-5.52 6.72,1.76 13.75,5.35 21.12,10.8 7.36,5.43 14.16,12.15 20.4,20.16 6.24,8 10.32,15.67 12.24,23.05 -10.56,0.62 -20.4,-0.97 -29.52,-4.81 -9.12,-3.85 -16.96,-8.47 -23.52,-13.92 -6.57,-5.44 -11.28,-11.04 -14.16,-16.8 -2.88,-5.76 -3.21,-10.08 -0.96,-12.96 m 85.92,61.92 c 0.64,0.96 0.48,-2.01 -0.48,-8.88 -0.96,-6.88 -2.24,-15.35 -3.84,-25.43 -1.6,-10.09 -3.28,-20.73 -5.04,-31.94 -1.77,-11.19 -3.12,-20.8 -4.08,-28.79 0,-0.95 -0.4,-5.84 -1.2,-14.64 -0.8,-8.8 -1.6,-19.76 -2.4,-32.87 -0.8,-13.13 -1.76,-27.37 -2.88,-42.73 -1.13,-15.36 -2.08,-30.17 -2.87,-44.4 -0.82,-14.24 -1.37,-26.88 -1.68,-37.91 -0.33,-11.05 -0.33,-18.8 0,-23.29 -3.85,-0.64 -6.41,-0.87 -7.69,-0.72 -1.28,0.16 -3.84,1.19 -7.68,3.13 0.64,21.42 1.52,41.34 2.64,59.75 1.11,18.39 2.32,36.72 3.6,54.95 1.27,18.25 2.64,36.89 4.08,55.93 1.44,19.04 3.12,39.91 5.05,62.64 -6.09,-5.75 -12.9,-11.05 -20.41,-15.84 -7.52,-4.8 -15.04,-8.24 -22.56,-10.32 -7.52,-2.08 -14.49,-2.48 -20.88,-1.19 -6.41,1.26 -11.52,5.27 -15.36,11.99 -2.56,5.76 -1.36,13.51 3.6,23.28 4.96,9.76 12.4,18.96 22.32,27.6 9.92,8.64 21.67,15.28 35.28,19.92 13.6,4.64 27.76,4.56 42.48,-0.24" /><path
         id="path68"
         style="fill:#ffffff;fill-opacity:1;fill-rule:nonzero;stroke:none"
         d="m 5814.55,5392.56 -3.16,-259.94 c -1.01,-27.15 15.33,-184.6 15.33,-184.6 l -39.19,-4.14 -222.66,-11.61 -144.6,6.64 -2,47.01 -9.36,172.13 0.96,226.58 26.12,2.03 139.52,-2.54 z" /><path
         id="path70"
         style="fill:#000000;fill-opacity:1;fill-rule:nonzero;stroke:none"
         d="m 5804.74,5391.91 c -1.42,-150.45 -3.17,-296.68 12.32,-446.48 3.48,3.32 6.96,6.64 10.44,9.96 -99.97,-10.55 -205.62,-18.28 -302.81,-13.82 l -93.81,4.31 c -11.49,0.51 -1.13,1.35 -0.89,-4.29 -0.3,7.16 -0.61,14.32 -0.91,21.48 -0.38,8.81 -0.68,17.61 -1.16,26.41 -3.07,56.41 -6.13,112.82 -9.2,169.23 -3.08,56.52 0.48,114.18 0.72,170.77 0.07,14.2 0.12,28.38 0.18,42.56 0.09,19.28 -9.23,5.32 2.53,6.25 25.85,2.01 51.94,0.3 77.84,-0.17 104.71,-1.91 209.12,3.38 313.78,7.08 11.19,0.39 14.69,15.21 1.56,14.75 -73.78,-2.61 -147.56,-5.22 -221.34,-7.83 -61.11,-2.14 -122.35,4.63 -183.34,-0.1 -3.98,-0.32 -10.56,-3.11 -10.59,-8.04 -0.63,-149.34 4.05,-296.59 10.4,-445.71 0.16,-3.63 2.72,-6.47 6.54,-6.65 136.95,-6.28 272.3,-5.41 408.95,9.02 5.41,0.57 11.06,3.91 10.43,9.97 -15.36,148.44 -13.43,293.55 -12.02,442.62 0.1,10.47 -19.53,7.82 -19.62,-1.32 z" /><path
         id="path72"
         style="fill:#000000;fill-opacity:1;fill-rule:nonzero;stroke:none"
         d="m 5540.36,5295.7 h 15.34 c -1.27,-20.16 -1.43,-41.2 -0.48,-63.12 0.98,-21.92 2.41,-44.23 4.33,-66.96 1.91,-22.72 3.99,-45.53 6.24,-68.4 2.23,-22.88 4,-45.52 5.27,-67.92 -0.95,-2.56 -2.08,-3.92 -3.36,-4.08 -1.27,-0.16 -3.04,-0.23 -5.27,-0.23 -6.07,-1.61 -9.77,-0.18 -11.04,4.31 0,19.2 -0.73,40.39 -2.16,63.6 -1.44,23.2 -3.05,45.92 -4.8,68.16 -1.77,22.24 -3.45,42.79 -5.05,61.68 -1.59,18.88 -2.72,33.59 -3.36,44.16 0,2.56 -0.16,5.68 -0.47,9.36 -0.33,3.68 -0.57,7.13 -0.73,10.33 -0.16,3.18 0.09,5.75 0.73,7.67 0.63,1.92 2.24,2.41 4.81,1.44 z" /><path
         id="path74"
         style="fill:#000000;fill-opacity:1;fill-rule:nonzero;stroke:none"
         d="m 5623.21,5133.17 c 0.32,-9.92 1.05,-19.92 2.17,-29.99 1.11,-10.09 2.71,-19.21 4.79,-27.37 2.08,-8.16 4.81,-14.72 8.17,-19.68 3.36,-4.97 7.59,-7.28 12.71,-6.95 4.81,-0.66 9.52,2.63 14.16,9.83 4.64,7.21 8.8,15.92 12.49,26.17 3.67,10.23 6.87,20.87 9.6,31.93 2.72,11.02 4.72,20.06 6,27.1 1.27,8.97 1.99,18 2.16,27.12 0.15,9.13 -0.08,17.6 -0.73,25.43 -0.64,7.85 -1.61,15.04 -2.87,21.62 -1.29,6.55 -2.57,11.74 -3.85,15.59 -3.52,10.57 -9.59,20 -18.23,28.32 -8.64,8.32 -19.85,13.12 -33.6,14.41 -0.65,-2.89 -1.38,-7.77 -2.16,-14.64 -0.81,-6.9 -1.68,-14.81 -2.65,-23.77 -0.95,-8.97 -2,-18.56 -3.11,-28.79 -1.12,-10.26 -2.09,-20.17 -2.88,-29.77 -0.81,-9.61 -1.44,-18.46 -1.93,-26.64 -0.47,-8.16 -0.56,-14.8 -0.24,-19.92 m 86.89,84.96 c 2.23,-32.32 1.51,-60.17 -2.16,-83.51 -3.68,-23.37 -8.73,-42.73 -15.12,-58.08 -6.41,-15.37 -13.28,-27.06 -20.64,-35.05 -7.38,-8.01 -13.61,-12.95 -18.73,-14.88 -7.36,-1.92 -12.95,-2 -16.79,-0.23 -3.84,1.75 -7.68,5.82 -11.54,12.23 -3.51,7.04 -6.3,16.41 -8.39,28.09 -2.07,11.68 -3.59,24.22 -4.55,37.68 -0.97,13.43 -1.44,26.94 -1.44,40.55 0,13.59 0.31,25.68 0.96,36.25 0.94,12.79 1.68,23.51 2.15,32.16 0.48,8.63 1.13,16.47 1.93,23.52 0.79,7.02 1.6,14 2.4,20.87 0.78,6.88 1.99,14.95 3.59,24.24 -5.11,0.64 -8.56,2.89 -10.31,6.73 -1.77,3.84 -2.64,7.51 -2.64,11.03 23.04,-1.92 41.2,-6.64 54.48,-14.16 13.27,-7.52 23.36,-15.76 30.24,-24.71 6.87,-8.98 11.28,-17.52 13.19,-25.68 1.93,-8.16 3.04,-13.86 3.37,-17.05" /><path
         id="path76"
         style="fill:#000000;fill-opacity:1;fill-rule:nonzero;stroke:none"
         d="m 1299.79,2705.13 c -31.44,-0.26 -89.06,5.84 -119.57,20.61 -5.15,2.5 -14.41,8.77 -20.61,6.19 -2.49,2.75 -0.76,3.26 0,6.18 -40.8,15.2 -72.22,44.84 -103.06,76.27 -19.75,12.8 -38.05,44.24 -59.78,61.84 0.699,4.81 -0.34,7.9 -2.059,10.31 -8.16,4.81 -12.711,18.55 -16.492,28.86 -1.117,4.64 -3.18,-2.5 -6.18,2.06 -2.668,24.65 -16.84,28.6 -30.918,63.9 10.391,0.08 9,-29.46 24.719,-30.92 7.558,-18.55 17.18,-35.04 30.93,-47.41 -4.891,9.96 -10.731,30.14 -24.731,37.1 0.77,3.27 3.609,-1.8 4.121,2.07 -32.992,40.87 -62.012,123.42 -49.48,216.43 -8.239,-11.24 -2.66,-76.52 -6.18,-70.08 -5.852,12.37 -0.34,31.52 -2.059,45.35 -5.332,43.12 20.438,113.37 41.219,142.23 26.969,46.72 65.11,81.25 107.2,123.68 -25.43,-68.71 -105.051,-112.08 -125.739,-185.52 -9.883,-10.65 -20.363,-40.54 -14.441,-53.59 15.98,69.31 50.929,113.03 88.65,152.54 -36.682,-77.39 -59.881,-193.34 -47.42,-292.71 8.59,-68.11 40.28,-116.04 72.15,-164.91 -16.75,16.58 -27.49,31.26 -39.18,49.47 -7.81,-11.68 10.15,-19.32 16.5,-26.8 13.66,-15.98 26.11,-37.62 41.22,-49.47 3.71,1.55 0.35,3.78 0,6.18 -5.41,4.9 9.73,-4.03 2.07,-8.24 21.04,-17.52 27.57,-35.56 49.47,-45.35 33.85,-40.02 97.66,-67.68 158.73,-70.08 81.58,-3.27 163.35,37.7 222.62,74.2 -40.11,-48.1 -128.4,-75.41 -191.7,-80.39 m 51.52,729.71 c -10.47,-3.52 -31.94,10.66 -45.34,4.13 -2.74,-0.09 -1.89,4.21 -0.34,4.21 -13.83,6.27 -53.77,4.21 -75.93,1.97 -64.41,-6.35 -129.34,-42.6 -166.97,-74.2 46.04,82.79 192.48,127.11 288.58,63.89 m 39.18,-14.43 c -1.12,-4.29 -3.18,-4.38 -6.19,-2.06 -31.95,40.89 -84.69,60.98 -160.78,57.72 79.01,18.47 135.36,-11.16 166.97,-55.66 m -160.79,22.68 c 11.09,-0.77 10.23,-0.6 20.62,-2.06 -2.15,-2.66 -21.64,-5.32 -20.62,2.06 m 474.1,-366.92 c 0.19,3.27 5.25,1.64 4.13,6.19 -9.62,7.38 -7.63,25.93 -12.37,45.35 -10.73,1.02 3.96,-11.86 -2.06,-12.37 -6.43,6.35 -3.26,16.4 -4.12,22.67 -4.55,-5.07 -13.92,13.4 -12.37,14.43 4.73,0.6 2.32,-5.92 6.19,-6.18 -0.18,5.24 -1.12,9.79 -4.13,12.36 -1.37,-6.18 -4.38,1.98 -8.24,0 3.7,7.39 -8.75,13.92 -10.32,22.68 4.83,-1.38 5.51,-6.87 10.32,-8.25 -3.61,7.48 -13.92,29.2 -16.49,18.56 -0.09,10.56 -13.92,31.52 -22.67,32.98 5.23,-3.78 9.87,-7.99 10.31,-16.49 -0.44,2.74 -10.39,9.45 -6.19,4.12 24.72,-44.58 80.82,-106.33 65.96,-183.46 -0.94,-4.81 -4.99,-14 -8.25,-14.43 2.67,-3.78 -2.32,-12.71 -2.06,-16.49 -0.42,1.63 -0.09,4.03 -2.06,4.12 -3.69,-12.71 -12.29,-23.7 -8.24,-32.98 -3.87,-0.43 -4.55,2.32 -8.24,2.06 -4.82,-16.66 -25.27,-27.99 -24.75,-43.29 -17.17,-0.86 -31.09,-33.32 -45.35,-37.1 12.03,16.83 18.98,38.73 26.79,59.78 -3.26,2.06 -8.24,1.98 -4.12,6.18 3.28,-0.17 1.64,-5.23 6.2,-4.12 -3.01,11.42 11.59,17.26 2.06,22.67 14.34,23.03 19.5,81.17 14.42,111.32 -1.2,7.04 -11.15,20.27 -2.06,12.37 -5.75,15.71 -3.35,28.25 -12.36,30.91 11.85,15.55 -14.7,38.74 -14.44,49.48 4.72,0.6 2.33,-5.93 6.18,-6.19 0.69,10.31 -12.01,7.22 -12.36,16.49 4.21,-0.6 4.03,-5.58 8.24,-6.18 -6.86,20.52 -18.2,34.79 -26.79,57.72 -2.84,0.09 -4.56,-0.95 -6.19,-2.06 3,4.89 4.39,3.86 2.06,10.3 -5.15,-0.34 -8.49,1.03 -10.3,4.13 2.39,0.34 5.83,-0.35 6.18,2.06 -11.76,2.23 -3.35,8.67 -12.37,8.24 27.58,-61.15 70.19,-129.6 65.97,-218.5 0.86,-3.26 6.52,-1.72 4.12,-8.24 -2.05,-0.26 -4.12,8.93 -6.18,2.06 6.86,-18.38 -9.89,-45.1 -6.18,-59.78 -20.02,-36.85 -38.4,-112.77 -88.65,-138.12 34.02,59.61 48.78,159.76 24.74,222.63 4.9,-40.19 18.05,-86.92 0,-121.61 2.4,-0.35 5.84,0.34 6.18,-2.07 -9.7,-16.83 -14.08,-53.76 -22.67,-70.08 -2.75,0 -1.89,3.61 -4.12,4.12 0,-4.9 0.77,-18.13 -4.13,-10.3 -1.2,-13.49 -3.44,-7.65 -2.06,-16.5 -8.33,3.53 -11.17,-16.23 -16.48,-22.67 -9.97,-11.94 -30.67,-20.36 -47.41,-30.92 -24.57,-15.46 -50.08,-32.99 -76.27,-43.29 -68.12,-26.71 -147.65,-35.13 -197.89,-14.43 1.45,-2.83 -12.2,10.56 -16.5,2.06 0,2.06 1.72,2.49 2.06,4.12 -94.31,52.05 -206.47,165.77 -216.431,303.02 -2.758,38.31 0.25,79.62 4.121,107.19 1.879,13.57 1.879,27.57 4.121,39.17 0.09,0.42 4.117,-2.07 4.117,-2.07 9.961,31.35 17.692,70.09 30.932,101.01 2.65,6.19 10.82,11.34 6.18,20.62 7.29,-5.67 14.76,12.45 10.31,18.55 2.91,-0.78 3.51,-2.5 6.17,0 2.5,10.73 12.02,23.19 20.61,30.91 20.45,18.3 54.12,41.66 76.29,51.54 57.71,25.77 135.95,27.14 199.94,18.55 13.22,-11.68 37.87,-9.53 45.35,-30.92 -4.46,-3.09 -5.76,-9.27 -10.31,-12.37 10.49,-2.14 27.22,3.35 26.8,18.55 10.65,-4.03 15.37,-18.03 20.62,-14.42 4.29,-18.21 20.43,-33.93 28.85,-41.23 -1.37,-1.72 1.98,-14.34 10.31,-12.37 -5.5,-6.53 3.87,-12.8 6.17,-12.37 -3.85,-8.07 7.82,-18.2 12.38,-24.73 -12.1,40.1 -44.49,71.37 -59.78,98.94 13.05,-3.69 21.39,-23.7 39.16,-14.43 -20.61,16.15 -42.5,19.41 -57.71,32.98 -9.19,18.3 -34.79,31.18 -41.23,45.35 54.72,-27.74 80.48,-48.09 119.56,-92.75 -7.98,3 -12.1,9.87 -18.55,14.42 1.21,-7.38 -12.28,-0.08 -10.31,-8.24 5.84,3.95 16.33,-1.12 12.37,-6.18 9.01,3.77 6.61,-3.01 14.42,-8.25 2.23,-1.46 11.68,-1.89 14.44,-4.12 3.08,-2.59 3.44,-9.11 6.19,-12.37 14.59,-17.44 39.25,-23.97 49.46,-47.41 3.87,-1.98 6.87,6.18 8.25,0 -5.41,-8.51 13.15,-27.84 20.61,-37.11 -0.6,4.72 5.93,2.32 6.19,6.18 -7.73,1.9 -10.31,16.59 -8.24,18.56 -7.14,4.12 0.16,-0.95 -4.13,-2.06 -10.48,8.5 -6.11,20.01 -18.55,24.73 0.77,-0.43 5.06,1.12 4.12,2.07 -13.75,13.31 -29.19,25.07 -43.3,39.16 -18.45,18.47 -34,39.77 -53.59,57.72 -9.86,9.1 -22.16,14.85 -32.98,22.67 -8.84,6.45 -13.23,15.72 -20.6,20.62 -13.15,8.76 -29.38,10.56 -41.24,20.61 -3.85,0.43 -4.55,-2.32 -8.25,-2.06 -8.67,5.5 -20.68,17.18 -30.91,14.43 -4.3,10.91 -21.98,25.42 -30.92,18.55 13.05,-3.52 22.5,-10.48 28.85,-20.62 -14.42,3.35 -39.5,6.7 -49.46,6.19 -65.03,12.97 -147.48,-42.6 -197.89,-80.39 -21.21,-15.89 -42.52,-39.17 -57.71,-53.6 -7.4,-6.95 -9.63,-11.42 -12.3,-14.26 0,0.86 -2.822,3.01 -4.2,1.9 -7.559,-6.02 -12.45,-20.71 -20.61,-32.99 -19.332,-29.11 -47.93,-64.93 -55.66,-98.95 -1.719,-7.72 1.371,-14.34 0,-20.61 -0.09,-0.43 -4.129,2.07 -4.129,2.07 -4.551,-10.91 -5.75,-38.99 -6.172,-55.66 -1.39,-59.52 15.801,-109.85 28.852,-162.85 12.199,-16.66 22.758,-34.95 28.859,-57.71 81.86,-115.53 175.81,-236.28 379.28,-212.33 6.8,2.24 7.22,3.96 14.44,6.19 7.73,2.32 15.89,0.26 22.67,2.07 25.51,6.87 48.53,19.15 72.15,37.1 10.39,7.81 28.26,10.56 30.92,24.73 0.43,-1.63 1.72,-2.4 4.12,-2.06 74.3,95.94 214.46,143.87 218.51,296.84 -1.56,3.26 -6.54,3.09 -6.2,8.24" /><g
         transform="scale(10)"
         id="g78"><text
           id="text82"
           style="font-variant:normal;font-weight:normal;font-size:12px;font-family:Papyrus;-inkscape-font-specification:Papyrus;writing-mode:lr-tb;fill:#000000;fill-opacity:1;fill-rule:nonzero;stroke:none"
           transform="matrix(1,0,0,-1,100.669,308.232)"><tspan
             id="tspan80"
             y="0"
             x="0 6.7317662 9.2397661 14.112 18.455999 25.164 31.596001 34.236 36.959999 43.294598 49.666595 56.038597">Virtual Peer</tspan></text>
</g><path
         id="path84"
         style="fill:#000000;fill-opacity:1;fill-rule:nonzero;stroke:none"
         d="m 3619.55,2705.13 c -31.44,-0.26 -89.06,5.84 -119.57,20.61 -5.15,2.5 -14.41,8.77 -20.61,6.19 -2.49,2.75 -0.76,3.26 0,6.18 -40.8,15.2 -72.22,44.84 -103.06,76.27 -19.75,12.8 -38.05,44.24 -59.78,61.84 0.7,4.81 -0.34,7.9 -2.06,10.31 -8.16,4.81 -12.71,18.55 -16.49,28.86 -1.12,4.64 -3.18,-2.5 -6.18,2.06 -2.67,24.65 -16.84,28.6 -30.92,63.9 10.39,0.08 9,-29.46 24.72,-30.92 7.56,-18.55 17.18,-35.04 30.93,-47.41 -4.89,9.96 -10.73,30.14 -24.73,37.1 0.77,3.27 3.61,-1.8 4.12,2.07 -32.99,40.87 -62.01,123.42 -49.48,216.43 -8.24,-11.24 -2.66,-76.52 -6.18,-70.08 -5.85,12.37 -0.34,31.52 -2.06,45.35 -5.33,43.12 20.44,113.37 41.22,142.23 26.97,46.72 65.11,81.25 107.2,123.68 -25.43,-68.71 -105.05,-112.08 -125.74,-185.52 -9.88,-10.65 -20.36,-40.54 -14.44,-53.59 15.98,69.31 50.93,113.03 88.65,152.54 -36.68,-77.39 -59.88,-193.34 -47.42,-292.71 8.59,-68.11 40.28,-116.04 72.15,-164.91 -16.75,16.58 -27.49,31.26 -39.18,49.47 -7.81,-11.68 10.15,-19.32 16.5,-26.8 13.66,-15.98 26.11,-37.62 41.22,-49.47 3.71,1.55 0.35,3.78 0,6.18 -5.41,4.9 9.73,-4.03 2.07,-8.24 21.04,-17.52 27.57,-35.56 49.47,-45.35 33.85,-40.02 97.66,-67.68 158.73,-70.08 81.58,-3.27 163.35,37.7 222.62,74.2 -40.11,-48.1 -128.4,-75.41 -191.7,-80.39 m 51.52,729.71 c -10.47,-3.52 -31.94,10.66 -45.34,4.13 -2.74,-0.09 -1.89,4.21 -0.34,4.21 -13.83,6.27 -53.77,4.21 -75.93,1.97 -64.41,-6.35 -129.34,-42.6 -166.97,-74.2 46.04,82.79 192.48,127.11 288.58,63.89 m 39.18,-14.43 c -1.12,-4.29 -3.18,-4.38 -6.19,-2.06 -31.95,40.89 -84.69,60.98 -160.78,57.72 79.01,18.47 135.36,-11.16 166.97,-55.66 m -160.79,22.68 c 11.09,-0.77 10.23,-0.6 20.62,-2.06 -2.15,-2.66 -21.64,-5.32 -20.62,2.06 m 474.1,-366.92 c 0.19,3.27 5.25,1.64 4.13,6.19 -9.62,7.38 -7.63,25.93 -12.37,45.35 -10.73,1.02 3.96,-11.86 -2.06,-12.37 -6.43,6.35 -3.26,16.4 -4.12,22.67 -4.55,-5.07 -13.92,13.4 -12.37,14.43 4.73,0.6 2.32,-5.92 6.19,-6.18 -0.18,5.24 -1.12,9.79 -4.13,12.36 -1.37,-6.18 -4.38,1.98 -8.24,0 3.7,7.39 -8.75,13.92 -10.32,22.68 4.83,-1.38 5.51,-6.87 10.32,-8.25 -3.61,7.48 -13.92,29.2 -16.49,18.56 -0.09,10.56 -13.92,31.52 -22.67,32.98 5.23,-3.78 9.87,-7.99 10.31,-16.49 -0.44,2.74 -10.39,9.45 -6.19,4.12 24.72,-44.58 80.82,-106.33 65.96,-183.46 -0.94,-4.81 -4.99,-14 -8.25,-14.43 2.67,-3.78 -2.32,-12.71 -2.06,-16.49 -0.42,1.63 -0.09,4.03 -2.06,4.12 -3.69,-12.71 -12.29,-23.7 -8.24,-32.98 -3.87,-0.43 -4.55,2.32 -8.24,2.06 -4.82,-16.66 -25.27,-27.99 -24.75,-43.29 -17.17,-0.86 -31.09,-33.32 -45.35,-37.1 12.03,16.83 18.98,38.73 26.79,59.78 -3.26,2.06 -8.24,1.98 -4.12,6.18 3.28,-0.17 1.64,-5.23 6.2,-4.12 -3.01,11.42 11.59,17.26 2.06,22.67 14.34,23.03 19.5,81.17 14.42,111.32 -1.2,7.04 -11.15,20.27 -2.06,12.37 -5.75,15.71 -3.35,28.25 -12.36,30.91 11.85,15.55 -14.7,38.74 -14.44,49.48 4.72,0.6 2.33,-5.93 6.18,-6.19 0.69,10.31 -12.01,7.22 -12.36,16.49 4.21,-0.6 4.03,-5.58 8.24,-6.18 -6.86,20.52 -18.2,34.79 -26.79,57.72 -2.84,0.09 -4.56,-0.95 -6.19,-2.06 3,4.89 4.39,3.86 2.06,10.3 -5.15,-0.34 -8.49,1.03 -10.3,4.13 2.39,0.34 5.83,-0.35 6.18,2.06 -11.76,2.23 -3.35,8.67 -12.37,8.24 27.58,-61.15 70.19,-129.6 65.97,-218.5 0.86,-3.26 6.52,-1.72 4.12,-8.24 -2.05,-0.26 -4.12,8.93 -6.18,2.06 6.86,-18.38 -9.89,-45.1 -6.18,-59.78 -20.02,-36.85 -38.4,-112.77 -88.65,-138.12 34.02,59.61 48.78,159.76 24.74,222.63 4.9,-40.19 18.05,-86.92 0,-121.61 2.4,-0.35 5.84,0.34 6.18,-2.07 -9.7,-16.83 -14.08,-53.76 -22.67,-70.08 -2.75,0 -1.89,3.61 -4.12,4.12 0,-4.9 0.77,-18.13 -4.13,-10.3 -1.2,-13.49 -3.44,-7.65 -2.06,-16.5 -8.33,3.53 -11.17,-16.23 -16.48,-22.67 -9.97,-11.94 -30.67,-20.36 -47.41,-30.92 -24.57,-15.46 -50.08,-32.99 -76.27,-43.29 -68.12,-26.71 -147.65,-35.13 -197.89,-14.43 1.45,-2.83 -12.2,10.56 -16.5,2.06 0,2.06 1.72,2.49 2.06,4.12 -94.31,52.05 -206.47,165.77 -216.43,303.02 -2.76,38.31 0.25,79.62 4.12,107.19 1.88,13.57 1.88,27.57 4.12,39.17 0.09,0.42 4.12,-2.07 4.12,-2.07 9.96,31.35 17.69,70.09 30.93,101.01 2.65,6.19 10.82,11.34 6.18,20.62 7.29,-5.67 14.76,12.45 10.31,18.55 2.91,-0.78 3.51,-2.5 6.17,0 2.5,10.73 12.02,23.19 20.61,30.91 20.45,18.3 54.12,41.66 76.29,51.54 57.71,25.77 135.95,27.14 199.94,18.55 13.22,-11.68 37.87,-9.53 45.35,-30.92 -4.46,-3.09 -5.76,-9.27 -10.31,-12.37 10.49,-2.14 27.22,3.35 26.8,18.55 10.65,-4.03 15.37,-18.03 20.62,-14.42 4.29,-18.21 20.43,-33.93 28.85,-41.23 -1.37,-1.72 1.98,-14.34 10.31,-12.37 -5.5,-6.53 3.87,-12.8 6.17,-12.37 -3.85,-8.07 7.82,-18.2 12.38,-24.73 -12.1,40.1 -44.49,71.37 -59.78,98.94 13.05,-3.69 21.39,-23.7 39.16,-14.43 -20.61,16.15 -42.5,19.41 -57.71,32.98 -9.19,18.3 -34.79,31.18 -41.23,45.35 54.72,-27.74 80.48,-48.09 119.56,-92.75 -7.98,3 -12.1,9.87 -18.55,14.42 1.21,-7.38 -12.28,-0.08 -10.31,-8.24 5.84,3.95 16.33,-1.12 12.37,-6.18 9.01,3.77 6.61,-3.01 14.42,-8.25 2.23,-1.46 11.68,-1.89 14.44,-4.12 3.08,-2.59 3.44,-9.11 6.19,-12.37 14.59,-17.44 39.25,-23.97 49.46,-47.41 3.87,-1.98 6.87,6.18 8.25,0 -5.41,-8.51 13.15,-27.84 20.61,-37.11 -0.6,4.72 5.93,2.32 6.19,6.18 -7.73,1.9 -10.31,16.59 -8.24,18.56 -7.14,4.12 0.16,-0.95 -4.13,-2.06 -10.48,8.5 -6.11,20.01 -18.55,24.73 0.77,-0.43 5.06,1.12 4.12,2.07 -13.75,13.31 -29.19,25.07 -43.3,39.16 -18.45,18.47 -34,39.77 -53.59,57.72 -9.86,9.1 -22.16,14.85 -32.98,22.67 -8.84,6.45 -13.23,15.72 -20.6,20.62 -13.15,8.76 -29.38,10.56 -41.24,20.61 -3.85,0.43 -4.55,-2.32 -8.25,-2.06 -8.67,5.5 -20.68,17.18 -30.91,14.43 -4.3,10.91 -21.98,25.42 -30.92,18.55 13.05,-3.52 22.5,-10.48 28.85,-20.62 -14.42,3.35 -39.5,6.7 -49.46,6.19 -65.03,12.97 -147.48,-42.6 -197.89,-80.39 -21.21,-15.89 -42.52,-39.17 -57.71,-53.6 -7.4,-6.95 -9.63,-11.42 -12.3,-14.26 0,0.86 -2.82,3.01 -4.2,1.9 -7.56,-6.02 -12.45,-20.71 -20.61,-32.99 -19.33,-29.11 -47.93,-64.93 -55.66,-98.95 -1.72,-7.72 1.37,-14.34 0,-20.61 -0.09,-0.43 -4.13,2.07 -4.13,2.07 -4.55,-10.91 -5.75,-38.99 -6.17,-55.66 -1.39,-59.52 15.8,-109.85 28.85,-162.85 12.2,-16.66 22.76,-34.95 28.86,-57.71 81.86,-115.53 175.81,-236.28 379.28,-212.33 6.8,2.24 7.22,3.96 14.44,6.19 7.73,2.32 15.89,0.26 22.67,2.07 25.51,6.87 48.53,19.15 72.15,37.1 10.39,7.81 28.26,10.56 30.92,24.73 0.43,-1.63 1.72,-2.4 4.12,-2.06 74.3,95.94 214.46,143.87 218.51,296.84 -1.56,3.26 -6.54,3.09 -6.2,8.24" /><g
         transform="scale(10)"
         id="g86"><text
           id="text90"
           style="font-variant:normal;font-weight:normal;font-size:12px;font-family:Papyrus;-inkscape-font-specification:Papyrus;writing-mode:lr-tb;fill:#000000;fill-opacity:1;fill-rule:nonzero;stroke:none"
           transform="matrix(1,0,0,-1,332.645,308.232)"><tspan
             id="tspan88"
             y="0"
             x="0 6.7317662 9.2397661 14.112 18.455999 25.164 31.596001 34.236 36.959999 43.294598 49.666595 56.038597">Virtual Peer</tspan></text>
</g><path
         id="path92"
         style="fill:#000000;fill-opacity:1;fill-rule:nonzero;stroke:none"
         d="m 2459.67,2705.13 c -31.44,-0.26 -89.06,5.84 -119.57,20.61 -5.15,2.5 -14.41,8.77 -20.61,6.19 -2.49,2.75 -0.76,3.26 0,6.18 -40.8,15.2 -72.22,44.84 -103.06,76.27 -19.75,12.8 -38.05,44.24 -59.78,61.84 0.7,4.81 -0.34,7.9 -2.06,10.31 -8.16,4.81 -12.71,18.55 -16.49,28.86 -1.12,4.64 -3.18,-2.5 -6.18,2.06 -2.67,24.65 -16.84,28.6 -30.92,63.9 10.39,0.08 9,-29.46 24.72,-30.92 7.56,-18.55 17.18,-35.04 30.93,-47.41 -4.89,9.96 -10.73,30.14 -24.73,37.1 0.77,3.27 3.61,-1.8 4.12,2.07 -32.99,40.87 -62.01,123.42 -49.48,216.43 -8.24,-11.24 -2.66,-76.52 -6.18,-70.08 -5.85,12.37 -0.34,31.52 -2.06,45.35 -5.33,43.12 20.44,113.37 41.22,142.23 26.97,46.72 65.11,81.25 107.2,123.68 -25.43,-68.71 -105.05,-112.08 -125.74,-185.52 -9.88,-10.65 -20.36,-40.54 -14.44,-53.59 15.98,69.31 50.93,113.03 88.65,152.54 -36.68,-77.39 -59.88,-193.34 -47.42,-292.71 8.59,-68.11 40.28,-116.04 72.15,-164.91 -16.75,16.58 -27.49,31.26 -39.18,49.47 -7.81,-11.68 10.15,-19.32 16.5,-26.8 13.66,-15.98 26.11,-37.62 41.22,-49.47 3.71,1.55 0.35,3.78 0,6.18 -5.41,4.9 9.73,-4.03 2.07,-8.24 21.04,-17.52 27.57,-35.56 49.47,-45.35 33.85,-40.02 97.66,-67.68 158.73,-70.08 81.58,-3.27 163.35,37.7 222.62,74.2 -40.11,-48.1 -128.4,-75.41 -191.7,-80.39 m 51.52,729.71 c -10.47,-3.52 -31.94,10.66 -45.34,4.13 -2.74,-0.09 -1.89,4.21 -0.34,4.21 -13.83,6.27 -53.77,4.21 -75.93,1.97 -64.41,-6.35 -129.34,-42.6 -166.97,-74.2 46.04,82.79 192.48,127.11 288.58,63.89 m 39.18,-14.43 c -1.12,-4.29 -3.18,-4.38 -6.19,-2.06 -31.95,40.89 -84.69,60.98 -160.78,57.72 79.01,18.47 135.36,-11.16 166.97,-55.66 m -160.79,22.68 c 11.09,-0.77 10.23,-0.6 20.62,-2.06 -2.15,-2.66 -21.64,-5.32 -20.62,2.06 m 474.1,-366.92 c 0.19,3.27 5.25,1.64 4.13,6.19 -9.62,7.38 -7.63,25.93 -12.37,45.35 -10.73,1.02 3.96,-11.86 -2.06,-12.37 -6.43,6.35 -3.26,16.4 -4.12,22.67 -4.55,-5.07 -13.92,13.4 -12.37,14.43 4.73,0.6 2.32,-5.92 6.19,-6.18 -0.18,5.24 -1.12,9.79 -4.13,12.36 -1.37,-6.18 -4.38,1.98 -8.24,0 3.7,7.39 -8.75,13.92 -10.32,22.68 4.83,-1.38 5.51,-6.87 10.32,-8.25 -3.61,7.48 -13.92,29.2 -16.49,18.56 -0.09,10.56 -13.92,31.52 -22.67,32.98 5.23,-3.78 9.87,-7.99 10.31,-16.49 -0.44,2.74 -10.39,9.45 -6.19,4.12 24.72,-44.58 80.82,-106.33 65.96,-183.46 -0.94,-4.81 -4.99,-14 -8.25,-14.43 2.67,-3.78 -2.32,-12.71 -2.06,-16.49 -0.42,1.63 -0.09,4.03 -2.06,4.12 -3.69,-12.71 -12.29,-23.7 -8.24,-32.98 -3.87,-0.43 -4.55,2.32 -8.24,2.06 -4.82,-16.66 -25.27,-27.99 -24.75,-43.29 -17.17,-0.86 -31.09,-33.32 -45.35,-37.1 12.03,16.83 18.98,38.73 26.79,59.78 -3.26,2.06 -8.24,1.98 -4.12,6.18 3.28,-0.17 1.64,-5.23 6.2,-4.12 -3.01,11.42 11.59,17.26 2.06,22.67 14.34,23.03 19.5,81.17 14.42,111.32 -1.2,7.04 -11.15,20.27 -2.06,12.37 -5.75,15.71 -3.35,28.25 -12.36,30.91 11.85,15.55 -14.7,38.74 -14.44,49.48 4.72,0.6 2.33,-5.93 6.18,-6.19 0.69,10.31 -12.01,7.22 -12.36,16.49 4.21,-0.6 4.03,-5.58 8.24,-6.18 -6.86,20.52 -18.2,34.79 -26.79,57.72 -2.84,0.09 -4.56,-0.95 -6.19,-2.06 3,4.89 4.39,3.86 2.06,10.3 -5.15,-0.34 -8.49,1.03 -10.3,4.13 2.39,0.34 5.83,-0.35 6.18,2.06 -11.76,2.23 -3.35,8.67 -12.37,8.24 27.58,-61.15 70.19,-129.6 65.97,-218.5 0.86,-3.26 6.52,-1.72 4.12,-8.24 -2.05,-0.26 -4.12,8.93 -6.18,2.06 6.86,-18.38 -9.89,-45.1 -6.18,-59.78 -20.02,-36.85 -38.4,-112.77 -88.65,-138.12 34.02,59.61 48.78,159.76 24.74,222.63 4.9,-40.19 18.05,-86.92 0,-121.61 2.4,-0.35 5.84,0.34 6.18,-2.07 -9.7,-16.83 -14.08,-53.76 -22.67,-70.08 -2.75,0 -1.89,3.61 -4.12,4.12 0,-4.9 0.77,-18.13 -4.13,-10.3 -1.2,-13.49 -3.44,-7.65 -2.06,-16.5 -8.33,3.53 -11.17,-16.23 -16.48,-22.67 -9.97,-11.94 -30.67,-20.36 -47.41,-30.92 -24.57,-15.46 -50.08,-32.99 -76.27,-43.29 -68.12,-26.71 -147.65,-35.13 -197.89,-14.43 1.45,-2.83 -12.2,10.56 -16.5,2.06 0,2.06 1.72,2.49 2.06,4.12 -94.31,52.05 -206.47,165.77 -216.43,303.02 -2.76,38.31 0.25,79.62 4.12,107.19 1.88,13.57 1.88,27.57 4.12,39.17 0.09,0.42 4.12,-2.07 4.12,-2.07 9.96,31.35 17.69,70.09 30.93,101.01 2.65,6.19 10.82,11.34 6.18,20.62 7.29,-5.67 14.76,12.45 10.31,18.55 2.91,-0.78 3.51,-2.5 6.17,0 2.5,10.73 12.02,23.19 20.61,30.91 20.45,18.3 54.12,41.66 76.29,51.54 57.71,25.77 135.95,27.14 199.94,18.55 13.22,-11.68 37.87,-9.53 45.35,-30.92 -4.46,-3.09 -5.76,-9.27 -10.31,-12.37 10.49,-2.14 27.22,3.35 26.8,18.55 10.65,-4.03 15.37,-18.03 20.62,-14.42 4.29,-18.21 20.43,-33.93 28.85,-41.23 -1.37,-1.72 1.98,-14.34 10.31,-12.37 -5.5,-6.53 3.87,-12.8 6.17,-12.37 -3.85,-8.07 7.82,-18.2 12.38,-24.73 -12.1,40.1 -44.49,71.37 -59.78,98.94 13.05,-3.69 21.39,-23.7 39.16,-14.43 -20.61,16.15 -42.5,19.41 -57.71,32.98 -9.19,18.3 -34.79,31.18 -41.23,45.35 54.72,-27.74 80.48,-48.09 119.56,-92.75 -7.98,3 -12.1,9.87 -18.55,14.42 1.21,-7.38 -12.28,-0.08 -10.31,-8.24 5.84,3.95 16.33,-1.12 12.37,-6.18 9.01,3.77 6.61,-3.01 14.42,-8.25 2.23,-1.46 11.68,-1.89 14.44,-4.12 3.08,-2.59 3.44,-9.11 6.19,-12.37 14.59,-17.44 39.25,-23.97 49.46,-47.41 3.87,-1.98 6.87,6.18 8.25,0 -5.41,-8.51 13.15,-27.84 20.61,-37.11 -0.6,4.72 5.93,2.32 6.19,6.18 -7.73,1.9 -10.31,16.59 -8.24,18.56 -7.14,4.12 0.16,-0.95 -4.13,-2.06 -10.48,8.5 -6.11,20.01 -18.55,24.73 0.77,-0.43 5.06,1.12 4.12,2.07 -13.75,13.31 -29.19,25.07 -43.3,39.16 -18.45,18.47 -34,39.77 -53.59,57.72 -9.86,9.1 -22.16,14.85 -32.98,22.67 -8.84,6.45 -13.23,15.72 -20.6,20.62 -13.15,8.76 -29.38,10.56 -41.24,20.61 -3.85,0.43 -4.55,-2.32 -8.25,-2.06 -8.67,5.5 -20.68,17.18 -30.91,14.43 -4.3,10.91 -21.98,25.42 -30.92,18.55 13.05,-3.52 22.5,-10.48 28.85,-20.62 -14.42,3.35 -39.5,6.7 -49.46,6.19 -65.03,12.97 -147.48,-42.6 -197.89,-80.39 -21.21,-15.89 -42.52,-39.17 -57.71,-53.6 -7.4,-6.95 -9.63,-11.42 -12.3,-14.26 0,0.86 -2.82,3.01 -4.2,1.9 -7.56,-6.02 -12.45,-20.71 -20.61,-32.99 -19.33,-29.11 -47.93,-64.93 -55.66,-98.95 -1.72,-7.72 1.37,-14.34 0,-20.61 -0.09,-0.43 -4.13,2.07 -4.13,2.07 -4.55,-10.91 -5.75,-38.99 -6.17,-55.66 -1.39,-59.52 15.8,-109.85 28.85,-162.85 12.2,-16.66 22.76,-34.95 28.86,-57.71 81.86,-115.53 175.81,-236.28 379.28,-212.33 6.8,2.24 7.22,3.96 14.44,6.19 7.73,2.32 15.89,0.26 22.67,2.07 25.51,6.87 48.53,19.15 72.15,37.1 10.39,7.81 28.26,10.56 30.92,24.73 0.43,-1.63 1.72,-2.4 4.12,-2.06 74.3,95.94 214.46,143.87 218.51,296.84 -1.56,3.26 -6.54,3.09 -6.2,8.24" /><g
         transform="scale(10)"
         id="g94"><text
           id="text98"
           style="font-variant:normal;font-weight:normal;font-size:12px;font-family:Papyrus;-inkscape-font-specification:Papyrus;writing-mode:lr-tb;fill:#000000;fill-opacity:1;fill-rule:nonzero;stroke:none"
           transform="matrix(1,0,0,-1,216.657,308.232)"><tspan
             id="tspan96"
             y="0"
             x="0 6.7317662 9.2397661 14.112 18.455999 25.164 31.596001 34.236 36.959999 43.294598 49.666595 56.038597">Virtual Peer</tspan></text>
</g><path
         id="path100"
         style="fill:#000000;fill-opacity:1;fill-rule:nonzero;stroke:none"
         d="m 4779.43,2705.13 c -31.44,-0.26 -89.06,5.84 -119.57,20.61 -5.15,2.5 -14.41,8.77 -20.61,6.19 -2.49,2.75 -0.76,3.26 0,6.18 -40.8,15.2 -72.22,44.84 -103.06,76.27 -19.75,12.8 -38.05,44.24 -59.78,61.84 0.7,4.81 -0.34,7.9 -2.06,10.31 -8.16,4.81 -12.71,18.55 -16.49,28.86 -1.12,4.64 -3.18,-2.5 -6.18,2.06 -2.67,24.65 -16.84,28.6 -30.92,63.9 10.39,0.08 9,-29.46 24.72,-30.92 7.56,-18.55 17.18,-35.04 30.93,-47.41 -4.89,9.96 -10.73,30.14 -24.73,37.1 0.77,3.27 3.61,-1.8 4.12,2.07 -32.99,40.87 -62.01,123.42 -49.48,216.43 -8.24,-11.24 -2.66,-76.52 -6.18,-70.08 -5.85,12.37 -0.34,31.52 -2.06,45.35 -5.33,43.12 20.44,113.37 41.22,142.23 26.97,46.72 65.11,81.25 107.2,123.68 -25.43,-68.71 -105.05,-112.08 -125.74,-185.52 -9.88,-10.65 -20.36,-40.54 -14.44,-53.59 15.98,69.31 50.93,113.03 88.65,152.54 -36.68,-77.39 -59.88,-193.34 -47.42,-292.71 8.59,-68.11 40.28,-116.04 72.15,-164.91 -16.75,16.58 -27.49,31.26 -39.18,49.47 -7.81,-11.68 10.15,-19.32 16.5,-26.8 13.66,-15.98 26.11,-37.62 41.22,-49.47 3.71,1.55 0.35,3.78 0,6.18 -5.41,4.9 9.73,-4.03 2.07,-8.24 21.04,-17.52 27.57,-35.56 49.47,-45.35 33.85,-40.02 97.66,-67.68 158.73,-70.08 81.58,-3.27 163.35,37.7 222.62,74.2 -40.11,-48.1 -128.4,-75.41 -191.7,-80.39 m 51.52,729.71 c -10.47,-3.52 -31.94,10.66 -45.34,4.13 -2.74,-0.09 -1.89,4.21 -0.34,4.21 -13.83,6.27 -53.77,4.21 -75.93,1.97 -64.41,-6.35 -129.34,-42.6 -166.97,-74.2 46.04,82.79 192.48,127.11 288.58,63.89 m 39.18,-14.43 c -1.12,-4.29 -3.18,-4.38 -6.19,-2.06 -31.95,40.89 -84.69,60.98 -160.78,57.72 79.01,18.47 135.36,-11.16 166.97,-55.66 m -160.79,22.68 c 11.09,-0.77 10.23,-0.6 20.62,-2.06 -2.15,-2.66 -21.64,-5.32 -20.62,2.06 m 474.1,-366.92 c 0.19,3.27 5.25,1.64 4.13,6.19 -9.62,7.38 -7.63,25.93 -12.37,45.35 -10.73,1.02 3.96,-11.86 -2.06,-12.37 -6.43,6.35 -3.26,16.4 -4.12,22.67 -4.55,-5.07 -13.92,13.4 -12.37,14.43 4.73,0.6 2.32,-5.92 6.19,-6.18 -0.18,5.24 -1.12,9.79 -4.13,12.36 -1.37,-6.18 -4.38,1.98 -8.24,0 3.7,7.39 -8.75,13.92 -10.32,22.68 4.83,-1.38 5.51,-6.87 10.32,-8.25 -3.61,7.48 -13.92,29.2 -16.49,18.56 -0.09,10.56 -13.92,31.52 -22.67,32.98 5.23,-3.78 9.87,-7.99 10.31,-16.49 -0.44,2.74 -10.39,9.45 -6.19,4.12 24.72,-44.58 80.82,-106.33 65.96,-183.46 -0.94,-4.81 -4.99,-14 -8.25,-14.43 2.67,-3.78 -2.32,-12.71 -2.06,-16.49 -0.42,1.63 -0.09,4.03 -2.06,4.12 -3.69,-12.71 -12.29,-23.7 -8.24,-32.98 -3.87,-0.43 -4.55,2.32 -8.24,2.06 -4.82,-16.66 -25.27,-27.99 -24.75,-43.29 -17.17,-0.86 -31.09,-33.32 -45.35,-37.1 12.03,16.83 18.98,38.73 26.79,59.78 -3.27,2.06 -8.24,1.98 -4.12,6.18 3.28,-0.17 1.64,-5.23 6.2,-4.12 -3.01,11.42 11.59,17.26 2.06,22.67 14.34,23.03 19.5,81.17 14.42,111.32 -1.2,7.04 -11.15,20.27 -2.06,12.37 -5.75,15.71 -3.35,28.25 -12.36,30.91 11.85,15.55 -14.7,38.74 -14.44,49.48 4.72,0.6 2.33,-5.93 6.18,-6.19 0.69,10.31 -12.01,7.22 -12.36,16.49 4.21,-0.6 4.03,-5.58 8.24,-6.18 -6.87,20.52 -18.2,34.79 -26.79,57.72 -2.84,0.09 -4.56,-0.95 -6.19,-2.06 3,4.89 4.39,3.86 2.06,10.3 -5.15,-0.34 -8.49,1.03 -10.3,4.13 2.39,0.34 5.83,-0.35 6.18,2.06 -11.76,2.23 -3.35,8.67 -12.37,8.24 27.58,-61.15 70.19,-129.6 65.97,-218.5 0.86,-3.26 6.52,-1.72 4.12,-8.24 -2.05,-0.26 -4.12,8.93 -6.18,2.06 6.86,-18.38 -9.89,-45.1 -6.18,-59.78 -20.02,-36.85 -38.4,-112.77 -88.65,-138.12 34.02,59.61 48.78,159.76 24.74,222.63 4.9,-40.19 18.05,-86.92 0,-121.61 2.4,-0.35 5.84,0.34 6.18,-2.07 -9.7,-16.83 -14.08,-53.76 -22.67,-70.08 -2.75,0 -1.89,3.61 -4.12,4.12 0,-4.9 0.77,-18.13 -4.13,-10.3 -1.2,-13.49 -3.45,-7.65 -2.06,-16.5 -8.33,3.53 -11.17,-16.23 -16.48,-22.67 -9.97,-11.94 -30.67,-20.36 -47.41,-30.92 -24.57,-15.46 -50.08,-32.99 -76.27,-43.29 -68.12,-26.71 -147.65,-35.13 -197.89,-14.43 1.45,-2.83 -12.2,10.56 -16.5,2.06 0,2.06 1.72,2.49 2.06,4.12 -94.31,52.05 -206.47,165.77 -216.43,303.02 -2.76,38.31 0.25,79.62 4.12,107.19 1.88,13.57 1.88,27.57 4.12,39.17 0.09,0.42 4.12,-2.07 4.12,-2.07 9.96,31.35 17.69,70.09 30.93,101.01 2.65,6.19 10.82,11.34 6.18,20.62 7.29,-5.67 14.76,12.45 10.31,18.55 2.91,-0.78 3.51,-2.5 6.17,0 2.5,10.73 12.02,23.19 20.61,30.91 20.45,18.3 54.12,41.66 76.29,51.54 57.71,25.77 135.95,27.14 199.94,18.55 13.22,-11.68 37.87,-9.53 45.35,-30.92 -4.46,-3.09 -5.76,-9.27 -10.31,-12.37 10.49,-2.14 27.22,3.35 26.8,18.55 10.65,-4.03 15.37,-18.03 20.62,-14.42 4.29,-18.21 20.43,-33.93 28.85,-41.23 -1.37,-1.72 1.98,-14.34 10.31,-12.37 -5.5,-6.53 3.87,-12.8 6.17,-12.37 -3.85,-8.07 7.82,-18.2 12.38,-24.73 -12.1,40.1 -44.49,71.37 -59.78,98.94 13.05,-3.69 21.39,-23.7 39.16,-14.43 -20.61,16.15 -42.5,19.41 -57.71,32.98 -9.19,18.3 -34.79,31.18 -41.23,45.35 54.72,-27.74 80.48,-48.09 119.56,-92.75 -7.98,3 -12.1,9.87 -18.55,14.42 1.21,-7.38 -12.28,-0.08 -10.31,-8.24 5.84,3.95 16.33,-1.12 12.37,-6.18 9.01,3.77 6.61,-3.01 14.42,-8.25 2.23,-1.46 11.68,-1.89 14.44,-4.12 3.08,-2.59 3.44,-9.11 6.19,-12.37 14.59,-17.44 39.25,-23.97 49.46,-47.41 3.87,-1.98 6.87,6.18 8.25,0 -5.41,-8.51 13.15,-27.84 20.61,-37.11 -0.6,4.72 5.93,2.32 6.19,6.18 -7.73,1.9 -10.31,16.59 -8.24,18.56 -7.14,4.12 0.16,-0.95 -4.13,-2.06 -10.48,8.5 -6.11,20.01 -18.55,24.73 0.77,-0.43 5.06,1.12 4.12,2.07 -13.75,13.31 -29.19,25.07 -43.3,39.16 -18.45,18.47 -34,39.77 -53.59,57.72 -9.86,9.1 -22.16,14.85 -32.98,22.67 -8.84,6.45 -13.23,15.72 -20.6,20.62 -13.15,8.76 -29.38,10.56 -41.24,20.61 -3.85,0.43 -4.55,-2.32 -8.25,-2.06 -8.67,5.5 -20.68,17.18 -30.91,14.43 -4.3,10.91 -21.98,25.42 -30.92,18.55 13.05,-3.52 22.5,-10.48 28.85,-20.62 -14.42,3.35 -39.5,6.7 -49.46,6.19 -65.03,12.97 -147.48,-42.6 -197.89,-80.39 -21.21,-15.89 -42.52,-39.17 -57.71,-53.6 -7.4,-6.95 -9.63,-11.42 -12.3,-14.26 0,0.86 -2.82,3.01 -4.2,1.9 -7.56,-6.02 -12.45,-20.71 -20.61,-32.99 -19.33,-29.11 -47.93,-64.93 -55.66,-98.95 -1.72,-7.72 1.37,-14.34 0,-20.61 -0.09,-0.43 -4.13,2.07 -4.13,2.07 -4.55,-10.91 -5.75,-38.99 -6.17,-55.66 -1.39,-59.52 15.8,-109.85 28.85,-162.85 12.2,-16.66 22.76,-34.95 28.86,-57.71 81.86,-115.53 175.81,-236.28 379.28,-212.33 6.8,2.24 7.22,3.96 14.44,6.19 7.73,2.32 15.89,0.26 22.67,2.07 25.51,6.87 48.53,19.15 72.15,37.1 10.39,7.81 28.26,10.56 30.92,24.73 0.43,-1.63 1.72,-2.4 4.12,-2.06 74.3,95.94 214.46,143.87 218.51,296.84 -1.56,3.26 -6.54,3.09 -6.2,8.24" /><g
         transform="scale(10)"
         id="g102"><text
           id="text106"
           style="font-variant:normal;font-weight:normal;font-size:12px;font-family:Papyrus;-inkscape-font-specification:Papyrus;writing-mode:lr-tb;fill:#000000;fill-opacity:1;fill-rule:nonzero;stroke:none"
           transform="matrix(1,0,0,-1,448.633,308.232)"><tspan
             id="tspan104"
             y="0"
             x="0 6.7317662 9.2397661 14.112 18.455999 25.164 31.596001 34.236 36.959999 43.294598 49.666595 56.038597">Virtual Peer</tspan></text>
</g><path
         id="path108"
         style="fill:none;stroke:#000000;stroke-width:10;stroke-linecap:round;stroke-linejoin:round;stroke-miterlimit:10;stroke-dasharray:100, 30, 20, 30, 20, 30;stroke-dashoffset:0;stroke-opacity:1"
         d="M 1620,3330 2701.06,4856.39" /><path
         id="path110"
         style="fill:none;stroke:#000000;stroke-width:10;stroke-linecap:butt;stroke-linejoin:miter;stroke-miterlimit:10;stroke-dasharray:none;stroke-opacity:1"
         d="m 2747.29,4921.68 -46.23,-65.29 m -24.49,17.34 70.72,47.95 -21.75,-82.63" /><path
         id="path112"
         style="fill:none;stroke:#000000;stroke-width:10;stroke-linecap:round;stroke-linejoin:round;stroke-miterlimit:10;stroke-dasharray:100, 30, 20, 30, 20, 30;stroke-dashoffset:0;stroke-opacity:1"
         d="M 2790,3330 4515.96,4862.2" /><path
         id="path114"
         style="fill:none;stroke:#000000;stroke-width:10;stroke-linecap:butt;stroke-linejoin:miter;stroke-miterlimit:10;stroke-dasharray:none;stroke-opacity:1"
         d="m 4575.79,4915.3 -59.83,-53.1 m -19.91,22.43 79.74,30.67 -39.91,-75.54" /><path
         id="path116"
         style="fill:none;stroke:#000000;stroke-width:10;stroke-linecap:round;stroke-linejoin:round;stroke-miterlimit:10;stroke-dasharray:100, 30, 20, 30, 20, 30;stroke-dashoffset:0;stroke-opacity:1"
         d="M 3600,3594.64 1967.59,4888.5" /><path
         id="path118"
         style="fill:none;stroke:#000000;stroke-width:10;stroke-linecap:butt;stroke-linejoin:miter;stroke-miterlimit:10;stroke-dasharray:none;stroke-opacity:1"
         d="m 1904.89,4938.19 62.7,-49.69 m -18.64,-23.51 -44.06,73.2 81.33,-26.18" /><path
         id="path120"
         style="fill:none;stroke:#000000;stroke-width:10;stroke-linecap:round;stroke-linejoin:round;stroke-miterlimit:10;stroke-dasharray:100, 30, 20, 30, 20, 30;stroke-dashoffset:0;stroke-opacity:1"
         d="m 4950,3504.64 103.31,1337.04" /><path
         id="path122"
         style="fill:none;stroke:#000000;stroke-width:10;stroke-linecap:butt;stroke-linejoin:miter;stroke-miterlimit:10;stroke-dasharray:none;stroke-opacity:1"
         d="m 5059.47,4921.45 -6.16,-79.77 m -29.91,2.31 36.07,77.46 23.75,-82.08" /><path
         id="path124"
         style="fill:none;stroke:#000000;stroke-width:20;stroke-linecap:butt;stroke-linejoin:miter;stroke-miterlimit:10;stroke-dasharray:none;stroke-opacity:1"
         d="m 1610,2100 c 4.91,61.33 19.14,133.78 1.27,197.58 -21.76,57.3 -89.34,41.84 -140.49,36.28 -88.51,-9.62 -184.03,-10.41 -273.02,-4.01 -52.72,3.79 -105.94,11.89 -158.53,3.22 -49.566,-8.18 -64.976,-38.12 -60.976,-82.31 2.742,-30.3 11.582,-59.62 13.184,-90.05 2.488,-47.38 5.476,-94.75 10.202,-142 2.96,-29.39 9.18,-58.56 8.93,-88.11 -0.23,-26.48 -1.43,-52.93 -0.19,-79.43 0.53,-11.03 -0.28,-34.88 11.15,-42.5 22.45,-14.98 56.63,-18.22 83.2,-21.56 70.68,-8.89 142.64,-2.65 213.64,-6.19 62.48,-3.1 125.04,-6.4 187.51,-2.19 26.26,1.76 52.28,5.63 77.44,12.71 7.77,2.16 19.09,5.13 25.5,10.13 7.25,5.68 4.34,37.02 4.7,45.65 3.46,83.45 -10.75,166.07 -3.52,252.78 z" /><g
         transform="scale(10)"
         id="g126"><text
           id="text130"
           style="font-variant:normal;font-weight:normal;font-size:12px;font-family:Papyrus;-inkscape-font-specification:Papyrus;writing-mode:lr-tb;fill:#000000;fill-opacity:1;fill-rule:nonzero;stroke:none"
           transform="matrix(1,0,0,-1,112.096,203.836)"><tspan
             id="tspan128"
             y="0"
             x="0 4.2745776 10.646578 18.014578 20.654577 23.162577 29.138578">replica</tspan></text>
</g><path
         id="path132"
         style="fill:none;stroke:#000000;stroke-width:20;stroke-linecap:butt;stroke-linejoin:miter;stroke-miterlimit:10;stroke-dasharray:none;stroke-opacity:1"
         d="m 2790,2100 c 7.25,61.33 21.48,133.78 3.61,197.58 -21.76,57.3 -89.34,41.84 -140.49,36.28 -88.51,-9.62 -184.03,-10.41 -273.02,-4.01 -52.72,3.79 -105.94,11.89 -158.53,3.22 -49.56,-8.18 -64.97,-38.12 -60.97,-82.31 2.74,-30.3 11.58,-59.62 13.18,-90.05 2.49,-47.38 5.48,-94.75 10.21,-142 2.95,-29.39 9.18,-58.56 8.92,-88.11 -0.23,-26.48 -1.43,-52.93 -0.19,-79.43 0.53,-11.03 -0.28,-34.88 11.16,-42.5 22.45,-14.98 56.62,-18.22 83.2,-21.56 70.67,-8.89 142.63,-2.65 213.63,-6.19 62.48,-3.1 125.04,-6.4 187.51,-2.19 26.26,1.76 52.28,5.63 77.45,12.71 7.76,2.16 19.08,5.13 25.49,10.13 7.26,5.68 4.34,37.02 4.7,45.65 3.47,83.45 -10.75,166.07 -5.86,252.78 z" /><g
         transform="scale(10)"
         id="g134"><text
           id="text138"
           style="font-variant:normal;font-weight:normal;font-size:12px;font-family:Papyrus;-inkscape-font-specification:Papyrus;writing-mode:lr-tb;fill:#000000;fill-opacity:1;fill-rule:nonzero;stroke:none"
           transform="matrix(1,0,0,-1,230.152,203.836)"><tspan
             id="tspan136"
             y="0"
             x="0 4.632 11.004 18.372 21.011999 23.52 29.496">replica</tspan></text>
</g><path
         id="path140"
         style="fill:none;stroke:#000000;stroke-width:20;stroke-linecap:butt;stroke-linejoin:miter;stroke-miterlimit:10;stroke-dasharray:none;stroke-opacity:1"
         d="m 3970,2100 c 9.6,61.33 23.83,133.78 5.96,197.58 -21.76,57.3 -89.34,41.84 -140.49,36.28 -88.51,-9.62 -184.03,-10.41 -273.02,-4.01 -52.72,3.79 -105.94,11.89 -158.53,3.22 -49.56,-8.18 -64.97,-38.12 -60.97,-82.31 2.74,-30.3 11.58,-59.62 13.18,-90.05 2.49,-47.38 5.48,-94.75 10.21,-142 2.95,-29.39 9.18,-58.56 8.92,-88.11 -0.23,-26.48 -1.43,-52.93 -0.19,-79.43 0.53,-11.03 -0.28,-34.88 11.15,-42.5 22.46,-14.98 56.63,-18.22 83.21,-21.56 70.67,-8.89 142.63,-2.65 213.63,-6.19 62.48,-3.1 125.04,-6.4 187.51,-2.19 26.26,1.76 52.28,5.63 77.45,12.71 7.76,2.16 19.08,5.13 25.49,10.13 7.26,5.68 4.34,37.02 4.7,45.65 3.47,83.45 -10.75,166.07 -8.21,252.78 z" /><g
         transform="scale(10)"
         id="g142"><text
           id="text146"
           style="font-variant:normal;font-weight:normal;font-size:12px;font-family:Papyrus;-inkscape-font-specification:Papyrus;writing-mode:lr-tb;fill:#000000;fill-opacity:1;fill-rule:nonzero;stroke:none"
           transform="matrix(1,0,0,-1,348.387,203.836)"><tspan
             id="tspan144"
             y="0"
             x="0 4.632 11.004 18.372 21.011999 23.52 29.496">replica</tspan></text>
</g><path
         id="path148"
         style="fill:none;stroke:#000000;stroke-width:20;stroke-linecap:butt;stroke-linejoin:miter;stroke-miterlimit:10;stroke-dasharray:none;stroke-opacity:1"
         d="m 5130,2100 c 7.25,61.33 21.48,133.78 3.61,197.58 -21.76,57.3 -89.34,41.84 -140.49,36.28 -88.51,-9.62 -184.03,-10.41 -273.02,-4.01 -52.72,3.79 -105.94,11.89 -158.53,3.22 -49.56,-8.18 -64.97,-38.12 -60.97,-82.31 2.74,-30.3 11.58,-59.62 13.19,-90.05 2.48,-47.38 5.47,-94.75 10.2,-142 2.95,-29.39 9.18,-58.56 8.92,-88.11 -0.23,-26.48 -1.43,-52.93 -0.19,-79.43 0.53,-11.03 -0.27,-34.88 11.15,-42.5 22.46,-14.98 56.63,-18.22 83.21,-21.56 70.67,-8.89 142.63,-2.65 213.63,-6.19 62.48,-3.1 125.04,-6.4 187.51,-2.19 26.26,1.76 52.28,5.63 77.45,12.71 7.76,2.16 19.08,5.13 25.49,10.13 7.26,5.68 4.34,37.02 4.7,45.65 3.47,83.45 -10.75,166.07 -5.86,252.78 z" /><g
         transform="scale(10)"
         id="g150"><text
           id="text154"
           style="font-variant:normal;font-weight:normal;font-size:12px;font-family:Papyrus;-inkscape-font-specification:Papyrus;writing-mode:lr-tb;fill:#000000;fill-opacity:1;fill-rule:nonzero;stroke:none"
           transform="matrix(1,0,0,-1,464.152,203.836)"><tspan
             id="tspan152"
             y="0"
             x="0 4.632 11.004 18.372 21.011999 23.52 29.496">replica</tspan></text>
</g><path
         id="path156"
         style="fill:none;stroke:#000000;stroke-width:10;stroke-linecap:round;stroke-linejoin:round;stroke-miterlimit:10;stroke-dasharray:100, 30, 20, 30, 20, 30;stroke-dashoffset:0;stroke-opacity:1"
         d="m 1297.8,2700 0.43,-265.22" /><path
         id="path158"
         style="fill:none;stroke:#000000;stroke-width:10;stroke-linecap:butt;stroke-linejoin:miter;stroke-miterlimit:10;stroke-dasharray:none;stroke-opacity:1"
         d="m 1298.36,2354.78 -0.13,80 m 30,0.05 -29.87,-80.05 -30.13,79.95" /><path
         id="path160"
         style="fill:none;stroke:#000000;stroke-width:10;stroke-linecap:round;stroke-linejoin:round;stroke-miterlimit:10;stroke-dasharray:100, 30, 20, 30, 20, 30;stroke-dashoffset:0;stroke-opacity:1"
         d="m 2474.12,2713.77 3,-278.97" /><path
         id="path162"
         style="fill:none;stroke:#000000;stroke-width:10;stroke-linecap:butt;stroke-linejoin:miter;stroke-miterlimit:10;stroke-dasharray:none;stroke-opacity:1"
         d="m 2477.98,2354.8 -0.86,80 m 30,0.32 -29.14,-80.32 -30.86,79.68" /><path
         id="path164"
         style="fill:none;stroke:#000000;stroke-width:10;stroke-linecap:round;stroke-linejoin:round;stroke-miterlimit:10;stroke-dasharray:100, 30, 20, 30, 20, 30;stroke-dashoffset:0;stroke-opacity:1"
         d="m 3642.32,2715.08 9.05,-280.25" /><path
         id="path166"
         style="fill:none;stroke:#000000;stroke-width:10;stroke-linecap:butt;stroke-linejoin:miter;stroke-miterlimit:10;stroke-dasharray:none;stroke-opacity:1"
         d="m 3653.95,2354.88 -2.58,79.95 m 29.98,0.97 -27.4,-80.92 -32.57,78.98" /><path
         id="path168"
         style="fill:none;stroke:#000000;stroke-width:10;stroke-linecap:round;stroke-linejoin:round;stroke-miterlimit:10;stroke-dasharray:100, 30, 20, 30, 20, 30;stroke-dashoffset:0;stroke-opacity:1"
         d="m 4801.38,2714.94 8.44,-280.11" /><path
         id="path170"
         style="fill:none;stroke:#000000;stroke-width:10;stroke-linecap:butt;stroke-linejoin:miter;stroke-miterlimit:10;stroke-dasharray:none;stroke-opacity:1"
         d="m 4812.23,2354.87 -2.41,79.96 m 29.99,0.9 -27.58,-80.86 -32.39,79.06" /><path
         id="path172"
         style="fill:#000000;fill-opacity:1;fill-rule:nonzero;stroke:none"
         d="m 5821.12,1747.38 c 143.05,197.42 188.41,416.98 -43.33,580.51 -158.57,111.89 -373.52,165.15 -570.68,207.71 -350.58,75.72 -716.36,102.89 -1076.2,128.45 -683.46,48.57 -1376.2,52.97 -2057.63,-18.2 C 1629.51,2599.5 1164.36,2521.77 771.012,2336.12 547.934,2230.83 329.918,2058.6 363.422,1826.49 398.066,1586.77 700.039,1427.4 940.996,1343.36 1302.57,1217.24 1709,1182.8 2097.11,1172.45 c 466.8,-12.43 936.27,23.25 1395.94,89.89 381.28,55.27 759.34,135.38 1120.58,251.93 266.68,86.03 545.06,196.32 746.54,370.09 20.43,17.64 -28.75,16.62 -40.2,6.77 C 5068.84,1674.5 4702.67,1556.22 4366.68,1463.45 3920.47,1340.2 3453.92,1267 2987.16,1225.49 c -468.3,-41.63 -946.84,-48.06 -1413.63,9.38 -344.94,42.45 -727.776,123.79 -983.089,334.84 -219.648,181.56 -235.66,427.4 -16.761,612.84 304.484,257.96 811.55,345.74 1220.83,406.2 669.13,98.88 1358.08,101.94 2034.53,68.7 401.44,-19.74 806.28,-49.77 1200.8,-116.45 242.1,-40.9 504.42,-98.58 701.39,-229.46 230.78,-153.33 179.19,-375.68 43.21,-563.36 -12.15,-16.78 38.25,-12.43 46.68,-0.8 z" /><path
         id="path174"
         style="fill:#000000;fill-opacity:1;fill-rule:nonzero;stroke:none"
         d="m 4921.48,1402.6 c 26.45,4.43 34.07,-20.18 52.29,-27.62 -18.68,0.09 -28.18,23.55 -52.29,27.62 m -119.57,-293.19 c 20.1,70.9 21.66,168.28 74.72,244.32 5.31,-84.1 -37.49,-167.39 -74.72,-244.32 m 265.25,220.96 c -17.44,-2.04 -27.24,18.5 -44.84,23.36 16.53,1.51 26.48,-18.85 44.84,-23.36 m 74.7,-59.49 c -24.11,0.45 -37.97,25.05 -63.5,31.87 23.5,-0.81 41.1,-23.38 63.5,-31.87 M 4383.51,544.246 c 2.97,-0.441 4.39,-1.773 3.74,-4.246 132,11.863 198.61,75.953 287.66,118.973 1.09,4.168 -4.98,4.257 -7.47,6.382 25.21,-1.421 41.09,21.684 63.5,40.364 40.63,33.91 94.02,84.187 119.54,118.984 7.79,10.719 22.42,33.371 22.42,38.238 0,1.586 -0.8,2.754 -1.58,3.547 -6.18,1.946 -2.46,2.215 0,0 1.27,-0.453 2.97,-0.886 5.31,-1.414 -6.21,5.301 4.84,6.465 7.47,10.606 5.78,9.132 5.29,23.027 11.22,31.882 6.38,9.555 19.61,17.973 26.16,27.622 6.37,9.39 5.12,21.418 11.19,31.871 9.35,16.191 46.86,49.575 26.17,50.975 6.52,4 11.49,-2.91 14.93,4.26 21.8,60.03 65.98,128.44 56.03,203.97 1.09,6.63 -10.72,-5.4 -11.21,2.13 18.53,-0.9 2.03,6.37 11.21,8.49 -11.36,36.47 -14.94,74.54 -37.35,99.86 35.02,-16.2 61.62,-37.1 93.37,-55.24 10.59,0.35 8.72,-7.96 18.71,-2.13 -7.02,-4.07 -0.48,-5.31 0,-10.62 10.27,-4.06 18.19,-9.48 29.86,-12.75 30.19,-17.96 37.84,-49.13 78.47,-50.99 2.65,4.87 3.26,10.89 7.45,14.88 -6.07,8.58 -24.9,9.9 -26.13,21.24 18.83,-8.41 32.67,-19.66 44.84,-31.87 33.76,-7 35.01,-32.49 70.98,-38.24 -27.73,45.5 -110.37,76.05 -160.66,112.6 -21.78,15.94 -36.12,33.9 -63.52,46.75 -31.42,26.37 -85.9,57.18 -130.73,82.86 -13.4,13.63 -9.81,37 -41.09,40.38 -12.3,-3.64 -5.93,-17.9 -7.46,-27.65 -6.57,4.09 -14.03,7.62 -26.17,8.52 -19.92,-8.86 1.72,-27.18 0,-42.51 -1.4,-12.2 -19.76,-20.53 -7.47,-27.6 -26.93,-18.96 -41.25,-50.73 -44.82,-72.24 -5.76,-33.74 -19.61,-94.74 -33.63,-140.23 -19,-61.44 -81.86,-116.42 -74.71,-172.107 12.91,-1.68 14.32,3.195 26.15,2.121 39.08,63.836 87.32,137.496 119.52,218.846 -4.49,4.6 -4.96,5.85 -3.71,8.5 18.52,41.34 44.04,120.83 41.1,182.71 89.95,-46.65 115.64,-125.08 108.32,-214.59 -7.63,-93.13 -73.92,-189.001 -123.25,-269.818 -18.56,-30.273 -49.21,-57.359 -56.05,-87.105 -29.42,-23.379 -48.27,-50.023 -74.71,-74.367 -26.78,-24.613 -55.27,-48.328 -82.2,-72.242 -88.55,-39.653 -149.73,-105.969 -280.18,-114.727 4.84,-9.824 -18.66,-3.535 -11.22,-14.875" /><g
         transform="scale(10)"
         id="g176"><text
           id="text180"
           style="font-variant:normal;font-weight:normal;font-size:22px;font-family:Papyrus;-inkscape-font-specification:Papyrus;writing-mode:lr-tb;fill:#000000;fill-opacity:1;fill-rule:nonzero;stroke:none"
           transform="matrix(1,0,0,-1,344.421,27.5)"><tspan
             id="tspan178"
             y="0"
             x="0 7.8367257 19.518726 32.850727 45.148727 57.226727 70.558723 82.350723 94.428726 102.39272 107.38673 117.77073 125.73473 137.52672 145.49072">redundant state</tspan></text>
</g><path
         id="path182"
         style="fill:#211e1f;fill-opacity:1;fill-rule:nonzero;stroke:none"
         d="m 5901.85,4032.29 c -21.69,-21.88 -76.87,-34.75 -113.22,-48.17 -42.29,-15.67 -75.46,-40.57 -136.18,-42.58 -10.98,-6.11 9.18,-7.59 -6.71,-14.44 -50.26,1.39 -111.44,-21.56 -88.73,-26.59 -81.33,-7.33 -104.1,-39.44 -191.11,-39.56 4.15,-3.12 2.49,-7.09 -3.57,-11.74 -83.88,-16.63 -201.51,-38.65 -299.62,-57.88 -106.91,-20.8 -184.41,-49.3 -263.96,-43.67 -0.7,-4.48 12.45,-0.1 25.9,-2.87 -57.28,-15.77 -130.7,-21.06 -193.6,-33.2 135.43,24.86 243.99,71.39 366.6,108.13 274.67,82.28 595.98,158.9 792,276.53 203.68,122.22 220.84,244.55 96.96,350.26 22.13,15.24 -5.87,23.03 2.17,36.17 -7.15,10.76 -45.48,17.02 -44.65,29.18 299.55,-122.57 515.22,-321.57 57.72,-479.57 M 4596.48,3715.43 c -17.22,-2.29 -34.51,-4.67 -51.6,-7.22 0.25,0.28 0.19,0.6 0.32,0.86 -1.73,0.2 -4.53,0.36 -8.11,0.36 -8.42,-2.61 -20.79,-4.57 -32.47,-6.5 0,-0.08 -0.12,-0.1 -0.18,-0.18 -0.13,0.04 -0.2,0.04 -0.26,0.08 -4.21,-0.69 -8.36,-1.41 -11.8,-2.19 -230.28,-34.37 -471.66,-79.97 -747.74,-100.42 -14.03,-8.8 -27.23,-0.77 -23.98,-12.52 -24.94,15.17 -205.15,-10.96 -282.65,-17.3 -277.35,-22.95 -585.01,-28.4 -852.99,-39.24 -167.95,8.96 -336.23,9.73 -509.48,22.93 -285.96,21.87 -522.17,88.04 -790.02,135.82 -194.37,34.6 -403.465,62.14 -482.946,123.12 -75.844,116.67 -226.39,241 -72.527,381.11 71.187,64.68 267.531,118.05 370.993,180.46 93,10.44 185.5,84.9 298.28,82.3 107.1,30.96 242.59,43.34 365.89,63.65 l 0.89,-0.76 c 14.22,1.57 28.2,3.42 42.17,5.46 -59.58,-13.75 -120.5,-26.48 -172.36,-28.55 l 3.06,-6.87 c 105.96,4.82 225.82,43.41 314.04,59.03 82.16,14.72 170.82,26.13 259.74,36.8 53.52,6.46 128.98,9.99 184.67,19.71 54.48,-1.53 114.83,5.62 167.07,11.01 170.82,17.5 345.54,40.15 531.74,56.51 236.34,20.78 494.3,46.75 743.59,54.34 237.8,7.23 528.61,14.54 812.54,-4.83 330.49,-22.61 733.44,-84.56 1001.16,-147 254.27,-132.36 419.99,-315.36 38.79,-504.8 -4.08,-2.09 0.64,-2.98 5.61,-3.64 -43.51,-0.4 -123.81,-53.07 -184.79,-76.67 -127.39,-49.62 -298.54,-78.75 -358.43,-118.15 -125.34,-17.11 -258.6,-72.41 -319.14,-92.14 -25.7,-5.48 -90.13,-18.47 -132.56,-30.86 15.06,-18.85 -117.68,-11.38 -106.52,-33.71 m -425.53,-74.34 c 30.04,16.42 139.69,21.46 196.66,35.89 -32.34,-14.86 -137.34,-22.97 -196.66,-35.89 m -859.31,-96.16 c 23.8,17.34 150.04,8.44 201.7,23.2 -26.34,-15.63 -140.96,-14.36 -201.7,-23.2 m -256.17,-11.15 c 75.33,8.76 158.58,12.44 241.89,15.76 -81.34,-13.75 -177.85,-13.97 -241.89,-15.76 m -386.5,-5.84 c 235.64,7.33 458.96,22.75 690.07,32.96 -222.75,-15.68 -443.91,-32.45 -690.07,-32.96 m -466.74,9.12 c 55.56,9.26 148.12,-6.02 217.33,-5.83 -60.02,-6.09 -147.86,5.87 -217.33,5.83 m -940.63,46.26 c -188.37,34.84 -378.909,109.85 -509.354,168.51 -214.652,96.53 -268.742,222.56 -128.41,366.08 27.496,-10.37 9.375,-25.18 6.316,-37.12 -14.988,-63.42 32.66,-117.11 76.039,-181.29 42.481,-62.83 83.239,-122.95 251.196,-164.26 108.763,-26.67 284.953,-52.97 447.613,-85.86 254.39,-51.32 492.76,-107.36 794.17,-115.02 -312.7,-0.58 -682.22,1.64 -937.57,48.96 m -296.936,791.16 c 55.106,12.12 175.676,33.56 232.316,50.17 -124.65,-57.12 -265.492,-99.2 -392.625,-163.52 -1.527,-1.99 -2.671,-3.74 -3.761,-5.01 -1.59,0.3 -3.442,0.5 -5.039,0.56 -3.446,-1.65 -6.571,-3.34 -9.692,-5.01 -11.23,3 -1.789,5.88 9.692,5.01 3.066,1.55 5.808,3.02 8.8,4.45 16.973,24.16 63.731,92.03 160.309,113.35 m 942.676,272.02 c 99.37,7.85 224.34,37.77 339.8,50.41 54.54,1.55 -58.18,-7.97 -35.73,-14.25 -186.71,-17.54 -368.95,-78.19 -555.53,-111.53 -80.44,-46.85 -285.97,-68.75 -352.24,-112.76 -3.7,-2.48 9.12,-3.39 14.22,-4.59 -6,-3.14 -20.41,-0.79 -17.29,1.91 -103.91,-28.47 -206.55,-39.88 -300.31,-66.94 208.59,111.82 617.15,184.87 907.08,257.75 m 977.05,122.59 c 8.93,5.33 18.63,-6.49 37.7,-1.13 246.29,23.84 503.74,40.4 764,55.12 4.14,-3.1 21.87,-4.17 19.71,-8.25 81.2,24.92 372.34,-0.17 456.28,7.24 23.47,5 14.86,-4.67 5.87,-3.68 104.73,-14.6 308.1,-14.46 444.99,-27.94 396.19,-39.08 701.23,-87.58 961.36,-182.04 -282.52,52.32 -792.57,127.88 -1138.76,128.85 -174.72,8.79 -464.38,9.84 -662.38,-8.72 -271.55,-0.72 -511.84,-34.33 -781.23,-53.23 3.77,-8.01 -47.9,-2.05 -20.98,-9.82 -3.77,-5.78 -24.18,3.3 -22.9,5.57 -72.02,-10.14 -136,-19 -218.93,-21.33 -52.24,-14.44 -69.91,-16.41 -158.07,-18.93 -30.17,-12.51 -100.14,-10.27 -157.36,-19.57 l -7.34,3.97 c -103.08,-13.91 -219.3,-22.05 -328.06,-35.32 -111.38,-13.67 -211.15,-40.8 -312.5,-52.62 -140.98,-12.42 -252.99,-43.51 -391.86,-58.44 432.05,143.88 963.91,247.14 1510.46,300.27 m 132.55,30.86 c 36.61,-6.32 81.46,13.12 137.02,9.12 6.31,5.61 58.62,4.89 41.27,10.61 59.52,-1.53 146.91,15.74 230.15,14.01 19.9,5.01 24.18,3.02 24.05,12.52 6.95,-2.8 1.98,-7.17 19.71,-8.27 447.8,31.56 1081.16,-21.99 1584.13,-62.76 9.12,-1.64 1.6,-3.2 -3.12,-2.71 98.17,-20.68 301.21,-39.84 387.71,-70.1 10.14,-3.53 19.39,-3.56 8.09,-10.01 64.75,-1.47 131.41,-23.49 168.8,-39.88 48.98,-21.46 89.36,-51.58 96.82,-77.43 -147.47,59.01 -342.1,129.69 -622.26,171.89 -467.89,70.52 -944.45,87.52 -1347.15,91.2 -14.74,-2.94 -39.68,0.84 -46.95,-6.97 -287.12,1.27 -543.16,-42.72 -795.45,-48.62 -2.81,-5.98 -13.9,-6.54 -20.92,-9.8 -23.86,16.15 130.96,15.97 138.1,27.2 m 2961.4,-324.15 c 4.65,-0.52 12.18,1.07 3.06,2.7 -119.92,41.07 -211.52,82.14 -241.06,138.87 -56.45,12.18 -59.51,34.75 -98.48,50.33 -273.98,109 -929.22,150.41 -1327.52,176.98 -13.97,-4.13 15.75,-11.84 -12.24,-10.77 4.65,5.16 4.46,9.61 -4.98,12.68 -316.78,22.61 -766.81,15.81 -1106.93,-14.21 -19.01,-7.39 -41.91,-12.2 -47.46,-16.02 -41.97,4.04 -95.17,-3.75 -136.95,-9.12 -194.88,-24.99 -394.73,-65.09 -582.27,-75.2 -12.76,-10.47 -51.8,-3.76 -64.74,-14.09 -19.2,3.14 -33.68,3.22 -46.38,2.09 -211.01,-26.11 -415.64,-66.83 -592.53,-101.38 -141.87,-35.5 -327.62,-83.49 -489.39,-121.86 -3.77,-10.45 -34.32,-10.89 -21.49,-18.87 -29.61,-1.77 -77.32,-11.67 -99.84,-19.3 -102.06,-34.73 -169.163,-77.23 -238.82,-107.09 -37.574,4.78 -112.144,-24.01 -132.554,-30.84 -6.125,7.11 -25.899,-1.45 -6.125,-5.41 -40.633,7.03 -90.2,-15.44 -105.95,-24.7 0.575,2.35 5.551,5.35 -2.554,6.36 -366.852,-102.68 -654.2815,-277.7 -481.735,-423.02 103.274,-60.09 247.754,-125.96 480.844,-159.3 -532.7655,96.91 -652.8827,294.97 -323.601,451.34 66.144,31.35 167.312,58.48 220.386,90.91 13.715,-7.59 10.528,-0.4 29.086,-0.18 10.02,5.98 29.598,9.26 18.434,16.17 112.59,17.27 191.054,56.75 306.258,72.33 -89.625,-40.26 -98.434,-89.99 -156.414,-137.4 -33.301,-27.19 -80.883,-51.11 -112.461,-81.63 -62.7,-61.2 -87.258,-124.08 -104.223,-185.66 42.16,-120.55 216.434,-205.15 432.289,-287.39 19.328,-3.02 29.727,-9.24 51.93,-5.74 13.457,-17.79 124.19,-50.26 213.5,-69.09 52.3,-11.07 133.51,-22.45 164.32,-18.16 15.94,-11.37 86.56,-17.41 158.25,-23.53 171.22,-14.62 376.75,-14.84 594.01,-17.08 218.99,-2.33 449.71,-10.68 661.29,-9.39 444.81,2.57 868.24,42.62 1178.64,94.29 414.88,56.15 829.51,112.72 1199.42,198.12 127.7,21.28 267.72,48.78 396.96,83.55 76.48,20.48 137.46,50.15 213.75,76.48 137.14,47.4 279.01,98.61 360.67,154.29 199.46,135.96 6.5,251.56 -146.4,358.94" /><path
         id="path184"
         style="fill:#000000;fill-opacity:1;fill-rule:nonzero;stroke:none"
         d="m 5933.77,3914.77 c -17.95,3.93 -23.13,-17.89 -35.5,-24.48 12.68,0.08 19.13,20.87 35.5,24.48 m 81.18,-259.94 c -13.65,62.86 -14.71,149.2 -50.73,216.62 -3.61,-74.57 25.46,-148.41 50.73,-216.62 m -180.08,195.9 c 11.84,-1.8 18.49,16.41 30.44,20.72 -11.22,1.34 -17.98,-16.71 -30.44,-20.72 m -50.72,-52.74 c 16.37,0.4 25.78,22.21 43.12,28.25 -15.96,-0.71 -27.91,-20.72 -43.12,-28.25 M 6299,3153.77 c -2.02,-0.4 -2.98,-1.58 -2.54,-3.77 -89.61,10.52 -134.83,67.34 -195.29,105.48 -0.74,3.7 3.38,3.78 5.07,5.66 -17.12,-1.26 -27.89,19.22 -43.11,35.78 -27.59,30.07 -63.83,74.64 -81.16,105.49 -5.29,9.51 -15.22,29.59 -15.22,33.91 0,1.41 0.54,2.44 1.07,3.14 4.2,1.73 1.68,1.97 0,0 -0.86,-0.4 -2.02,-0.78 -3.6,-1.25 4.22,4.7 -3.29,5.73 -5.07,9.4 -3.93,8.1 -3.6,20.42 -7.62,28.27 -4.33,8.47 -13.31,15.93 -17.76,24.49 -4.32,8.32 -3.47,18.99 -7.59,28.25 -6.35,14.36 -31.82,43.96 -17.77,45.2 -4.43,3.55 -7.8,-2.59 -10.14,3.77 -14.8,53.23 -44.8,113.88 -38.04,180.84 -0.74,5.89 7.28,-4.79 7.61,1.89 -12.58,-0.79 -1.38,5.65 -7.61,7.53 7.71,32.33 10.15,66.09 25.36,88.53 -23.78,-14.36 -41.84,-32.89 -63.39,-48.97 -7.19,0.31 -5.92,-7.05 -12.7,-1.89 4.76,-3.61 0.32,-4.71 0,-9.41 -6.98,-3.6 -12.36,-8.41 -20.28,-11.31 -20.49,-15.92 -25.69,-43.56 -53.27,-45.2 -1.8,4.31 -2.22,9.65 -5.06,13.18 4.12,7.61 16.91,8.78 17.74,18.84 -12.78,-7.46 -22.18,-17.43 -30.43,-28.26 -22.93,-6.2 -23.78,-28.8 -48.2,-33.9 18.82,40.33 74.93,67.42 109.07,99.83 14.79,14.13 24.52,30.06 43.13,41.44 21.33,23.39 58.32,50.7 88.75,73.47 9.1,12.09 6.66,32.8 27.9,35.8 8.35,-3.23 4.02,-15.88 5.07,-24.51 4.45,3.62 9.52,6.75 17.76,7.55 13.53,-7.85 -1.16,-24.1 0,-37.68 0.95,-10.82 13.41,-18.21 5.07,-24.48 18.29,-16.81 28,-44.98 30.43,-64.05 3.91,-29.91 13.31,-83.99 22.84,-124.32 12.89,-54.47 55.57,-103.22 50.71,-152.59 -8.76,-1.49 -9.72,2.83 -17.75,1.88 -26.53,56.59 -59.28,121.9 -81.15,194.02 3.06,4.09 3.38,5.19 2.53,7.54 -12.58,36.66 -29.9,107.13 -27.91,162 -61.06,-41.37 -78.51,-110.9 -73.54,-190.26 5.18,-82.57 50.19,-167.57 83.68,-239.22 12.6,-26.84 33.41,-50.86 38.05,-77.23 19.97,-20.72 32.77,-44.35 50.72,-65.93 18.19,-21.83 37.53,-42.85 55.81,-64.05 60.12,-35.16 101.65,-93.95 190.22,-101.72 -3.29,-8.71 12.67,-3.13 7.61,-13.18" /><g
         transform="scale(10)"
         id="g186"><text
           id="text190"
           style="font-variant:normal;font-weight:normal;font-size:22px;font-family:Papyrus;-inkscape-font-specification:Papyrus;writing-mode:lr-tb;fill:#000000;fill-opacity:1;fill-rule:nonzero;stroke:none"
           transform="matrix(1,0,0,-1,614.627,288.5)"><tspan
             id="tspan188"
             y="0"
             x="0 7.8367257 19.518726 32.850727 45.148727 57.226727 70.558723 82.350723 94.428726 102.39272 107.38673 117.77073 130.92673 141.88272 153.72388 165.40588 173.36989">redundant sockets</tspan></text>
</g></g></g></svg>