<?xml version="1.0" encoding="UTF-8" standalone="no"?>
<svg
   xmlns:dc="http://purl.org/dc/elements/1.1/"
   xmlns:cc="http://creativecommons.org/ns#"
   xmlns:rdf="http://www.w3.org/1999/02/22-rdf-syntax-ns#"
   xmlns:svg="http://www.w3.org/2000/svg"
   xmlns="http://www.w3.org/2000/svg"
   viewBox="0 0 1008 612"
   height="612"
   width="1008"
   xml:space="preserve"
   id="svg2"
   version="1.1"><metadata
     id="metadata8"><rdf:RDF><cc:Work
         rdf:about=""><dc:format>image/svg+xml</dc:format><dc:type
           rdf:resource="http://purl.org/dc/dcmitype/StillImage" /></cc:Work></rdf:RDF></metadata><defs
     id="defs6" /><g
     transform="matrix(1.3333333,0,0,-1.3333333,0,612)"
     id="g10"><g
       transform="scale(0.1)"
       id="g12"><path
         id="path14"
         style="fill:#ffffff;fill-opacity:1;fill-rule:nonzero;stroke:none"
         d="m 2304.54,4492.56 -3.15,-259.93 c -1.02,-27.13 15.32,-184.59 15.32,-184.59 l -39.19,-4.16 -222.65,-11.59 -144.61,6.64 -2,47.02 -9.36,172.11 0.97,226.58 26.11,2.04 139.52,-2.56 z" /><path
         id="path16"
         style="fill:#000000;fill-opacity:1;fill-rule:nonzero;stroke:none"
         d="m 2294.73,4491.91 c -1.42,-150.43 -3.16,-296.68 12.32,-446.46 3.48,3.32 6.96,6.64 10.44,9.96 -99.96,-10.59 -205.62,-18.29 -302.81,-13.82 -31.27,1.43 -62.54,2.87 -93.81,4.3 -11.49,0.54 -1.13,1.36 -0.89,-4.28 -0.3,7.16 -0.61,14.32 -0.91,21.48 -0.38,8.8 -0.68,17.61 -1.16,26.41 -3.07,56.41 -6.13,112.82 -9.2,169.23 -3.08,56.52 0.48,114.16 0.73,170.77 0.06,14.18 0.12,28.37 0.18,42.55 0.08,19.29 -9.23,5.33 2.53,6.25 25.84,2 51.93,0.29 77.83,-0.18 104.71,-1.91 209.12,3.38 313.78,7.08 11.2,0.39 14.69,15.21 1.56,14.75 -73.78,-2.61 -147.56,-5.22 -221.34,-7.83 -61.11,-2.14 -122.34,4.65 -183.34,-0.1 -3.98,-0.31 -10.56,-3.11 -10.58,-8.02 -0.64,-149.34 4.04,-296.59 10.39,-445.71 0.16,-3.63 2.72,-6.47 6.54,-6.65 136.94,-6.28 272.31,-5.44 408.95,9.02 5.41,0.57 11.06,3.91 10.43,9.96 -15.35,148.45 -13.43,293.54 -12.02,442.61 0.1,10.47 -19.53,7.82 -19.62,-1.32 z" /><path
         id="path18"
         style="fill:#000000;fill-opacity:1;fill-rule:nonzero;stroke:none"
         d="m 2104.89,4397.86 h 15.35 c -1.28,-20.16 -1.43,-41.2 -0.48,-63.12 0.97,-21.92 2.41,-44.24 4.33,-66.95 1.91,-22.73 3.99,-45.54 6.24,-68.41 2.23,-22.88 3.99,-45.52 5.27,-67.92 -0.95,-2.56 -2.08,-3.92 -3.36,-4.08 -1.28,-0.16 -3.04,-0.24 -5.27,-0.24 -6.08,-1.6 -9.77,-0.16 -11.04,4.32 0,19.2 -0.73,40.4 -2.16,63.6 -1.45,23.21 -3.05,45.92 -4.81,68.16 -1.76,22.24 -3.44,42.8 -5.04,61.68 -1.6,18.89 -2.72,33.6 -3.36,44.16 0,2.56 -0.16,5.68 -0.47,9.37 -0.33,3.68 -0.57,7.11 -0.73,10.32 -0.16,3.2 0.08,5.75 0.73,7.68 0.63,1.91 2.23,2.39 4.8,1.43 z" /><path
         id="path20"
         style="fill:#ffffff;fill-opacity:1;fill-rule:nonzero;stroke:none"
         d="m 2829.09,4492.56 -3.16,-259.93 c -1.01,-27.13 15.33,-184.59 15.33,-184.59 l -39.19,-4.16 -222.66,-11.59 -144.6,6.64 -2,47.02 -9.36,172.11 0.96,226.58 26.12,2.04 139.52,-2.56 z" /><path
         id="path22"
         style="fill:#000000;fill-opacity:1;fill-rule:nonzero;stroke:none"
         d="m 2819.28,4491.91 c -1.42,-150.43 -3.17,-296.68 12.32,-446.46 3.48,3.32 6.96,6.64 10.44,9.96 -99.96,-10.59 -205.62,-18.29 -302.81,-13.82 -31.27,1.43 -62.54,2.87 -93.81,4.3 -11.49,0.54 -1.13,1.36 -0.89,-4.28 -0.3,7.16 -0.61,14.32 -0.91,21.48 -0.38,8.8 -0.68,17.61 -1.16,26.41 -3.07,56.41 -6.13,112.82 -9.2,169.23 -3.08,56.52 0.48,114.16 0.72,170.77 0.07,14.18 0.12,28.36 0.18,42.55 0.09,19.29 -9.23,5.33 2.53,6.25 25.85,2 51.94,0.29 77.84,-0.18 104.71,-1.91 209.12,3.38 313.78,7.08 11.2,0.39 14.69,15.21 1.56,14.75 -73.78,-2.61 -147.56,-5.22 -221.34,-7.83 -61.11,-2.14 -122.35,4.65 -183.34,-0.1 -3.98,-0.31 -10.56,-3.11 -10.59,-8.02 -0.63,-149.34 4.05,-296.59 10.4,-445.71 0.16,-3.63 2.72,-6.47 6.54,-6.65 136.94,-6.28 272.31,-5.44 408.95,9.02 5.41,0.57 11.06,3.91 10.43,9.96 -15.35,148.45 -13.43,293.54 -12.02,442.61 0.1,10.47 -19.53,7.82 -19.62,-1.32 z" /><path
         id="path24"
         style="fill:#000000;fill-opacity:1;fill-rule:nonzero;stroke:none"
         d="m 2637.83,4403.38 c 4.16,-3.53 6.16,-10.4 6,-20.64 -0.16,-10.24 -1.61,-22.64 -4.32,-37.2 -2.72,-14.57 -6.32,-30.56 -10.8,-48 -4.48,-17.45 -9.12,-35.2 -13.92,-53.28 -4.8,-18.08 -9.36,-35.68 -13.68,-52.8 -4.32,-17.12 -7.61,-32.72 -9.84,-46.8 8.64,4.15 18.64,9.84 30,17.04 11.35,7.2 22.72,14.96 34.08,23.28 11.36,8.32 22.08,16.72 32.16,25.2 10.08,8.47 18.32,16.08 24.72,22.8 2.23,0 3.84,-0.72 4.8,-2.16 0.96,-1.44 1.6,-3.28 1.92,-5.52 0.32,-2.24 0.39,-4.64 0.24,-7.2 -0.17,-2.57 -0.24,-4.96 -0.24,-7.2 -21.12,-16.96 -42.8,-33.12 -65.04,-48.48 -22.24,-15.36 -45.36,-30.08 -69.36,-44.16 -3.53,-1.6 -6.16,-2.23 -7.92,-1.92 -1.76,0.32 -3.44,1.76 -5.04,4.32 1.92,15.04 4.87,31.68 8.88,49.92 4,18.24 8.4,36.72 13.2,55.44 4.8,18.72 9.52,37.03 14.16,54.96 4.64,17.92 8.48,34.15 11.52,48.72 3.04,14.56 4.8,26.72 5.28,36.48 0.49,9.76 -1.04,15.92 -4.56,18.48 -0.65,2.24 -4.24,1.12 -10.8,-3.36 -6.57,-4.48 -14,-10.97 -22.32,-19.44 -8.33,-8.48 -16.32,-18.08 -24,-28.8 -7.68,-10.72 -12.81,-21.36 -15.36,-31.92 -1.92,-0.65 -3.28,-0.96 -4.08,-0.96 -0.8,0 -1.6,0.07 -2.4,0.24 -0.8,0.16 -1.68,0.31 -2.64,0.48 -0.96,0.16 -2.4,0.24 -4.32,0.24 -1.92,5.76 0.16,13.44 6.24,23.04 6.07,9.6 13.6,19.52 22.56,29.76 8.95,10.24 18.07,19.76 27.36,28.56 9.28,8.8 16.32,15.44 21.12,19.92 4.15,2.56 8.24,4.48 12.24,5.76 3.99,1.27 8.71,-0.32 14.16,-4.8 z" /><path
         id="path26"
         style="fill:#ffffff;fill-opacity:1;fill-rule:nonzero;stroke:none"
         d="m 3384.54,4492.56 -3.15,-259.93 c -1.02,-27.15 15.32,-184.61 15.32,-184.61 l -39.19,-4.14 -222.65,-11.59 -144.61,6.64 -2,47 -9.36,172.14 0.97,226.57 26.11,2.04 139.52,-2.56 z" /><path
         id="path28"
         style="fill:#000000;fill-opacity:1;fill-rule:nonzero;stroke:none"
         d="m 3374.73,4491.91 c -1.42,-150.43 -3.16,-296.68 12.32,-446.46 3.48,3.32 6.96,6.64 10.44,9.96 -99.97,-10.57 -205.62,-18.29 -302.81,-13.84 -31.27,1.45 -62.54,2.88 -93.81,4.32 -11.49,0.52 -1.13,1.36 -0.89,-4.28 -0.3,7.16 -0.61,14.32 -0.91,21.48 -0.38,8.8 -0.68,17.61 -1.16,26.41 -3.07,56.41 -6.13,112.82 -9.2,169.23 -3.08,56.52 0.48,114.18 0.73,170.77 0.06,14.19 0.12,28.37 0.18,42.55 0.08,19.29 -9.23,5.33 2.53,6.25 25.84,2 51.93,0.29 77.83,-0.18 104.71,-1.91 209.12,3.38 313.78,7.08 11.2,0.39 14.69,15.21 1.56,14.75 -73.78,-2.61 -147.56,-5.22 -221.34,-7.83 -61.11,-2.14 -122.34,4.65 -183.34,-0.09 -3.98,-0.32 -10.56,-3.12 -10.58,-8.03 -0.64,-149.34 4.04,-296.59 10.39,-445.72 0.16,-3.62 2.72,-6.46 6.54,-6.64 136.95,-6.3 272.3,-5.43 408.95,9.02 5.41,0.57 11.06,3.89 10.43,9.96 -15.35,148.43 -13.43,293.54 -12.02,442.61 0.1,10.47 -19.53,7.82 -19.62,-1.32 z" /><path
         id="path30"
         style="fill:#000000;fill-opacity:1;fill-rule:nonzero;stroke:none"
         d="m 3205.07,4383.78 c 1.28,-5.12 1.52,-10.24 0.73,-15.36 -0.82,-5.12 -2.18,-10.01 -4.09,-14.64 -1.91,-4.64 -4.39,-9.12 -7.43,-13.45 -3.05,-4.31 -6.16,-8.24 -9.36,-11.76 -7.69,-8.63 -16.65,-16.64 -26.88,-23.99 9.6,4.48 19.51,7.2 29.75,8.16 10.25,0.95 20,0.24 29.28,-2.16 9.29,-2.4 17.84,-6.32 25.69,-11.76 7.84,-5.44 13.99,-12.48 18.47,-21.12 6.41,-12.48 8.81,-26.4 7.21,-41.76 -1.6,-15.36 -6.64,-30.32 -15.12,-44.88 -8.48,-14.57 -20.16,-27.77 -35.04,-39.59 -14.89,-11.86 -32.24,-20.34 -52.08,-25.45 -6.74,-1.92 -13.52,-3.36 -20.4,-4.32 -6.88,-0.96 -12.96,-1.68 -18.25,-2.17 -5.27,-0.47 -9.59,-0.71 -12.95,-0.71 -3.37,0 -5.05,0.32 -5.05,0.97 l 6.25,10.07 c 22.08,1.6 41.43,6.16 58.08,13.68 16.63,7.52 30.56,16.64 41.76,27.36 11.2,10.72 19.52,22.24 24.96,34.56 5.44,12.31 8,24.24 7.68,35.76 -0.32,11.52 -3.6,21.92 -9.84,31.2 -6.24,9.28 -15.6,16 -28.08,20.16 -9.28,3.19 -18.48,4.32 -27.6,3.36 -9.14,-0.96 -17.76,-2.97 -25.92,-6 -8.16,-3.04 -15.61,-6.48 -22.32,-10.32 -6.73,-3.84 -12.16,-7.04 -16.32,-9.6 -1.92,-0.64 -3.13,0.63 -3.6,3.84 -0.48,3.19 -0.09,6.55 1.2,10.09 10.56,6.71 20.64,14.22 30.24,22.55 9.6,8.32 17.76,16.64 24.48,24.97 6.71,8.31 11.76,16.38 15.12,24.23 3.36,7.84 4.07,14.48 2.15,19.92 -1.91,5.44 -5.36,9.43 -10.31,12 -4.97,2.56 -11.04,2.95 -18.25,1.2 -7.19,-1.76 -15.11,-6.08 -23.75,-12.96 -8.64,-6.88 -17.44,-16.88 -26.41,-30 l -3.84,1.92 c -2.23,1.27 -3.2,2.24 -2.87,2.88 8.64,15.36 18.48,27.51 29.52,36.48 11.04,8.95 21.6,14.72 31.67,17.28 10.07,2.56 18.97,2.07 26.65,-1.44 7.68,-3.53 12.62,-9.92 14.87,-19.2 z" /><path
         id="path32"
         style="fill:#ffffff;fill-opacity:1;fill-rule:nonzero;stroke:none"
         d="m 3924.55,4492.56 -3.16,-259.93 c -1.01,-27.15 15.33,-184.61 15.33,-184.61 l -39.19,-4.14 -222.66,-11.59 -144.6,6.64 -2,47 -9.36,172.14 0.96,226.57 26.12,2.04 139.52,-2.56 z" /><path
         id="path34"
         style="fill:#000000;fill-opacity:1;fill-rule:nonzero;stroke:none"
         d="m 3914.74,4491.91 c -1.42,-150.43 -3.17,-296.68 12.32,-446.46 3.48,3.32 6.96,6.64 10.44,9.96 -99.97,-10.57 -205.62,-18.29 -302.81,-13.84 l -93.81,4.32 c -11.49,0.52 -1.13,1.36 -0.89,-4.28 -0.3,7.16 -0.61,14.32 -0.91,21.48 -0.38,8.8 -0.68,17.61 -1.16,26.41 -3.07,56.41 -6.13,112.82 -9.2,169.23 -3.08,56.52 0.48,114.16 0.72,170.77 0.07,14.19 0.12,28.37 0.18,42.55 0.09,19.29 -9.23,5.33 2.53,6.25 25.85,2 51.94,0.29 77.84,-0.18 104.71,-1.91 209.12,3.38 313.78,7.08 11.2,0.39 14.69,15.21 1.56,14.75 -73.78,-2.61 -147.56,-5.22 -221.34,-7.83 -61.11,-2.14 -122.35,4.65 -183.34,-0.1 -3.98,-0.31 -10.56,-3.11 -10.59,-8.02 -0.63,-149.34 4.05,-296.59 10.4,-445.73 0.16,-3.61 2.72,-6.45 6.54,-6.63 136.95,-6.3 272.3,-5.43 408.95,9.02 5.41,0.57 11.06,3.89 10.43,9.96 -15.35,148.43 -13.43,293.54 -12.02,442.61 0.1,10.47 -19.53,7.82 -19.62,-1.32 z" /><path
         id="path36"
         style="fill:#000000;fill-opacity:1;fill-rule:nonzero;stroke:none"
         d="m 3751.55,4401.48 c 0.32,-3.53 0.32,-9.05 0,-16.56 -0.32,-7.53 -0.71,-16.64 -1.19,-27.36 -0.48,-10.73 -1.13,-22.64 -1.92,-35.76 -0.8,-13.12 -1.36,-26.88 -1.67,-41.29 6.39,0.97 11.67,2.01 15.83,3.13 4.16,1.11 7.68,1.2 10.56,0.23 2.55,-1.27 4.55,-3.43 6,-6.48 1.44,-3.03 1.2,-5.83 -0.72,-8.39 -6.71,-0.65 -12.89,-2 -18.48,-4.08 -5.6,-2.08 -10.64,-3.92 -15.12,-5.52 -0.64,-11.52 -1.04,-25.44 -1.2,-41.76 -0.18,-16.33 -0.32,-32.25 -0.48,-47.76 -0.16,-15.52 -0.56,-29.37 -1.2,-41.52 -0.64,-12.16 -1.76,-20.16 -3.36,-24 -0.64,-0.65 -1.92,-1.03 -3.84,-1.2 -1.92,-0.16 -4,-0.16 -6.24,0 -2.24,0.17 -4.16,0.39 -5.76,0.71 -1.6,0.33 -2.4,0.81 -2.4,1.45 0.97,4.49 2,11.83 3.12,22.07 1.12,10.25 2.16,22.23 3.12,36.01 0.97,13.75 1.76,28.71 2.4,44.88 0.64,16.16 0.96,32.23 0.96,48.24 -4.48,-0.97 -10.8,-2.73 -18.96,-5.28 -8.16,-2.56 -16.56,-5.04 -25.2,-7.45 -8.63,-2.4 -16.88,-4.55 -24.72,-6.47 -7.85,-1.92 -13.69,-2.57 -17.53,-1.92 1.93,8.31 4.33,16.79 7.21,25.45 2.88,8.63 5.84,17.27 8.88,25.91 3.04,8.64 5.91,17.35 8.64,26.16 2.7,8.79 4.88,17.83 6.48,27.12 0.95,2.88 2.88,5.1 5.76,6.72 2.89,1.59 7.51,1.59 13.92,0 0.31,-2.24 -0.96,-7.6 -3.84,-16.08 -2.89,-8.49 -6.16,-17.69 -9.84,-27.61 -3.68,-9.93 -7.37,-19.52 -11.05,-28.79 -3.67,-9.28 -6.16,-15.84 -7.43,-19.68 12.16,2.55 23.84,5.52 35.04,8.88 11.2,3.36 22.23,7.11 33.12,11.28 0.95,14.72 1.92,29.19 2.88,43.44 0.96,14.23 1.76,27.04 2.39,38.4 0.64,11.35 1.05,20.79 1.21,28.32 0.16,7.51 -0.24,11.92 -1.21,13.2 0,0.64 0.41,1.5 1.21,2.64 0.79,1.12 1.84,1.99 3.13,2.64 1.27,0.64 2.87,0.88 4.79,0.72 1.93,-0.16 4.16,-1.04 6.71,-2.64 z" /><path
         id="path38"
         style="fill:#ffffff;fill-opacity:1;fill-rule:nonzero;stroke:none"
         d="m 4464.54,4492.57 -3.15,-259.93 c -1.02,-27.16 15.32,-184.62 15.32,-184.62 l -39.19,-4.13 -222.65,-11.6 -144.61,6.64 -2,47 -9.36,172.14 0.97,226.57 26.11,2.04 139.52,-2.56 z" /><path
         id="path40"
         style="fill:#000000;fill-opacity:1;fill-rule:nonzero;stroke:none"
         d="m 4454.73,4491.92 c -1.42,-150.46 -3.17,-296.69 12.32,-446.47 3.48,3.32 6.96,6.64 10.44,9.96 -99.97,-10.56 -205.62,-18.29 -302.81,-13.83 -31.27,1.43 -62.54,2.87 -93.81,4.3 -11.49,0.53 -1.13,1.35 -0.89,-4.27 -0.3,7.16 -0.61,14.31 -0.91,21.48 -0.38,8.8 -0.68,17.61 -1.16,26.41 -3.07,56.39 -6.13,112.8 -9.2,169.23 -3.08,56.52 0.48,114.16 0.73,170.77 0.06,14.19 0.12,28.37 0.18,42.55 0.08,19.27 -9.23,5.33 2.53,6.25 25.84,2 51.93,0.3 77.83,-0.18 104.71,-1.91 209.12,3.39 313.78,7.08 11.2,0.39 14.69,15.22 1.56,14.75 -73.78,-2.6 -147.56,-5.22 -221.34,-7.83 -61.11,-2.14 -122.34,4.65 -183.34,-0.09 -3.98,-0.32 -10.56,-3.12 -10.58,-8.03 -0.64,-149.36 4.04,-296.59 10.39,-445.72 0.16,-3.62 2.72,-6.47 6.54,-6.64 136.95,-6.29 272.3,-5.43 408.95,9.02 5.41,0.57 11.06,3.89 10.43,9.96 -15.35,148.43 -13.43,293.55 -12.02,442.61 0.1,10.47 -19.53,7.82 -19.62,-1.31 z" /><path
         id="path42"
         style="fill:#000000;fill-opacity:1;fill-rule:nonzero;stroke:none"
         d="m 4313.56,4408.04 c 0.96,-0.97 1.99,-2.33 3.12,-4.09 1.12,-1.77 1.92,-3.61 2.4,-5.52 0.48,-1.91 0.72,-3.59 0.72,-5.04 0,-1.44 -0.64,-2.32 -1.92,-2.64 -8.97,0.32 -17.85,-0.23 -26.64,-1.68 -8.8,-1.43 -17.6,-3.28 -26.4,-5.52 -8.81,-2.25 -17.61,-4.55 -26.41,-6.96 -8.8,-2.39 -17.67,-4.41 -26.63,-6 -1.92,-3.52 -3.37,-8.48 -4.32,-14.87 -0.96,-6.4 -1.44,-12.81 -1.44,-19.2 0,-6.41 0.39,-12.09 1.2,-17.05 0.79,-4.97 1.68,-7.9 2.64,-8.88 9.6,-1.61 19.28,-3.68 29.04,-6.23 9.76,-2.57 19.2,-5.7 28.32,-9.36 9.11,-3.7 17.59,-7.69 25.44,-12 7.83,-4.34 14.64,-9.05 20.4,-14.16 10.87,-9.61 17.91,-19.68 21.11,-30.25 3.2,-10.55 3.92,-20.64 2.16,-30.23 -1.75,-9.61 -5.36,-18.41 -10.79,-26.41 -5.45,-8 -11.21,-14.4 -17.28,-19.2 -7.68,-5.75 -16.8,-10.48 -27.37,-14.16 -10.55,-3.68 -21.68,-5.84 -33.36,-6.48 -11.68,-0.65 -23.51,0.32 -35.51,2.89 -12.01,2.55 -23.28,7.02 -33.84,13.43 -0.96,0.96 -0.72,2.07 0.72,3.37 1.44,1.27 3.27,2.4 5.52,3.36 l 8.64,3.84 c 10.56,-5.45 22.24,-8.96 35.04,-10.57 12.79,-1.59 25.2,-1.04 37.2,1.68 12,2.71 22.63,7.6 31.92,14.64 9.28,7.04 15.52,16.48 18.72,28.32 2.87,10.88 2.8,20.56 -0.24,29.04 -3.05,8.48 -8.09,16 -15.12,22.57 -7.04,6.55 -15.29,12.16 -24.73,16.79 -9.44,4.64 -18.87,8.73 -28.32,12.24 -9.44,3.52 -18.32,6.49 -26.64,8.88 -8.32,2.41 -14.87,4.57 -19.67,6.48 -7.37,2.88 -10.73,9.68 -10.08,20.4 0.63,10.73 1.6,24.89 2.88,42.48 -1.93,0.96 -3.45,1.52 -4.56,1.68 -1.13,0.16 -2,0.32 -2.64,0.48 -0.64,0.16 -1.13,0.48 -1.44,0.96 -0.33,0.48 -0.8,1.68 -1.44,3.59 -0.97,5.13 -0.89,9.05 0.23,11.77 1.13,2.71 2.33,4.23 3.61,4.57 10.88,1.59 21.19,3.75 30.96,6.47 9.75,2.71 19.59,5.37 29.52,7.92 9.91,2.56 20.15,4.72 30.72,6.49 10.56,1.75 22.08,2.46 34.56,2.16 z" /><path
         id="path44"
         style="fill:#ffffff;fill-opacity:1;fill-rule:nonzero;stroke:none"
         d="m 5004.55,4492.57 -3.16,-259.94 c -1.01,-27.15 15.33,-184.61 15.33,-184.61 l -39.19,-4.14 -222.66,-11.59 -144.6,6.64 -2,47 -9.36,172.14 0.96,226.57 26.12,2.04 139.52,-2.56 z" /><path
         id="path46"
         style="fill:#000000;fill-opacity:1;fill-rule:nonzero;stroke:none"
         d="m 4994.74,4491.92 c -1.42,-150.46 -3.17,-296.69 12.32,-446.47 3.48,3.32 6.96,6.64 10.44,9.96 -99.97,-10.56 -205.62,-18.29 -302.81,-13.83 l -93.81,4.3 c -11.49,0.53 -1.13,1.35 -0.89,-4.27 -0.3,7.16 -0.61,14.31 -0.91,21.48 -0.38,8.8 -0.68,17.61 -1.16,26.41 -3.07,56.39 -6.13,112.8 -9.2,169.23 -3.08,56.52 0.48,114.16 0.72,170.77 0.07,14.19 0.12,28.37 0.18,42.55 0.09,19.27 -9.23,5.33 2.53,6.25 25.85,2 51.94,0.3 77.84,-0.18 104.71,-1.91 209.12,3.39 313.78,7.08 11.2,0.39 14.69,15.22 1.56,14.75 -73.78,-2.6 -147.56,-5.22 -221.34,-7.83 -61.11,-2.14 -122.35,4.65 -183.34,-0.09 -3.98,-0.32 -10.56,-3.12 -10.59,-8.03 -0.63,-149.36 4.05,-296.59 10.4,-445.72 0.16,-3.62 2.72,-6.47 6.54,-6.64 136.95,-6.29 272.3,-5.43 408.95,9.02 5.41,0.57 11.06,3.89 10.43,9.96 -15.35,148.43 -13.43,293.54 -12.02,442.61 0.1,10.47 -19.53,7.82 -19.62,-1.31 z" /><path
         id="path48"
         style="fill:#000000;fill-opacity:1;fill-rule:nonzero;stroke:none"
         d="m 4777.78,4149.71 c 10.23,0.63 20.64,4.72 31.2,12.25 10.56,7.5 19.84,15.99 27.84,25.43 7.98,9.43 13.84,18.47 17.52,27.12 3.67,8.63 3.92,14.22 0.73,16.79 -9.61,7.37 -18.89,8.72 -27.86,4.09 -8.95,-4.64 -16.96,-12.09 -24,-22.32 -7.03,-10.24 -12.79,-21.45 -17.27,-33.59 -4.49,-12.18 -7.21,-22.09 -8.16,-29.77 m -8.16,251.99 c -8.64,-17.6 -14.98,-35.35 -18.96,-53.27 -4,-17.92 -6.41,-35.36 -7.2,-52.32 -0.82,-16.97 -0.48,-32.97 0.96,-48 1.44,-15.04 3.36,-28.49 5.76,-40.31 2.4,-11.86 4.87,-21.78 7.44,-29.77 2.56,-8.01 4.48,-13.28 5.76,-15.84 1.92,7.99 4.48,16.38 7.67,25.2 3.2,8.79 6.89,17.04 11.05,24.72 4.16,7.68 8.47,14.48 12.97,20.39 4.47,5.92 9.11,10.34 13.91,13.21 2.88,2.55 7.03,4.72 12.48,6.48 5.43,1.76 11.11,2.72 17.04,2.86 5.92,0.18 11.59,-0.7 17.04,-2.63 5.42,-1.91 9.44,-4.96 12,-9.12 2.55,-3.82 3.42,-8.95 2.64,-15.35 -0.8,-6.4 -2.97,-13.37 -6.48,-20.88 -3.54,-7.53 -8.24,-15.29 -14.16,-23.28 -5.92,-8.01 -12.72,-15.45 -20.4,-22.33 -7.68,-6.89 -16.02,-12.79 -24.96,-17.75 -8.97,-4.98 -18.4,-8.09 -28.32,-9.36 -0.65,-2.24 -0.56,-4.73 0.24,-7.44 0.79,-2.72 0.88,-4.4 0.24,-5.04 -5.13,-0.64 -8.96,-0.41 -11.52,0.72 -2.57,1.12 -4.32,2.48 -5.28,4.07 -0.65,1.29 -1.13,2.16 -1.44,2.64 -0.32,0.49 -0.48,1.21 -0.48,2.16 v 3.59 c 0,1.46 0.32,3.78 0.96,6.98 -6.72,7.99 -12,17.99 -15.85,30 -3.84,12 -6.71,23.91 -8.63,35.77 -6.41,39.99 -7.36,76.3 -2.89,108.95 4.49,32.64 12.32,63.04 23.52,91.2 2.57,0.64 4.73,0.72 6.48,0.24 1.77,-0.48 3.29,-1.19 4.57,-2.16 1.27,-1.28 2.56,-2.73 3.84,-4.33" /><path
         id="path50"
         style="fill:#ffffff;fill-opacity:1;fill-rule:nonzero;stroke:none"
         d="m 5544.54,4492.57 -3.15,-259.94 c -1.02,-27.15 15.32,-184.61 15.32,-184.61 l -39.19,-4.14 -222.65,-11.6 -144.61,6.64 -2,47.01 -9.36,172.13 0.97,226.58 26.11,2.03 139.52,-2.54 z" /><path
         id="path52"
         style="fill:#000000;fill-opacity:1;fill-rule:nonzero;stroke:none"
         d="m 5534.73,4491.92 c -1.42,-150.45 -3.17,-296.7 12.32,-446.48 3.48,3.32 6.96,6.64 10.44,9.96 -99.97,-10.56 -205.62,-18.29 -302.81,-13.83 -31.27,1.43 -62.54,2.87 -93.81,4.31 -11.49,0.52 -1.13,1.35 -0.89,-4.28 -0.3,7.16 -0.61,14.31 -0.91,21.48 -0.38,8.8 -0.68,17.61 -1.16,26.41 -3.07,56.4 -6.13,112.81 -9.2,169.23 -3.08,56.52 0.48,114.17 0.73,170.77 0.06,14.19 0.12,28.37 0.18,42.55 0.08,19.28 -9.23,5.33 2.53,6.25 25.84,2.01 51.93,0.3 77.83,-0.17 104.71,-1.9 209.12,3.39 313.78,7.08 11.2,0.39 14.69,15.22 1.56,14.75 -73.78,-2.61 -147.56,-5.21 -221.34,-7.82 -61.11,-2.15 -122.34,4.63 -183.34,-0.11 -3.98,-0.31 -10.56,-3.11 -10.58,-8.03 -0.64,-149.35 4.04,-296.59 10.39,-445.72 0.16,-3.62 2.72,-6.47 6.54,-6.64 136.95,-6.29 272.3,-5.42 408.95,9.02 5.41,0.57 11.06,3.9 10.43,9.96 -15.35,148.44 -13.43,293.55 -12.02,442.62 0.1,10.47 -19.53,7.82 -19.62,-1.31 z" /><path
         id="path54"
         style="fill:#000000;fill-opacity:1;fill-rule:nonzero;stroke:none"
         d="m 5383.8,4401.49 c 2.56,1.28 4,-1.68 4.32,-8.88 0.32,-7.2 0,-17.2 -0.95,-30 -0.97,-12.8 -2.4,-27.68 -4.33,-44.65 -1.91,-16.95 -3.91,-34.47 -5.99,-52.55 -2.09,-18.08 -4.01,-35.92 -5.76,-53.52 -1.76,-17.6 -2.97,-33.44 -3.61,-47.52 -0.96,-9.29 -1.19,-17.13 -0.71,-23.51 0.48,-6.41 0.71,-12.01 0.71,-16.81 -1.28,-1.28 -3.84,-1.28 -7.68,0 -3.84,1.28 -6.09,3.84 -6.71,7.68 -0.97,21.76 -0.8,42.96 0.48,63.6 1.28,20.64 3.03,41.11 5.28,61.44 2.24,20.32 4.39,40.72 6.47,61.19 2.08,20.49 3.44,41.77 4.09,63.85 -2.57,0.96 -7.92,0.64 -16.09,-0.95 -8.15,-1.62 -17.27,-3.61 -27.36,-6.01 -10.07,-2.39 -19.91,-4.64 -29.51,-6.72 -9.6,-2.08 -16.81,-2.96 -21.6,-2.65 -2.25,0.33 -4,1.28 -5.3,2.89 -1.26,1.6 -2.21,5.28 -2.87,11.04 8.32,2.24 17.36,4.39 27.12,6.48 9.77,2.07 19.84,4.09 30.24,6 10.4,1.91 20.65,3.67 30.73,5.27 10.08,1.61 19.75,3.05 29.03,4.33 z" /><path
         id="path56"
         style="fill:#ffffff;fill-opacity:1;fill-rule:nonzero;stroke:none"
         d="m 6084.55,4492.57 -3.16,-259.94 c -1.01,-27.15 15.33,-184.61 15.33,-184.61 l -39.19,-4.14 -222.66,-11.6 -144.6,6.64 -2,47.01 -9.36,172.13 0.96,226.58 26.12,2.03 139.52,-2.54 z" /><path
         id="path58"
         style="fill:#000000;fill-opacity:1;fill-rule:nonzero;stroke:none"
         d="m 6074.74,4491.92 c -1.42,-150.45 -3.17,-296.69 12.32,-446.48 3.48,3.32 6.96,6.64 10.44,9.96 -99.97,-10.56 -205.62,-18.29 -302.81,-13.83 l -93.81,4.31 c -11.49,0.52 -1.13,1.35 -0.89,-4.28 -0.3,7.16 -0.61,14.31 -0.91,21.48 -0.38,8.8 -0.68,17.61 -1.16,26.41 -3.07,56.4 -6.13,112.81 -9.2,169.23 -3.08,56.52 0.48,114.17 0.72,170.77 0.07,14.19 0.12,28.37 0.18,42.55 0.09,19.28 -9.23,5.33 2.53,6.25 25.85,2.01 51.94,0.3 77.84,-0.17 104.71,-1.9 209.12,3.39 313.78,7.08 11.19,0.39 14.69,15.22 1.56,14.75 -73.78,-2.61 -147.56,-5.21 -221.34,-7.82 -61.11,-2.15 -122.35,4.63 -183.34,-0.11 -3.98,-0.31 -10.56,-3.11 -10.59,-8.03 -0.63,-149.35 4.05,-296.59 10.4,-445.72 0.16,-3.62 2.72,-6.47 6.54,-6.64 136.95,-6.29 272.3,-5.42 408.95,9.02 5.41,0.57 11.06,3.9 10.43,9.96 -15.36,148.45 -13.43,293.55 -12.02,442.62 0.1,10.47 -19.53,7.82 -19.62,-1.31 z" /><path
         id="path60"
         style="fill:#000000;fill-opacity:1;fill-rule:nonzero;stroke:none"
         d="m 5888.91,4154.49 c 5.44,0.96 9.2,5.67 11.28,14.15 2.08,8.48 2.8,18.24 2.16,29.29 -0.65,11.04 -2.48,22 -5.52,32.88 -3.05,10.89 -6.8,19.21 -11.28,24.96 -2.25,-5.12 -4.32,-11.45 -6.24,-18.97 -1.91,-7.51 -3.44,-15.28 -4.56,-23.28 -1.12,-7.98 -1.85,-15.91 -2.16,-23.75 -0.32,-7.85 0.08,-14.65 1.2,-20.41 1.12,-5.75 2.88,-10.07 5.29,-12.95 2.39,-2.89 5.67,-3.53 9.83,-1.92 m -7.2,130.56 c 1.27,3.84 3.67,9.67 7.2,17.52 3.52,7.83 6.96,15.91 10.32,24.23 3.36,8.32 6,15.84 7.92,22.56 1.93,6.72 1.93,10.88 0,12.48 -5.12,3.52 -11.12,6.41 -18,8.65 -6.88,2.23 -13.04,2.55 -18.48,0.96 -10.88,-4.49 -17.6,-10.49 -20.16,-18 -2.57,-7.52 -2.57,-15.36 0,-23.52 2.56,-8.16 6.8,-16.25 12.73,-24.23 5.9,-8.02 12.07,-14.89 18.47,-20.65 m 32.16,98.4 c 2.88,-0.96 5.84,-2.41 8.88,-4.32 3.04,-1.92 4.08,-6.24 3.12,-12.95 -2.88,-9.94 -5.6,-18.89 -8.16,-26.89 -2.56,-8 -5.21,-15.68 -7.92,-23.04 -2.73,-7.37 -5.6,-14.55 -8.63,-21.6 -3.05,-7.04 -6.33,-14.41 -9.85,-22.08 7.03,-8.32 12.8,-18.96 17.28,-31.92 4.48,-12.97 7.12,-26.16 7.92,-39.61 0.8,-13.43 -0.48,-25.99 -3.84,-37.66 -3.36,-11.68 -9.2,-20.09 -17.52,-25.2 -6.08,-3.21 -10.72,-4.66 -13.92,-4.32 -3.2,0.32 -6.71,2.39 -10.56,6.23 -3.84,4.16 -6.72,9.77 -8.64,16.79 -1.92,7.04 -3.12,14.66 -3.6,22.82 -0.48,8.16 -0.32,16.62 0.48,25.42 0.8,8.81 1.84,17.21 3.12,25.22 0.64,2.87 1.52,6.39 2.64,10.55 1.11,4.16 2.47,8.16 4.08,12 1.6,4.49 3.36,9.29 5.28,14.4 -2.24,4.8 -5.92,10.09 -11.04,15.84 -5.12,5.76 -10.08,12.16 -14.88,19.2 -4.8,7.03 -8.8,14.8 -12,23.28 -3.2,8.48 -4.16,17.84 -2.87,28.09 -0.33,5.1 1.19,10.22 4.55,15.35 3.37,5.13 6.32,8.79 8.88,11.04 7.68,6.4 17.28,10 28.8,10.8 11.53,0.81 24.32,-1.68 38.4,-7.44" /><path
         id="path62"
         style="fill:#ffffff;fill-opacity:1;fill-rule:nonzero;stroke:none"
         d="m 6624.54,4492.57 -3.15,-259.94 c -1.02,-27.15 15.32,-184.61 15.32,-184.61 l -39.19,-4.14 -222.65,-11.6 -144.61,6.64 -2,47.01 -9.36,172.13 0.97,226.58 26.11,2.03 139.52,-2.54 z" /><path
         id="path64"
         style="fill:#000000;fill-opacity:1;fill-rule:nonzero;stroke:none"
         d="m 6614.73,4491.92 c -1.42,-150.45 -3.17,-296.7 12.32,-446.48 3.48,3.32 6.96,6.64 10.44,9.96 -99.97,-10.56 -205.62,-18.29 -302.81,-13.83 -31.27,1.43 -62.54,2.87 -93.81,4.31 -11.49,0.52 -1.13,1.35 -0.89,-4.28 -0.3,7.16 -0.61,14.31 -0.91,21.48 -0.38,8.8 -0.68,17.61 -1.16,26.41 -3.07,56.4 -6.13,112.81 -9.2,169.23 -3.08,56.52 0.48,114.17 0.73,170.77 0.06,14.19 0.12,28.37 0.18,42.55 0.08,19.28 -9.23,5.33 2.53,6.25 25.84,2.01 51.93,0.3 77.83,-0.17 104.71,-1.9 209.12,3.39 313.78,7.08 11.2,0.39 14.69,15.22 1.56,14.75 -73.78,-2.61 -147.56,-5.21 -221.34,-7.82 -61.11,-2.15 -122.34,4.63 -183.34,-0.11 -3.98,-0.31 -10.56,-3.11 -10.58,-8.03 -0.64,-149.35 4.04,-296.59 10.39,-445.72 0.16,-3.62 2.72,-6.47 6.54,-6.64 136.95,-6.29 272.3,-5.42 408.95,9.02 5.41,0.57 11.06,3.9 10.43,9.96 -15.35,148.44 -13.43,293.55 -12.02,442.62 0.1,10.47 -19.53,7.82 -19.62,-1.31 z" /><path
         id="path66"
         style="fill:#000000;fill-opacity:1;fill-rule:nonzero;stroke:none"
         d="m 6373.84,4344.49 c 2.88,-5.44 7.69,-7.28 14.4,-5.52 6.72,1.76 13.75,5.35 21.12,10.8 7.36,5.43 14.16,12.15 20.4,20.16 6.24,8 10.32,15.67 12.24,23.05 -10.56,0.62 -20.4,-0.97 -29.52,-4.81 -9.12,-3.85 -16.96,-8.47 -23.52,-13.92 -6.57,-5.44 -11.28,-11.04 -14.16,-16.8 -2.88,-5.76 -3.21,-10.08 -0.96,-12.96 m 85.92,61.92 c 0.64,0.96 0.48,-2.01 -0.48,-8.88 -0.96,-6.88 -2.24,-15.35 -3.84,-25.43 -1.6,-10.09 -3.28,-20.73 -5.04,-31.94 -1.77,-11.19 -3.12,-20.8 -4.08,-28.79 0,-0.95 -0.4,-5.84 -1.2,-14.64 -0.8,-8.8 -1.6,-19.76 -2.4,-32.87 -0.8,-13.13 -1.76,-27.37 -2.88,-42.73 -1.13,-15.36 -2.08,-30.17 -2.87,-44.4 -0.82,-14.24 -1.37,-26.88 -1.68,-37.91 -0.33,-11.05 -0.33,-18.8 0,-23.29 -3.85,-0.64 -6.41,-0.87 -7.69,-0.72 -1.28,0.16 -3.84,1.19 -7.68,3.13 0.64,21.42 1.52,41.34 2.64,59.75 1.11,18.39 2.32,36.72 3.6,54.95 1.27,18.25 2.64,36.89 4.08,55.93 1.44,19.04 3.12,39.91 5.05,62.64 -6.09,-5.75 -12.9,-11.05 -20.41,-15.84 -7.52,-4.8 -15.04,-8.24 -22.56,-10.32 -7.52,-2.08 -14.49,-2.48 -20.88,-1.19 -6.41,1.26 -11.52,5.27 -15.36,11.99 -2.56,5.76 -1.36,13.51 3.6,23.28 4.96,9.76 12.4,18.96 22.32,27.6 9.92,8.64 21.67,15.28 35.28,19.92 13.6,4.64 27.76,4.56 42.48,-0.24" /><path
         id="path68"
         style="fill:#ffffff;fill-opacity:1;fill-rule:nonzero;stroke:none"
         d="m 7164.55,4492.56 -3.16,-259.94 c -1.01,-27.15 15.33,-184.6 15.33,-184.6 l -39.19,-4.14 -222.66,-11.61 -144.6,6.64 -2,47.01 -9.36,172.13 0.96,226.58 26.12,2.03 139.52,-2.54 z" /><path
         id="path70"
         style="fill:#000000;fill-opacity:1;fill-rule:nonzero;stroke:none"
         d="m 7154.74,4491.91 c -1.42,-150.45 -3.17,-296.68 12.32,-446.48 3.48,3.32 6.96,6.64 10.44,9.96 -99.97,-10.55 -205.62,-18.28 -302.81,-13.82 l -93.81,4.31 c -11.49,0.51 -1.13,1.35 -0.89,-4.29 -0.3,7.16 -0.61,14.32 -0.91,21.48 -0.38,8.81 -0.68,17.61 -1.16,26.41 -3.07,56.41 -6.13,112.82 -9.2,169.23 -3.08,56.52 0.48,114.18 0.72,170.77 0.07,14.2 0.12,28.38 0.18,42.56 0.09,19.28 -9.23,5.32 2.53,6.25 25.85,2.01 51.94,0.3 77.84,-0.17 104.71,-1.91 209.12,3.38 313.78,7.08 11.19,0.39 14.69,15.21 1.56,14.75 -73.78,-2.61 -147.56,-5.22 -221.34,-7.83 -61.11,-2.14 -122.35,4.63 -183.34,-0.1 -3.98,-0.32 -10.56,-3.11 -10.59,-8.04 -0.63,-149.34 4.05,-296.59 10.4,-445.71 0.16,-3.63 2.72,-6.47 6.54,-6.65 136.95,-6.28 272.3,-5.41 408.95,9.02 5.41,0.57 11.06,3.9 10.43,9.97 -15.36,148.44 -13.43,293.55 -12.02,442.62 0.1,10.47 -19.53,7.82 -19.62,-1.32 z" /><path
         id="path72"
         style="fill:#000000;fill-opacity:1;fill-rule:nonzero;stroke:none"
         d="m 6890.36,4395.7 h 15.34 c -1.27,-20.16 -1.43,-41.2 -0.48,-63.12 0.98,-21.92 2.41,-44.23 4.33,-66.96 1.91,-22.72 3.99,-45.53 6.24,-68.4 2.23,-22.88 4,-45.52 5.27,-67.92 -0.95,-2.56 -2.08,-3.92 -3.36,-4.08 -1.27,-0.16 -3.04,-0.23 -5.27,-0.23 -6.07,-1.61 -9.77,-0.18 -11.04,4.31 0,19.2 -0.73,40.39 -2.16,63.6 -1.44,23.2 -3.05,45.92 -4.8,68.16 -1.77,22.24 -3.45,42.79 -5.05,61.68 -1.59,18.88 -2.72,33.59 -3.36,44.16 0,2.56 -0.16,5.68 -0.47,9.36 -0.33,3.68 -0.57,7.13 -0.73,10.33 -0.16,3.18 0.09,5.75 0.73,7.67 0.63,1.92 2.24,2.41 4.81,1.44 z" /><path
         id="path74"
         style="fill:#000000;fill-opacity:1;fill-rule:nonzero;stroke:none"
         d="m 6973.21,4233.17 c 0.32,-9.92 1.05,-19.92 2.17,-29.99 1.11,-10.09 2.71,-19.21 4.79,-27.37 2.08,-8.16 4.81,-14.72 8.17,-19.68 3.36,-4.97 7.59,-7.28 12.71,-6.95 4.81,-0.66 9.52,2.63 14.16,9.83 4.64,7.21 8.8,15.92 12.49,26.17 3.67,10.23 6.87,20.87 9.6,31.93 2.72,11.02 4.72,20.07 6,27.1 1.27,8.97 1.99,18 2.16,27.12 0.15,9.13 -0.08,17.6 -0.73,25.44 -0.64,7.84 -1.61,15.03 -2.87,21.61 -1.29,6.55 -2.57,11.74 -3.85,15.59 -3.52,10.57 -9.59,20 -18.23,28.32 -8.64,8.32 -19.85,13.12 -33.6,14.41 -0.65,-2.89 -1.38,-7.77 -2.16,-14.64 -0.81,-6.9 -1.68,-14.81 -2.65,-23.77 -0.95,-8.97 -2,-18.56 -3.11,-28.79 -1.12,-10.26 -2.09,-20.17 -2.88,-29.77 -0.81,-9.61 -1.44,-18.46 -1.93,-26.64 -0.47,-8.16 -0.56,-14.8 -0.24,-19.92 m 86.89,84.96 c 2.23,-32.32 1.51,-60.17 -2.16,-83.51 -3.68,-23.37 -8.73,-42.73 -15.12,-58.08 -6.41,-15.37 -13.28,-27.06 -20.64,-35.05 -7.38,-8.01 -13.61,-12.95 -18.73,-14.88 -7.36,-1.92 -12.95,-2 -16.79,-0.23 -3.84,1.75 -7.68,5.82 -11.54,12.23 -3.51,7.04 -6.3,16.41 -8.39,28.09 -2.07,11.68 -3.59,24.22 -4.55,37.68 -0.97,13.43 -1.44,26.94 -1.44,40.55 0,13.59 0.31,25.68 0.96,36.25 0.94,12.79 1.68,23.52 2.15,32.15 0.48,8.64 1.13,16.48 1.93,23.53 0.79,7.02 1.6,14 2.4,20.87 0.78,6.88 1.99,14.95 3.59,24.24 -5.11,0.64 -8.56,2.88 -10.31,6.73 -1.77,3.84 -2.64,7.51 -2.64,11.03 23.04,-1.92 41.2,-6.64 54.48,-14.16 13.27,-7.52 23.36,-15.76 30.24,-24.71 6.87,-8.98 11.28,-17.53 13.19,-25.68 1.93,-8.16 3.04,-13.86 3.37,-17.05" /><path
         id="path76"
         style="fill:#000000;fill-opacity:1;fill-rule:nonzero;stroke:none"
         d="m 2680.15,100.484 c -31.44,-0.261 -89.06,5.84 -119.57,20.61 -5.15,2.5 -14.41,8.769 -20.61,6.187 -2.49,2.75 -0.76,3.262 0,6.184 -40.8,15.199 -72.22,44.84 -103.06,76.269 -19.75,12.797 -38.05,44.239 -59.78,61.84 0.7,4.809 -0.34,7.899 -2.06,10.309 -8.16,4.808 -12.71,18.551 -16.49,28.859 -1.12,4.641 -3.18,-2.5 -6.18,2.059 -2.67,24.652 -16.84,28.601 -30.92,63.902 10.39,0.078 9,-29.461 24.72,-30.922 7.56,-18.547 17.18,-35.039 30.93,-47.41 -4.89,9.961 -10.73,30.141 -24.73,37.102 0.77,3.269 3.61,-1.801 4.12,2.07 -32.99,40.871 -62.01,123.418 -49.48,216.43 -8.24,-11.239 -2.66,-76.52 -6.18,-70.078 -5.85,12.367 -0.34,31.519 -2.06,45.347 -5.33,43.121 20.44,113.371 41.22,142.231 26.97,46.718 65.11,81.25 107.2,123.679 -25.43,-68.711 -105.05,-112.078 -125.74,-185.519 -9.88,-10.649 -20.36,-40.539 -14.44,-53.59 15.98,69.309 50.93,113.031 88.65,152.539 -36.68,-77.391 -59.88,-193.34 -47.42,-292.711 8.59,-68.109 40.28,-116.039 72.15,-164.91 -16.75,16.582 -27.49,31.262 -39.18,49.473 -7.81,-11.68 10.15,-19.321 16.5,-26.801 13.66,-15.981 26.12,-37.621 41.22,-49.469 3.71,1.551 0.35,3.777 0,6.18 -5.41,4.898 9.73,-4.032 2.08,-8.242 21.03,-17.52 27.56,-35.559 49.46,-45.348 33.86,-40.02 97.66,-67.68 158.73,-70.082 81.58,-3.27 163.35,37.703 222.62,74.199 -40.11,-48.098 -128.4,-75.41 -191.7,-80.387 m 51.52,729.707 c -10.47,-3.519 -31.94,10.661 -45.34,4.133 -2.74,-0.09 -1.89,4.207 -0.34,4.207 -13.83,6.27 -53.77,4.211 -75.93,1.973 -64.41,-6.352 -129.34,-42.602 -166.97,-74.203 46.04,82.793 192.48,127.113 288.58,63.89 m 39.18,-14.429 c -1.12,-4.289 -3.18,-4.379 -6.19,-2.059 -31.95,40.891 -84.69,60.981 -160.78,57.719 79.01,18.473 135.36,-11.16 166.97,-55.66 m -160.79,22.679 c 11.09,-0.769 10.23,-0.597 20.62,-2.058 -2.15,-2.66 -21.64,-5.321 -20.62,2.058 m 474.1,-366.918 c 0.19,3.27 5.25,1.641 4.13,6.188 -9.62,7.383 -7.63,25.934 -12.37,45.351 -10.73,1.02 3.96,-11.859 -2.06,-12.371 -6.43,6.352 -3.26,16.403 -4.12,22.672 -4.55,-5.07 -13.92,13.399 -12.37,14.43 4.73,0.598 2.33,-5.922 6.19,-6.18 -0.18,5.239 -1.11,9.789 -4.13,12.36 -1.37,-6.18 -4.38,1.98 -8.24,0 3.7,7.39 -8.75,13.922 -10.32,22.679 4.83,-1.379 5.51,-6.871 10.32,-8.25 -3.61,7.481 -13.92,29.2 -16.49,18.559 -0.09,10.562 -13.91,31.523 -22.67,32.98 5.23,-3.777 9.87,-7.988 10.31,-16.488 -0.44,2.738 -10.39,9.449 -6.19,4.121 24.72,-44.582 80.82,-106.332 65.96,-183.461 -0.94,-4.812 -4.99,-14 -8.25,-14.429 2.68,-3.782 -2.32,-12.711 -2.06,-16.493 -0.42,1.633 -0.09,4.032 -2.06,4.121 -3.69,-12.71 -12.29,-23.699 -8.24,-32.98 -3.87,-0.43 -4.55,2.32 -8.24,2.059 -4.82,-16.657 -25.27,-27.989 -24.75,-43.289 -17.17,-0.86 -31.09,-33.321 -45.35,-37.098 12.03,16.828 18.98,38.73 26.79,59.777 -3.26,2.063 -8.24,1.981 -4.12,6.18 3.28,-0.168 1.64,-5.227 6.2,-4.117 -3.01,11.418 11.59,17.258 2.06,22.668 14.34,23.031 19.5,81.172 14.42,111.32 -1.2,7.039 -11.15,20.27 -2.06,12.371 -5.75,15.711 -3.35,28.25 -12.36,30.91 11.85,15.551 -14.7,38.739 -14.44,49.481 4.72,0.597 2.33,-5.93 6.18,-6.192 0.69,10.309 -12.01,7.219 -12.36,16.489 4.21,-0.598 4.03,-5.579 8.24,-6.18 -6.86,20.523 -18.2,34.793 -26.79,57.723 -2.84,0.089 -4.56,-0.954 -6.19,-2.063 3,4.891 4.39,3.863 2.06,10.301 -5.15,-0.34 -8.49,1.031 -10.3,4.129 2.39,0.344 5.83,-0.348 6.18,2.062 -11.76,2.231 -3.35,8.668 -12.37,8.239 27.58,-61.149 70.19,-129.598 65.97,-218.5 0.86,-3.258 6.52,-1.719 4.12,-8.239 -2.05,-0.261 -4.12,8.93 -6.18,2.059 6.86,-18.379 -9.89,-45.098 -6.18,-59.777 -20.02,-36.852 -38.4,-112.77 -88.65,-138.122 34.02,59.61 48.78,159.758 24.74,222.629 4.9,-40.191 18.05,-86.918 0,-121.609 2.4,-0.352 5.84,0.34 6.18,-2.07 -9.7,-16.828 -14.08,-53.762 -22.67,-70.078 -2.75,0 -1.89,3.609 -4.12,4.117 0,-4.899 0.77,-18.129 -4.13,-10.297 -1.2,-13.492 -3.44,-7.653 -2.06,-16.504 -8.33,3.531 -11.17,-16.227 -16.48,-22.668 -9.97,-11.941 -30.67,-20.359 -47.41,-30.922 -24.57,-15.457 -50.08,-32.988 -76.27,-43.289 -68.12,-26.707 -147.65,-35.129 -197.89,-14.43 1.45,-2.828 -12.2,10.563 -16.5,2.063 0,2.058 1.72,2.488 2.06,4.117 -94.31,52.051 -206.47,165.77 -216.43,303.02 -2.76,38.312 0.25,79.621 4.12,107.191 1.88,13.57 1.88,27.57 4.12,39.168 0.09,0.422 4.12,-2.07 4.12,-2.07 9.96,31.351 17.69,70.093 30.93,101.011 2.65,6.192 10.82,11.34 6.18,20.621 7.29,-5.671 14.76,12.45 10.31,18.551 2.91,-0.781 3.51,-2.5 6.18,0 2.49,10.731 12.02,23.188 20.6,30.91 20.45,18.297 54.12,41.661 76.29,51.539 57.71,25.77 135.95,27.141 199.94,18.551 13.22,-11.683 37.87,-9.531 45.35,-30.922 -4.46,-3.09 -5.76,-9.269 -10.31,-12.371 10.49,-2.14 27.22,3.352 26.8,18.551 10.65,-4.031 15.37,-18.031 20.62,-14.418 4.29,-18.211 20.43,-33.934 28.85,-41.23 -1.37,-1.723 1.98,-14.34 10.31,-12.372 -5.5,-6.531 3.87,-12.8 6.17,-12.371 -3.85,-8.07 7.82,-18.199 12.38,-24.73 -12.1,40.101 -44.49,71.371 -59.78,98.941 13.05,-3.691 21.39,-23.699 39.16,-14.429 -20.61,16.148 -42.5,19.41 -57.71,32.98 -9.19,18.301 -34.79,31.18 -41.23,45.348 54.72,-27.739 80.48,-48.09 119.56,-92.75 -7.98,3 -12.1,9.871 -18.55,14.422 1.21,-7.379 -12.28,-0.082 -10.31,-8.243 5.84,3.954 16.33,-1.117 12.38,-6.179 9,3.773 6.6,-3.008 14.41,-8.25 2.23,-1.457 11.68,-1.887 14.44,-4.117 3.08,-2.59 3.44,-9.11 6.19,-12.372 14.59,-17.441 39.25,-23.968 49.46,-47.41 3.87,-1.98 6.87,6.18 8.25,0 -5.41,-8.507 13.15,-27.84 20.61,-37.109 -0.6,4.719 5.93,2.32 6.19,6.18 -7.73,1.898 -10.31,16.589 -8.24,18.558 -7.14,4.121 0.16,-0.949 -4.13,-2.058 -10.48,8.5 -6.11,20.007 -18.55,24.73 0.77,-0.43 5.06,1.117 4.12,2.07 -13.75,13.309 -29.19,25.071 -43.3,39.161 -18.45,18.468 -34,39.769 -53.59,57.718 -9.86,9.102 -22.16,14.852 -32.98,22.672 -8.84,6.449 -13.23,15.719 -20.6,20.617 -13.15,8.762 -29.38,10.563 -41.24,20.61 -3.85,0.433 -4.54,-2.321 -8.25,-2.059 -8.67,5.5 -20.68,17.18 -30.91,14.43 -4.3,10.91 -21.97,25.422 -30.92,18.551 13.05,-3.52 22.5,-10.481 28.85,-20.621 -14.42,3.351 -39.5,6.699 -49.46,6.191 -65.03,12.969 -147.48,-42.602 -197.89,-80.391 -21.21,-15.89 -42.52,-39.168 -57.71,-53.601 -7.4,-6.949 -9.63,-11.418 -12.3,-14.258 0,0.859 -2.82,3.008 -4.2,1.898 -7.56,-6.019 -12.45,-20.707 -20.61,-32.988 -19.33,-29.109 -47.93,-64.93 -55.66,-98.949 -1.72,-7.723 1.37,-14.344 0,-20.613 -0.09,-0.43 -4.13,2.07 -4.13,2.07 -4.55,-10.91 -5.75,-38.988 -6.17,-55.66 -1.39,-59.52 15.8,-109.848 28.85,-162.848 12.2,-16.66 22.76,-34.949 28.86,-57.711 81.86,-115.531 175.81,-236.2811 379.28,-212.3279 6.8,2.2379 7.22,3.9569 14.44,6.1879 7.73,2.32 15.89,0.261 22.67,2.07 25.51,6.871 48.53,19.152 72.15,37.101 10.39,7.809 28.26,10.559 30.92,24.731 0.43,-1.633 1.72,-2.402 4.12,-2.063 74.3,95.942 214.46,143.871 218.51,296.84 -1.56,3.262 -6.54,3.09 -6.2,8.242" /><g
         transform="scale(10)"
         id="g78"><text
           id="text82"
           style="font-variant:normal;font-weight:normal;font-size:12px;font-family:Papyrus;-inkscape-font-specification:Papyrus;writing-mode:lr-tb;fill:#000000;fill-opacity:1;fill-rule:nonzero;stroke:none"
           transform="matrix(1,0,0,-1,238.705,47.7676)"><tspan
             id="tspan80"
             y="0"
             x="0 6.7317662 9.2397661 14.112 18.455999 25.164 31.596001 34.236 36.959999 43.294598 49.666595 56.038597">Virtual Peer</tspan></text>
</g><path
         id="path84"
         style="fill:#000000;fill-opacity:1;fill-rule:nonzero;stroke:none"
         d="m 4999.91,100.484 c -31.44,-0.261 -89.06,5.84 -119.57,20.61 -5.15,2.5 -14.41,8.769 -20.61,6.187 -2.49,2.75 -0.76,3.262 0,6.184 -40.8,15.199 -72.22,44.84 -103.06,76.269 -19.75,12.797 -38.05,44.239 -59.78,61.84 0.7,4.809 -0.34,7.899 -2.06,10.309 -8.16,4.808 -12.71,18.551 -16.49,28.859 -1.12,4.641 -3.18,-2.5 -6.18,2.059 -2.67,24.652 -16.84,28.601 -30.92,63.902 10.39,0.078 9,-29.461 24.72,-30.922 7.56,-18.547 17.18,-35.039 30.93,-47.41 -4.89,9.961 -10.73,30.141 -24.73,37.102 0.77,3.269 3.61,-1.801 4.12,2.07 -32.99,40.871 -62.01,123.418 -49.48,216.43 -8.24,-11.239 -2.66,-76.52 -6.18,-70.078 -5.85,12.367 -0.34,31.519 -2.06,45.347 -5.33,43.121 20.44,113.371 41.22,142.231 26.97,46.718 65.11,81.25 107.2,123.679 -25.43,-68.711 -105.05,-112.078 -125.74,-185.519 -9.88,-10.649 -20.36,-40.539 -14.44,-53.59 15.98,69.309 50.93,113.031 88.65,152.539 -36.68,-77.391 -59.88,-193.34 -47.42,-292.711 8.59,-68.109 40.28,-116.039 72.15,-164.91 -16.75,16.582 -27.49,31.262 -39.18,49.473 -7.81,-11.68 10.15,-19.321 16.5,-26.801 13.66,-15.981 26.11,-37.621 41.22,-49.469 3.71,1.551 0.35,3.777 0,6.18 -5.41,4.898 9.73,-4.032 2.07,-8.242 21.04,-17.52 27.57,-35.559 49.47,-45.348 33.85,-40.02 97.66,-67.68 158.73,-70.082 81.58,-3.27 163.35,37.703 222.62,74.199 -40.11,-48.098 -128.4,-75.41 -191.7,-80.387 m 51.52,729.707 c -10.47,-3.519 -31.94,10.661 -45.34,4.133 -2.74,-0.09 -1.89,4.207 -0.34,4.207 -13.83,6.27 -53.77,4.211 -75.93,1.973 -64.41,-6.352 -129.34,-42.602 -166.97,-74.203 46.04,82.793 192.48,127.113 288.58,63.89 m 39.18,-14.429 c -1.12,-4.289 -3.18,-4.379 -6.19,-2.059 -31.95,40.891 -84.69,60.981 -160.78,57.719 79.01,18.473 135.36,-11.16 166.97,-55.66 m -160.79,22.679 c 11.09,-0.769 10.23,-0.597 20.62,-2.058 -2.15,-2.66 -21.64,-5.321 -20.62,2.058 m 474.1,-366.918 c 0.19,3.27 5.25,1.641 4.13,6.188 -9.62,7.383 -7.63,25.934 -12.37,45.351 -10.73,1.02 3.96,-11.859 -2.06,-12.371 -6.43,6.352 -3.26,16.403 -4.12,22.672 -4.55,-5.07 -13.92,13.399 -12.37,14.43 4.73,0.598 2.32,-5.922 6.19,-6.18 -0.18,5.239 -1.12,9.789 -4.13,12.36 -1.37,-6.18 -4.38,1.98 -8.24,0 3.7,7.39 -8.75,13.922 -10.32,22.679 4.83,-1.379 5.51,-6.871 10.32,-8.25 -3.61,7.481 -13.92,29.2 -16.49,18.559 -0.09,10.562 -13.92,31.523 -22.67,32.98 5.23,-3.777 9.87,-7.988 10.31,-16.488 -0.44,2.738 -10.39,9.449 -6.19,4.121 24.72,-44.582 80.82,-106.332 65.96,-183.461 -0.94,-4.812 -4.99,-14 -8.25,-14.429 2.67,-3.782 -2.32,-12.711 -2.06,-16.493 -0.42,1.633 -0.09,4.032 -2.06,4.121 -3.69,-12.71 -12.29,-23.699 -8.24,-32.98 -3.87,-0.43 -4.55,2.32 -8.24,2.059 -4.82,-16.657 -25.27,-27.989 -24.75,-43.289 -17.17,-0.86 -31.09,-33.321 -45.35,-37.098 12.03,16.828 18.98,38.73 26.79,59.777 -3.26,2.063 -8.24,1.981 -4.12,6.18 3.28,-0.168 1.64,-5.227 6.2,-4.117 -3.01,11.418 11.59,17.258 2.06,22.668 14.34,23.031 19.5,81.172 14.42,111.32 -1.2,7.039 -11.15,20.27 -2.06,12.371 -5.75,15.711 -3.35,28.25 -12.36,30.91 11.85,15.551 -14.7,38.739 -14.44,49.481 4.72,0.597 2.33,-5.93 6.18,-6.192 0.69,10.309 -12.01,7.219 -12.36,16.489 4.21,-0.598 4.03,-5.579 8.24,-6.18 -6.86,20.523 -18.2,34.793 -26.79,57.723 -2.84,0.089 -4.56,-0.954 -6.19,-2.063 3,4.891 4.39,3.863 2.06,10.301 -5.15,-0.34 -8.49,1.031 -10.3,4.129 2.39,0.344 5.83,-0.348 6.18,2.062 -11.76,2.231 -3.35,8.668 -12.37,8.239 27.58,-61.149 70.19,-129.598 65.97,-218.5 0.86,-3.258 6.52,-1.719 4.12,-8.239 -2.05,-0.261 -4.12,8.93 -6.18,2.059 6.86,-18.379 -9.89,-45.098 -6.18,-59.777 -20.02,-36.852 -38.4,-112.77 -88.65,-138.122 34.02,59.61 48.78,159.758 24.74,222.629 4.9,-40.191 18.05,-86.918 0,-121.609 2.4,-0.352 5.84,0.34 6.18,-2.07 -9.7,-16.828 -14.08,-53.762 -22.67,-70.078 -2.75,0 -1.89,3.609 -4.12,4.117 0,-4.899 0.77,-18.129 -4.13,-10.297 -1.2,-13.492 -3.44,-7.653 -2.06,-16.504 -8.33,3.531 -11.17,-16.227 -16.48,-22.668 -9.97,-11.941 -30.67,-20.359 -47.41,-30.922 -24.57,-15.457 -50.08,-32.988 -76.27,-43.289 -68.12,-26.707 -147.65,-35.129 -197.89,-14.43 1.45,-2.828 -12.2,10.563 -16.5,2.063 0,2.058 1.72,2.488 2.06,4.117 -94.31,52.051 -206.47,165.77 -216.43,303.02 -2.76,38.312 0.25,79.621 4.12,107.191 1.88,13.57 1.88,27.57 4.12,39.168 0.09,0.422 4.12,-2.07 4.12,-2.07 9.96,31.351 17.69,70.093 30.93,101.011 2.65,6.192 10.82,11.34 6.18,20.621 7.29,-5.671 14.76,12.45 10.31,18.551 2.91,-0.781 3.51,-2.5 6.17,0 2.5,10.731 12.02,23.188 20.61,30.91 20.45,18.297 54.12,41.661 76.29,51.539 57.71,25.77 135.95,27.141 199.94,18.551 13.22,-11.683 37.87,-9.531 45.35,-30.922 -4.46,-3.09 -5.76,-9.269 -10.31,-12.371 10.49,-2.14 27.22,3.352 26.8,18.551 10.65,-4.031 15.37,-18.031 20.62,-14.418 4.29,-18.211 20.43,-33.934 28.85,-41.23 -1.37,-1.723 1.98,-14.34 10.31,-12.372 -5.5,-6.531 3.87,-12.8 6.17,-12.371 -3.85,-8.07 7.82,-18.199 12.38,-24.73 -12.1,40.101 -44.49,71.371 -59.78,98.941 13.05,-3.691 21.39,-23.699 39.16,-14.429 -20.61,16.148 -42.5,19.41 -57.71,32.98 -9.19,18.301 -34.79,31.18 -41.23,45.348 54.72,-27.739 80.48,-48.09 119.56,-92.75 -7.98,3 -12.1,9.871 -18.55,14.422 1.21,-7.379 -12.28,-0.082 -10.31,-8.243 5.84,3.954 16.33,-1.117 12.37,-6.179 9.01,3.773 6.61,-3.008 14.42,-8.25 2.23,-1.457 11.68,-1.887 14.44,-4.117 3.08,-2.59 3.44,-9.11 6.19,-12.372 14.59,-17.441 39.25,-23.968 49.46,-47.41 3.87,-1.98 6.87,6.18 8.25,0 -5.41,-8.507 13.15,-27.84 20.61,-37.109 -0.6,4.719 5.93,2.32 6.19,6.18 -7.73,1.898 -10.31,16.589 -8.24,18.558 -7.14,4.121 0.16,-0.949 -4.13,-2.058 -10.48,8.5 -6.11,20.007 -18.55,24.73 0.77,-0.43 5.06,1.117 4.12,2.07 -13.75,13.309 -29.19,25.071 -43.3,39.161 -18.45,18.468 -34,39.769 -53.59,57.718 -9.86,9.102 -22.16,14.852 -32.98,22.672 -8.84,6.449 -13.23,15.719 -20.6,20.617 -13.15,8.762 -29.38,10.563 -41.24,20.61 -3.85,0.433 -4.55,-2.321 -8.25,-2.059 -8.67,5.5 -20.68,17.18 -30.91,14.43 -4.3,10.91 -21.98,25.422 -30.92,18.551 13.05,-3.52 22.5,-10.481 28.85,-20.621 -14.42,3.351 -39.5,6.699 -49.46,6.191 -65.03,12.969 -147.48,-42.602 -197.89,-80.391 -21.21,-15.89 -42.52,-39.168 -57.71,-53.601 -7.4,-6.949 -9.63,-11.418 -12.3,-14.258 0,0.859 -2.82,3.008 -4.2,1.898 -7.56,-6.019 -12.45,-20.707 -20.61,-32.988 -19.33,-29.109 -47.93,-64.93 -55.66,-98.949 -1.72,-7.723 1.37,-14.344 0,-20.613 -0.09,-0.43 -4.13,2.07 -4.13,2.07 -4.55,-10.91 -5.75,-38.988 -6.17,-55.66 -1.39,-59.52 15.8,-109.848 28.85,-162.848 12.2,-16.66 22.76,-34.949 28.86,-57.711 81.86,-115.531 175.81,-236.2811 379.28,-212.3279 6.8,2.2379 7.22,3.9569 14.44,6.1879 7.73,2.32 15.89,0.261 22.67,2.07 25.51,6.871 48.53,19.152 72.15,37.101 10.39,7.809 28.26,10.559 30.92,24.731 0.43,-1.633 1.72,-2.402 4.12,-2.063 74.3,95.942 214.46,143.871 218.51,296.84 -1.56,3.262 -6.54,3.09 -6.2,8.242" /><g
         transform="scale(10)"
         id="g86"><text
           id="text90"
           style="font-variant:normal;font-weight:normal;font-size:12px;font-family:Papyrus;-inkscape-font-specification:Papyrus;writing-mode:lr-tb;fill:#000000;fill-opacity:1;fill-rule:nonzero;stroke:none"
           transform="matrix(1,0,0,-1,470.681,47.7676)"><tspan
             id="tspan88"
             y="0"
             x="0 6.7317662 9.2397661 14.112 18.455999 25.164 31.596001 34.236 36.959999 43.294598 49.666595 56.038597">Virtual Peer</tspan></text>
</g><path
         id="path92"
         style="fill:#000000;fill-opacity:1;fill-rule:nonzero;stroke:none"
         d="m 3840.03,100.484 c -31.44,-0.261 -89.06,5.84 -119.57,20.61 -5.15,2.5 -14.41,8.769 -20.61,6.187 -2.49,2.75 -0.76,3.262 0,6.184 -40.8,15.199 -72.22,44.84 -103.06,76.269 -19.75,12.797 -38.05,44.239 -59.78,61.84 0.7,4.809 -0.34,7.899 -2.06,10.309 -8.16,4.808 -12.71,18.551 -16.49,28.859 -1.12,4.641 -3.18,-2.5 -6.18,2.059 -2.67,24.652 -16.84,28.601 -30.92,63.902 10.39,0.078 9,-29.461 24.72,-30.922 7.56,-18.547 17.18,-35.039 30.93,-47.41 -4.89,9.961 -10.73,30.141 -24.73,37.102 0.77,3.269 3.61,-1.801 4.12,2.07 -32.99,40.871 -62.01,123.418 -49.48,216.43 -8.24,-11.239 -2.66,-76.52 -6.18,-70.078 -5.85,12.367 -0.34,31.519 -2.06,45.347 -5.33,43.121 20.44,113.371 41.22,142.231 26.97,46.718 65.11,81.25 107.2,123.679 -25.43,-68.711 -105.05,-112.078 -125.74,-185.519 -9.88,-10.649 -20.36,-40.539 -14.44,-53.59 15.98,69.309 50.93,113.031 88.65,152.539 -36.68,-77.391 -59.88,-193.34 -47.42,-292.711 8.59,-68.109 40.28,-116.039 72.15,-164.91 -16.75,16.582 -27.49,31.262 -39.18,49.473 -7.81,-11.68 10.15,-19.321 16.5,-26.801 13.66,-15.981 26.11,-37.621 41.22,-49.469 3.71,1.551 0.35,3.777 0,6.18 -5.41,4.898 9.73,-4.032 2.07,-8.242 21.04,-17.52 27.57,-35.559 49.47,-45.348 33.85,-40.02 97.66,-67.68 158.73,-70.082 81.58,-3.27 163.35,37.703 222.62,74.199 -40.11,-48.098 -128.4,-75.41 -191.7,-80.387 m 51.52,729.707 c -10.47,-3.519 -31.94,10.661 -45.34,4.133 -2.74,-0.09 -1.89,4.207 -0.34,4.207 -13.83,6.27 -53.77,4.211 -75.93,1.973 -64.41,-6.352 -129.34,-42.602 -166.97,-74.203 46.04,82.793 192.48,127.113 288.58,63.89 m 39.18,-14.429 c -1.12,-4.289 -3.18,-4.379 -6.19,-2.059 -31.95,40.891 -84.69,60.981 -160.78,57.719 79.01,18.473 135.36,-11.16 166.97,-55.66 m -160.79,22.679 c 11.09,-0.769 10.23,-0.597 20.62,-2.058 -2.15,-2.66 -21.64,-5.321 -20.62,2.058 m 474.1,-366.918 c 0.19,3.27 5.25,1.641 4.13,6.188 -9.62,7.383 -7.63,25.934 -12.37,45.351 -10.73,1.02 3.96,-11.859 -2.06,-12.371 -6.43,6.352 -3.26,16.403 -4.12,22.672 -4.55,-5.07 -13.92,13.399 -12.37,14.43 4.73,0.598 2.32,-5.922 6.19,-6.18 -0.18,5.239 -1.12,9.789 -4.13,12.36 -1.37,-6.18 -4.38,1.98 -8.24,0 3.7,7.39 -8.75,13.922 -10.32,22.679 4.83,-1.379 5.51,-6.871 10.32,-8.25 -3.61,7.481 -13.92,29.2 -16.49,18.559 -0.09,10.562 -13.92,31.523 -22.67,32.98 5.23,-3.777 9.87,-7.988 10.31,-16.488 -0.44,2.738 -10.39,9.449 -6.19,4.121 24.72,-44.582 80.82,-106.332 65.96,-183.461 -0.94,-4.812 -4.99,-14 -8.25,-14.429 2.67,-3.782 -2.32,-12.711 -2.06,-16.493 -0.42,1.633 -0.09,4.032 -2.06,4.121 -3.69,-12.71 -12.29,-23.699 -8.24,-32.98 -3.87,-0.43 -4.55,2.32 -8.24,2.059 -4.82,-16.657 -25.27,-27.989 -24.75,-43.289 -17.17,-0.86 -31.09,-33.321 -45.35,-37.098 12.03,16.828 18.98,38.73 26.79,59.777 -3.26,2.063 -8.24,1.981 -4.12,6.18 3.28,-0.168 1.64,-5.227 6.2,-4.117 -3.01,11.418 11.59,17.258 2.06,22.668 14.34,23.031 19.5,81.172 14.42,111.32 -1.2,7.039 -11.15,20.27 -2.06,12.371 -5.75,15.711 -3.35,28.25 -12.36,30.91 11.85,15.551 -14.7,38.739 -14.44,49.481 4.72,0.597 2.33,-5.93 6.18,-6.192 0.69,10.309 -12.01,7.219 -12.36,16.489 4.21,-0.598 4.03,-5.579 8.24,-6.18 -6.86,20.523 -18.2,34.793 -26.79,57.723 -2.84,0.089 -4.56,-0.954 -6.19,-2.063 3,4.891 4.39,3.863 2.06,10.301 -5.15,-0.34 -8.49,1.031 -10.3,4.129 2.39,0.344 5.83,-0.348 6.18,2.062 -11.76,2.231 -3.35,8.668 -12.37,8.239 27.58,-61.149 70.19,-129.598 65.97,-218.5 0.86,-3.258 6.52,-1.719 4.12,-8.239 -2.05,-0.261 -4.12,8.93 -6.18,2.059 6.86,-18.379 -9.89,-45.098 -6.18,-59.777 -20.02,-36.852 -38.4,-112.77 -88.65,-138.122 34.02,59.61 48.78,159.758 24.74,222.629 4.9,-40.191 18.05,-86.918 0,-121.609 2.4,-0.352 5.84,0.34 6.18,-2.07 -9.7,-16.828 -14.08,-53.762 -22.67,-70.078 -2.75,0 -1.89,3.609 -4.12,4.117 0,-4.899 0.77,-18.129 -4.13,-10.297 -1.2,-13.492 -3.44,-7.653 -2.06,-16.504 -8.33,3.531 -11.17,-16.227 -16.48,-22.668 -9.97,-11.941 -30.67,-20.359 -47.41,-30.922 -24.57,-15.457 -50.08,-32.988 -76.27,-43.289 -68.12,-26.707 -147.65,-35.129 -197.89,-14.43 1.45,-2.828 -12.2,10.563 -16.5,2.063 0,2.058 1.72,2.488 2.06,4.117 -94.31,52.051 -206.47,165.77 -216.43,303.02 -2.76,38.312 0.25,79.621 4.12,107.191 1.88,13.57 1.88,27.57 4.12,39.168 0.09,0.422 4.12,-2.07 4.12,-2.07 9.96,31.351 17.69,70.093 30.93,101.011 2.65,6.192 10.82,11.34 6.18,20.621 7.29,-5.671 14.76,12.45 10.31,18.551 2.91,-0.781 3.51,-2.5 6.17,0 2.5,10.731 12.02,23.188 20.61,30.91 20.45,18.297 54.12,41.661 76.29,51.539 57.71,25.77 135.95,27.141 199.94,18.551 13.22,-11.683 37.87,-9.531 45.35,-30.922 -4.46,-3.09 -5.76,-9.269 -10.31,-12.371 10.49,-2.14 27.22,3.352 26.8,18.551 10.65,-4.031 15.37,-18.031 20.62,-14.418 4.29,-18.211 20.43,-33.934 28.85,-41.23 -1.37,-1.723 1.98,-14.34 10.31,-12.372 -5.5,-6.531 3.87,-12.8 6.17,-12.371 -3.85,-8.07 7.82,-18.199 12.38,-24.73 -12.1,40.101 -44.49,71.371 -59.78,98.941 13.05,-3.691 21.39,-23.699 39.16,-14.429 -20.61,16.148 -42.5,19.41 -57.71,32.98 -9.19,18.301 -34.79,31.18 -41.23,45.348 54.72,-27.739 80.48,-48.09 119.56,-92.75 -7.98,3 -12.1,9.871 -18.55,14.422 1.21,-7.379 -12.28,-0.082 -10.31,-8.243 5.84,3.954 16.33,-1.117 12.37,-6.179 9.01,3.773 6.61,-3.008 14.42,-8.25 2.23,-1.457 11.68,-1.887 14.44,-4.117 3.08,-2.59 3.44,-9.11 6.19,-12.372 14.59,-17.441 39.25,-23.968 49.46,-47.41 3.87,-1.98 6.87,6.18 8.25,0 -5.41,-8.507 13.15,-27.84 20.61,-37.109 -0.6,4.719 5.93,2.32 6.19,6.18 -7.73,1.898 -10.31,16.589 -8.24,18.558 -7.14,4.121 0.16,-0.949 -4.13,-2.058 -10.48,8.5 -6.11,20.007 -18.55,24.73 0.77,-0.43 5.06,1.117 4.12,2.07 -13.75,13.309 -29.19,25.071 -43.3,39.161 -18.45,18.468 -34,39.769 -53.59,57.718 -9.86,9.102 -22.16,14.852 -32.98,22.672 -8.84,6.449 -13.23,15.719 -20.6,20.617 -13.15,8.762 -29.38,10.563 -41.24,20.61 -3.85,0.433 -4.55,-2.321 -8.25,-2.059 -8.67,5.5 -20.68,17.18 -30.91,14.43 -4.3,10.91 -21.98,25.422 -30.92,18.551 13.05,-3.52 22.5,-10.481 28.85,-20.621 -14.42,3.351 -39.5,6.699 -49.46,6.191 -65.03,12.969 -147.48,-42.602 -197.89,-80.391 -21.21,-15.89 -42.52,-39.168 -57.71,-53.601 -7.4,-6.949 -9.63,-11.418 -12.3,-14.258 0,0.859 -2.82,3.008 -4.2,1.898 -7.56,-6.019 -12.45,-20.707 -20.61,-32.988 -19.33,-29.109 -47.93,-64.93 -55.66,-98.949 -1.72,-7.723 1.37,-14.344 0,-20.613 -0.09,-0.43 -4.13,2.07 -4.13,2.07 -4.55,-10.91 -5.75,-38.988 -6.17,-55.66 -1.39,-59.52 15.8,-109.848 28.85,-162.848 12.2,-16.66 22.76,-34.949 28.86,-57.711 81.86,-115.531 175.81,-236.2811 379.28,-212.3279 6.8,2.2379 7.22,3.9569 14.44,6.1879 7.73,2.32 15.89,0.261 22.67,2.07 25.51,6.871 48.53,19.152 72.15,37.101 10.39,7.809 28.26,10.559 30.92,24.731 0.43,-1.633 1.72,-2.402 4.12,-2.063 74.3,95.942 214.46,143.871 218.51,296.84 -1.56,3.262 -6.54,3.09 -6.2,8.242" /><g
         transform="scale(10)"
         id="g94"><text
           id="text98"
           style="font-variant:normal;font-weight:normal;font-size:12px;font-family:Papyrus;-inkscape-font-specification:Papyrus;writing-mode:lr-tb;fill:#000000;fill-opacity:1;fill-rule:nonzero;stroke:none"
           transform="matrix(1,0,0,-1,354.693,47.7676)"><tspan
             id="tspan96"
             y="0"
             x="0 6.7317662 9.2397661 14.112 18.455999 25.164 31.596001 34.236 36.959999 43.294598 49.666595 56.038597">Virtual Peer</tspan></text>
</g><path
         id="path100"
         style="fill:#000000;fill-opacity:1;fill-rule:nonzero;stroke:none"
         d="m 6159.79,100.484 c -31.44,-0.261 -89.06,5.84 -119.57,20.61 -5.15,2.5 -14.41,8.769 -20.61,6.187 -2.49,2.75 -0.76,3.262 0,6.184 -40.8,15.199 -72.22,44.84 -103.06,76.269 -19.75,12.797 -38.05,44.239 -59.78,61.84 0.7,4.809 -0.34,7.899 -2.06,10.309 -8.16,4.808 -12.71,18.551 -16.49,28.859 -1.12,4.641 -3.18,-2.5 -6.18,2.059 -2.67,24.652 -16.84,28.601 -30.92,63.902 10.39,0.078 9,-29.461 24.72,-30.922 7.56,-18.547 17.18,-35.039 30.93,-47.41 -4.89,9.961 -10.73,30.141 -24.73,37.102 0.77,3.269 3.61,-1.801 4.12,2.07 -32.99,40.871 -62.01,123.418 -49.48,216.43 -8.24,-11.239 -2.66,-76.52 -6.18,-70.078 -5.85,12.367 -0.34,31.519 -2.06,45.347 -5.33,43.121 20.44,113.371 41.22,142.231 26.97,46.718 65.11,81.25 107.2,123.679 -25.43,-68.711 -105.05,-112.078 -125.74,-185.519 -9.88,-10.649 -20.36,-40.539 -14.44,-53.59 15.98,69.309 50.93,113.031 88.65,152.539 -36.68,-77.391 -59.88,-193.34 -47.42,-292.711 8.59,-68.109 40.28,-116.039 72.15,-164.91 -16.75,16.582 -27.49,31.262 -39.18,49.473 -7.81,-11.68 10.15,-19.321 16.5,-26.801 13.66,-15.981 26.11,-37.621 41.22,-49.469 3.71,1.551 0.35,3.777 0,6.18 -5.41,4.898 9.73,-4.032 2.07,-8.242 21.04,-17.52 27.57,-35.559 49.47,-45.348 33.85,-40.02 97.66,-67.68 158.73,-70.082 81.58,-3.27 163.35,37.703 222.62,74.199 -40.11,-48.098 -128.4,-75.41 -191.7,-80.387 m 51.52,729.707 c -10.47,-3.519 -31.94,10.661 -45.34,4.133 -2.74,-0.09 -1.89,4.207 -0.34,4.207 -13.83,6.27 -53.77,4.211 -75.93,1.973 -64.41,-6.352 -129.34,-42.602 -166.97,-74.203 46.04,82.793 192.48,127.113 288.58,63.89 m 39.18,-14.429 c -1.12,-4.289 -3.18,-4.379 -6.19,-2.059 -31.95,40.891 -84.69,60.981 -160.78,57.719 79.01,18.473 135.36,-11.16 166.97,-55.66 m -160.79,22.679 c 11.09,-0.769 10.23,-0.597 20.62,-2.058 -2.15,-2.66 -21.64,-5.321 -20.62,2.058 m 474.1,-366.918 c 0.19,3.27 5.25,1.641 4.13,6.188 -9.62,7.383 -7.63,25.934 -12.37,45.351 -10.73,1.02 3.96,-11.859 -2.06,-12.371 -6.43,6.352 -3.26,16.403 -4.12,22.672 -4.55,-5.07 -13.92,13.399 -12.37,14.43 4.73,0.598 2.32,-5.922 6.19,-6.18 -0.18,5.239 -1.12,9.789 -4.13,12.36 -1.37,-6.18 -4.38,1.98 -8.24,0 3.7,7.39 -8.75,13.922 -10.32,22.679 4.83,-1.379 5.51,-6.871 10.32,-8.25 -3.61,7.481 -13.92,29.2 -16.49,18.559 -0.09,10.562 -13.92,31.523 -22.67,32.98 5.23,-3.777 9.87,-7.988 10.31,-16.488 -0.44,2.738 -10.39,9.449 -6.19,4.121 24.72,-44.582 80.82,-106.332 65.96,-183.461 -0.94,-4.812 -4.99,-14 -8.25,-14.429 2.67,-3.782 -2.32,-12.711 -2.06,-16.493 -0.42,1.633 -0.09,4.032 -2.06,4.121 -3.69,-12.71 -12.29,-23.699 -8.24,-32.98 -3.87,-0.43 -4.55,2.32 -8.24,2.059 -4.82,-16.657 -25.27,-27.989 -24.75,-43.289 -17.17,-0.86 -31.09,-33.321 -45.35,-37.098 12.03,16.828 18.98,38.73 26.79,59.777 -3.26,2.063 -8.24,1.981 -4.12,6.18 3.28,-0.168 1.64,-5.227 6.2,-4.117 -3.01,11.418 11.59,17.258 2.06,22.668 14.34,23.031 19.5,81.172 14.42,111.32 -1.2,7.039 -11.15,20.27 -2.06,12.371 -5.75,15.711 -3.35,28.25 -12.36,30.91 11.85,15.551 -14.7,38.739 -14.44,49.481 4.72,0.597 2.33,-5.93 6.18,-6.192 0.69,10.309 -12.01,7.219 -12.36,16.489 4.21,-0.598 4.03,-5.579 8.24,-6.18 -6.86,20.523 -18.2,34.793 -26.79,57.723 -2.84,0.089 -4.56,-0.954 -6.19,-2.063 3,4.891 4.39,3.863 2.06,10.301 -5.15,-0.34 -8.49,1.031 -10.3,4.129 2.39,0.344 5.83,-0.348 6.18,2.062 -11.76,2.231 -3.35,8.668 -12.37,8.239 27.58,-61.149 70.19,-129.598 65.97,-218.5 0.86,-3.258 6.52,-1.719 4.12,-8.239 -2.05,-0.261 -4.12,8.93 -6.18,2.059 6.86,-18.379 -9.89,-45.098 -6.18,-59.777 -20.02,-36.852 -38.4,-112.77 -88.65,-138.122 34.02,59.61 48.78,159.758 24.74,222.629 4.9,-40.191 18.05,-86.918 0,-121.609 2.4,-0.352 5.84,0.34 6.18,-2.07 -9.7,-16.828 -14.08,-53.762 -22.67,-70.078 -2.75,0 -1.89,3.609 -4.12,4.117 0,-4.899 0.77,-18.129 -4.13,-10.297 -1.2,-13.492 -3.44,-7.653 -2.06,-16.504 -8.33,3.531 -11.17,-16.227 -16.48,-22.668 -9.97,-11.941 -30.67,-20.359 -47.41,-30.922 -24.57,-15.457 -50.08,-32.988 -76.27,-43.289 -68.12,-26.707 -147.65,-35.129 -197.89,-14.43 1.45,-2.828 -12.2,10.563 -16.5,2.063 0,2.058 1.72,2.488 2.06,4.117 -94.31,52.051 -206.47,165.77 -216.43,303.02 -2.76,38.312 0.25,79.621 4.12,107.191 1.88,13.57 1.88,27.57 4.12,39.168 0.09,0.422 4.12,-2.07 4.12,-2.07 9.96,31.351 17.69,70.093 30.93,101.011 2.65,6.192 10.82,11.34 6.18,20.621 7.29,-5.671 14.76,12.45 10.31,18.551 2.91,-0.781 3.51,-2.5 6.17,0 2.5,10.731 12.02,23.188 20.61,30.91 20.45,18.297 54.12,41.661 76.29,51.539 57.71,25.77 135.95,27.141 199.94,18.551 13.22,-11.683 37.87,-9.531 45.35,-30.922 -4.46,-3.09 -5.76,-9.269 -10.31,-12.371 10.49,-2.14 27.22,3.352 26.8,18.551 10.65,-4.031 15.37,-18.031 20.62,-14.418 4.29,-18.211 20.43,-33.934 28.85,-41.23 -1.37,-1.723 1.98,-14.34 10.31,-12.372 -5.5,-6.531 3.87,-12.8 6.17,-12.371 -3.85,-8.07 7.82,-18.199 12.38,-24.73 -12.1,40.101 -44.49,71.371 -59.78,98.941 13.05,-3.691 21.39,-23.699 39.16,-14.429 -20.61,16.148 -42.5,19.41 -57.71,32.98 -9.19,18.301 -34.79,31.18 -41.23,45.348 54.72,-27.739 80.48,-48.09 119.56,-92.75 -7.98,3 -12.1,9.871 -18.55,14.422 1.21,-7.379 -12.28,-0.082 -10.31,-8.243 5.84,3.954 16.33,-1.117 12.37,-6.179 9.01,3.773 6.61,-3.008 14.42,-8.25 2.23,-1.457 11.68,-1.887 14.44,-4.117 3.08,-2.59 3.44,-9.11 6.19,-12.372 14.59,-17.441 39.25,-23.968 49.46,-47.41 3.87,-1.98 6.87,6.18 8.25,0 -5.41,-8.507 13.15,-27.84 20.61,-37.109 -0.6,4.719 5.93,2.32 6.19,6.18 -7.73,1.898 -10.31,16.589 -8.24,18.558 -7.14,4.121 0.16,-0.949 -4.13,-2.058 -10.48,8.5 -6.11,20.007 -18.55,24.73 0.77,-0.43 5.06,1.117 4.12,2.07 -13.75,13.309 -29.19,25.071 -43.3,39.161 -18.45,18.468 -34,39.769 -53.59,57.718 -9.86,9.102 -22.16,14.852 -32.98,22.672 -8.84,6.449 -13.23,15.719 -20.6,20.617 -13.15,8.762 -29.38,10.563 -41.24,20.61 -3.85,0.433 -4.55,-2.321 -8.25,-2.059 -8.67,5.5 -20.68,17.18 -30.91,14.43 -4.3,10.91 -21.98,25.422 -30.92,18.551 13.05,-3.52 22.5,-10.481 28.85,-20.621 -14.42,3.351 -39.5,6.699 -49.46,6.191 -65.03,12.969 -147.48,-42.602 -197.89,-80.391 -21.21,-15.89 -42.52,-39.168 -57.71,-53.601 -7.4,-6.949 -9.63,-11.418 -12.3,-14.258 0,0.859 -2.82,3.008 -4.2,1.898 -7.56,-6.019 -12.45,-20.707 -20.61,-32.988 -19.33,-29.109 -47.93,-64.93 -55.66,-98.949 -1.72,-7.723 1.37,-14.344 0,-20.613 -0.09,-0.43 -4.13,2.07 -4.13,2.07 -4.55,-10.91 -5.75,-38.988 -6.17,-55.66 -1.39,-59.52 15.8,-109.848 28.85,-162.848 12.2,-16.66 22.76,-34.949 28.86,-57.711 81.86,-115.531 175.81,-236.2811 379.28,-212.3279 6.8,2.2379 7.22,3.9569 14.44,6.1879 7.73,2.32 15.89,0.261 22.67,2.07 25.51,6.871 48.53,19.152 72.15,37.101 10.39,7.809 28.26,10.559 30.92,24.731 0.43,-1.633 1.72,-2.402 4.12,-2.063 74.3,95.942 214.46,143.871 218.51,296.84 -1.56,3.262 -6.54,3.09 -6.2,8.242" /><g
         transform="scale(10)"
         id="g102"><text
           id="text106"
           style="font-variant:normal;font-weight:normal;font-size:12px;font-family:Papyrus;-inkscape-font-specification:Papyrus;writing-mode:lr-tb;fill:#000000;fill-opacity:1;fill-rule:nonzero;stroke:none"
           transform="matrix(1,0,0,-1,586.669,47.7676)"><tspan
             id="tspan104"
             y="0"
             x="0 6.7317662 9.2397661 14.112 18.455999 25.164 31.596001 34.236 36.959999 43.294598 49.666595 56.038597">Virtual Peer</tspan></text>
</g><path
         id="path108"
         style="fill:none;stroke:#000000;stroke-width:10;stroke-linecap:round;stroke-linejoin:round;stroke-miterlimit:10;stroke-dasharray:100, 30, 20, 30, 20, 30;stroke-dashoffset:0;stroke-opacity:1"
         d="m 4950,2970 716.35,987.22" /><path
         id="path110"
         style="fill:none;stroke:#000000;stroke-width:10;stroke-linecap:butt;stroke-linejoin:miter;stroke-miterlimit:10;stroke-dasharray:none;stroke-opacity:1"
         d="m 5713.33,4021.97 -46.98,-64.75 m -24.28,17.62 71.26,47.13 -22.7,-82.37" /><path
         id="path112"
         style="fill:none;stroke:#000000;stroke-width:20;stroke-linecap:butt;stroke-linejoin:miter;stroke-miterlimit:10;stroke-dasharray:none;stroke-opacity:1"
         d="m 3130,2470 c 11.43,111.85 35.36,242.18 5.31,356.96 -36.58,103.08 -150.2,75.26 -236.2,65.26 -148.82,-17.31 -309.42,-18.73 -459.04,-7.21 -88.64,6.81 -178.12,21.38 -266.55,5.79 -83.32,-14.72 -109.23,-68.58 -102.51,-148.07 4.61,-54.51 19.47,-107.25 22.16,-161.99 4.19,-85.24 9.22,-170.45 17.17,-255.45 4.96,-52.87 15.43,-105.34 15,-158.5 -0.39,-47.64 -2.41,-95.22 -0.32,-142.89 0.89,-19.85 -0.47,-62.75 18.75,-76.45 37.76,-26.95 95.21,-32.78 139.9,-38.79 118.82,-15.99 239.81,-4.77 359.18,-11.14 105.05,-5.57 210.24,-11.51 315.27,-3.93 44.15,3.16 87.9,10.12 130.22,22.86 13.05,3.89 32.08,9.23 42.86,18.22 12.2,10.22 7.29,66.6 7.9,82.12 5.83,150.12 -18.08,298.75 -9.1,453.21 z" /><g
         transform="scale(10)"
         id="g114"><text
           id="text118"
           style="font-variant:normal;font-weight:normal;font-size:16px;font-family:Papyrus;-inkscape-font-specification:Papyrus;writing-mode:lr-tb;fill:#000000;fill-opacity:1;fill-rule:nonzero;stroke:none"
           transform="matrix(1,0,0,-1,237.047,237.163)"><tspan
             id="tspan116"
             y="0"
             x="0 6.1760001 14.672 24.496 28.016001 31.360001 39.327999">replica</tspan></text>
</g><path
         id="path120"
         style="fill:#000000;fill-opacity:1;fill-rule:nonzero;stroke:none"
         d="m 4479.2,1719.19 c -63.68,-0.47 -180.38,10.45 -242.16,36.88 -10.44,4.48 -29.19,15.7 -41.75,11.08 -5.04,4.92 -1.54,5.83 0,11.06 -82.63,27.2 -146.27,80.24 -208.73,136.49 -40,22.91 -77.06,79.18 -121.07,110.67 1.42,8.61 -0.69,14.14 -4.17,18.45 -16.53,8.61 -25.74,33.2 -33.4,51.65 -2.27,8.3 -6.44,-4.48 -12.51,3.69 -5.41,44.11 -34.11,51.18 -62.63,114.35 21.04,0.14 18.23,-52.72 50.07,-55.33 15.31,-33.2 34.79,-62.71 62.64,-84.85 -9.9,17.83 -21.73,53.94 -50.08,66.4 1.55,5.85 7.3,-3.23 8.34,3.7 -66.82,73.14 -125.59,220.87 -100.21,387.32 -16.69,-20.11 -5.39,-136.94 -12.52,-125.41 -11.85,22.13 -0.69,56.41 -4.17,81.16 -10.8,77.16 41.4,202.88 83.48,254.53 54.62,83.61 131.87,145.4 217.12,221.34 -51.51,-122.97 -212.76,-200.58 -254.67,-332.01 -20.01,-19.06 -41.23,-72.55 -29.24,-95.9 32.36,124.03 103.15,202.27 179.54,272.98 -74.29,-138.49 -121.28,-346 -96.04,-523.83 17.4,-121.89 81.58,-207.67 146.13,-295.13 -33.93,29.68 -55.68,55.95 -79.35,88.54 -15.82,-20.91 20.55,-34.58 33.41,-47.97 27.67,-28.59 52.88,-67.32 83.48,-88.53 7.52,2.78 0.72,6.77 0,11.07 -10.95,8.77 19.71,-7.21 4.2,-14.75 42.61,-31.36 55.84,-63.64 100.19,-81.16 68.56,-71.62 197.79,-121.12 321.48,-125.41 165.22,-5.86 330.83,67.46 450.87,132.78 -81.24,-86.08 -260.05,-134.95 -388.25,-143.86 m 104.34,1305.88 c -21.2,-6.3 -64.68,19.08 -91.83,7.39 -5.54,-0.16 -3.82,7.54 -0.68,7.54 -28.01,11.22 -108.91,7.53 -153.78,3.52 -130.46,-11.36 -261.96,-76.23 -338.17,-132.79 93.24,148.16 389.83,227.48 584.46,114.34 m 79.35,-25.82 c -2.27,-7.68 -6.44,-7.84 -12.53,-3.69 -64.71,73.18 -171.52,109.13 -325.63,103.3 160.02,33.05 274.15,-19.97 338.16,-99.61 m -325.64,40.59 c 22.46,-1.38 20.71,-1.08 41.76,-3.69 -4.36,-4.76 -43.83,-9.52 -41.76,3.69 m 960.2,-656.64 c 0.38,5.85 10.62,2.93 8.36,11.08 -19.49,13.2 -15.45,46.4 -25.06,81.15 -21.73,1.83 8.02,-21.22 -4.17,-22.13 -13.02,11.36 -6.6,29.35 -8.34,40.57 -9.22,-9.08 -28.19,23.98 -25.06,25.82 9.59,1.08 4.71,-10.59 12.54,-11.06 -0.36,9.38 -2.27,17.52 -8.36,22.12 -2.78,-11.06 -8.88,3.54 -16.69,0 7.49,13.23 -17.72,24.91 -20.9,40.59 9.78,-2.47 11.16,-12.3 20.9,-14.77 -7.31,13.39 -28.19,52.26 -33.4,33.22 -0.18,18.9 -28.19,56.41 -45.91,59.02 10.59,-6.76 19.99,-14.3 20.88,-29.51 -0.89,4.9 -21.04,16.91 -12.54,7.38 50.07,-79.79 163.69,-190.29 133.59,-328.32 -1.9,-8.61 -10.11,-25.06 -16.71,-25.83 5.41,-6.76 -4.7,-22.74 -4.17,-29.51 -0.85,2.92 -0.18,7.21 -4.17,7.37 -7.47,-22.74 -24.89,-42.41 -16.69,-59.02 -7.84,-0.77 -9.21,4.15 -16.69,3.69 -9.76,-29.81 -51.18,-50.09 -50.13,-77.47 -34.77,-1.54 -62.96,-59.63 -91.84,-66.39 24.36,30.11 38.44,69.3 54.25,106.98 -6.6,3.68 -16.68,3.54 -8.34,11.05 6.65,-0.3 3.32,-9.35 12.56,-7.37 -6.1,20.44 23.47,30.89 4.17,40.57 29.04,41.22 39.49,145.26 29.2,199.22 -2.43,12.6 -22.58,36.28 -4.17,22.14 -11.64,28.11 -6.78,50.55 -25.03,55.32 24,27.82 -29.77,69.32 -29.24,88.54 9.55,1.08 4.71,-10.61 12.51,-11.08 1.4,18.46 -24.32,12.93 -25.03,29.52 8.52,-1.08 8.16,-9.99 16.69,-11.06 -13.9,36.72 -36.86,62.26 -54.26,103.29 -5.75,0.16 -9.24,-1.7 -12.54,-3.69 6.08,8.76 8.89,6.91 4.18,18.44 -10.43,-0.61 -17.2,1.84 -20.87,7.39 4.85,0.61 11.81,-0.63 12.52,3.68 -23.82,4 -6.78,15.52 -25.05,14.75 55.85,-109.43 142.15,-231.93 133.61,-391.03 1.74,-5.83 13.2,-3.07 8.34,-14.74 -4.15,-0.47 -8.34,15.98 -12.51,3.68 13.89,-32.89 -20.04,-80.71 -12.52,-106.98 -40.55,-65.94 -77.77,-201.81 -179.55,-247.18 68.9,106.68 98.8,285.91 50.11,398.42 9.92,-71.92 36.56,-155.55 0,-217.63 4.86,-0.63 11.83,0.61 12.52,-3.7 -19.65,-30.12 -28.52,-96.21 -45.92,-125.42 -5.57,0 -3.82,6.46 -8.34,7.37 0,-8.77 1.56,-32.44 -8.37,-18.43 -2.43,-24.14 -6.96,-13.69 -4.17,-29.53 -16.87,6.32 -22.62,-29.04 -33.37,-40.57 -20.2,-21.37 -62.12,-36.44 -96.02,-55.33 -49.77,-27.67 -101.43,-59.04 -154.48,-77.48 -137.96,-47.79 -299.03,-62.86 -400.78,-25.82 2.93,-5.06 -24.71,18.9 -33.42,3.69 0,3.68 3.48,4.45 4.17,7.37 -191.01,93.15 -418.16,296.66 -438.33,542.28 -5.59,68.56 0.5,142.49 8.34,191.83 3.81,24.29 3.81,49.34 8.34,70.1 0.19,0.75 8.35,-3.7 8.35,-3.7 20.17,56.1 35.83,125.43 62.64,180.76 5.37,11.08 21.91,20.29 12.52,36.9 14.76,-10.14 29.89,22.28 20.88,33.2 5.89,-1.4 7.11,-4.47 12.5,0 5.06,19.2 24.34,41.5 41.73,55.32 41.42,32.75 109.61,74.55 154.52,92.23 116.88,46.12 275.34,48.57 404.93,33.2 26.78,-20.9 76.7,-17.06 91.86,-55.33 -9.04,-5.53 -11.67,-16.59 -20.89,-22.14 21.25,-3.83 55.13,5.99 54.28,33.2 21.57,-7.22 31.13,-32.27 41.76,-25.81 8.69,-32.59 41.38,-60.72 58.43,-73.78 -2.77,-3.09 4.01,-25.67 20.88,-22.14 -11.14,-11.69 7.84,-22.91 12.5,-22.14 -7.8,-14.44 15.84,-32.57 25.07,-44.26 -24.5,71.77 -90.1,127.73 -121.07,177.07 26.43,-6.61 43.32,-42.42 79.31,-25.83 -41.74,28.91 -86.08,34.74 -116.88,59.02 -18.61,32.75 -70.46,55.8 -83.5,81.16 110.82,-49.64 162.99,-86.06 242.14,-165.99 -16.16,5.38 -24.5,17.67 -37.57,25.81 2.45,-13.2 -24.87,-0.14 -20.88,-14.75 11.83,7.07 33.08,-2 25.06,-11.06 18.24,6.75 13.38,-5.38 29.2,-14.76 4.52,-2.61 23.66,-3.38 29.25,-7.37 6.23,-4.64 6.96,-16.31 12.53,-22.14 29.55,-31.21 79.5,-42.89 100.17,-84.84 7.84,-3.55 13.92,11.06 16.71,0 -10.95,-15.23 26.64,-49.83 41.74,-66.41 -1.21,8.44 12.01,4.15 12.54,11.06 -15.66,3.39 -20.88,29.68 -16.69,33.21 -14.46,7.37 0.33,-1.7 -8.36,-3.69 -21.23,15.21 -12.37,35.81 -37.57,44.26 1.56,-0.77 10.25,2 8.34,3.7 -27.84,23.82 -59.12,44.87 -87.69,70.09 -37.37,33.05 -68.86,71.17 -108.54,103.29 -19.97,16.28 -44.88,26.57 -66.79,40.57 -17.91,11.54 -26.8,28.13 -41.73,36.9 -26.63,15.68 -59.5,18.9 -83.52,36.88 -7.8,0.77 -9.21,-4.15 -16.71,-3.68 -17.56,9.84 -41.88,30.74 -62.6,25.82 -8.71,19.53 -44.51,45.49 -62.62,33.2 26.43,-6.3 45.57,-18.76 58.43,-36.9 -29.21,5.99 -80,11.99 -100.17,11.07 -131.71,23.22 -298.7,-76.23 -400.79,-143.86 -42.96,-28.44 -86.12,-70.1 -116.88,-95.92 -14.99,-12.44 -19.5,-20.44 -24.91,-25.52 0,1.54 -5.71,5.38 -8.51,3.4 -15.31,-10.78 -25.21,-37.06 -41.74,-59.04 -39.15,-52.1 -97.07,-116.2 -112.73,-177.08 -3.48,-13.82 2.77,-25.67 0,-36.88 -0.18,-0.77 -8.36,3.7 -8.36,3.7 -9.22,-19.52 -11.65,-69.78 -12.5,-99.61 -2.82,-106.52 32,-196.59 58.43,-291.43 24.71,-29.82 46.1,-62.55 58.45,-103.28 165.79,-206.76 356.07,-422.85 768.16,-379.99 13.77,4.01 14.62,7.09 29.25,11.08 15.65,4.15 32.17,0.46 45.91,3.71 51.66,12.29 98.28,34.27 146.12,66.39 21.05,13.98 57.24,18.9 62.63,44.26 0.87,-2.92 3.48,-4.3 8.34,-3.69 150.48,171.69 434.35,257.47 442.55,531.22 -3.16,5.84 -13.25,5.53 -12.55,14.75" /><g
         transform="scale(10)"
         id="g122"><text
           id="text126"
           style="font-variant:normal;font-weight:normal;font-size:16px;font-family:Papyrus;-inkscape-font-specification:Papyrus;writing-mode:lr-tb;fill:#000000;fill-opacity:1;fill-rule:nonzero;stroke:none"
           transform="matrix(1,0,0,-1,409.48,240.5)"><tspan
             id="tspan124"
             y="0"
             x="0 8.4461279 16.942127 25.438128 31.614128 35.246128 47.006126 52.705566 62.273563 71.217567">Peer Group</tspan></text>
</g><path
         id="path128"
         style="fill:none;stroke:#000000;stroke-width:10;stroke-linecap:round;stroke-linejoin:round;stroke-miterlimit:10;stroke-dasharray:100, 30, 20, 30, 20, 30;stroke-dashoffset:0;stroke-opacity:1"
         d="m 3800.82,2417.66 -562.32,-9.93" /><path
         id="path130"
         style="fill:none;stroke:#000000;stroke-width:10;stroke-linecap:butt;stroke-linejoin:miter;stroke-miterlimit:10;stroke-dasharray:none;stroke-opacity:1"
         d="m 3158.51,2406.31 79.99,1.42 m 0.53,-30 -80.52,28.58 79.46,31.41" /><path
         id="path132"
         style="fill:none;stroke:#000000;stroke-width:10;stroke-linecap:round;stroke-linejoin:round;stroke-miterlimit:10;stroke-dasharray:100, 30, 20, 30, 20, 30;stroke-dashoffset:0;stroke-opacity:1"
         d="m 3090.36,810 881.95,1013.56" /><path
         id="path134"
         style="fill:none;stroke:#000000;stroke-width:10;stroke-linecap:butt;stroke-linejoin:miter;stroke-miterlimit:10;stroke-dasharray:none;stroke-opacity:1"
         d="m 4024.82,1883.91 -52.51,-60.35 m -22.63,19.69 75.14,40.66 -29.88,-80.04" /><path
         id="path136"
         style="fill:none;stroke:#000000;stroke-width:10;stroke-linecap:round;stroke-linejoin:round;stroke-miterlimit:10;stroke-dasharray:100, 30, 20, 30, 20, 30;stroke-dashoffset:0;stroke-opacity:1"
         d="m 3946.43,900 277.34,766.54" /><path
         id="path138"
         style="fill:none;stroke:#000000;stroke-width:10;stroke-linecap:butt;stroke-linejoin:miter;stroke-miterlimit:10;stroke-dasharray:none;stroke-opacity:1"
         d="m 4250.99,1741.77 -27.22,-75.23 m -28.21,10.21 55.43,65.02 0.99,-85.43" /><path
         id="path140"
         style="fill:none;stroke:#000000;stroke-width:10;stroke-linecap:round;stroke-linejoin:round;stroke-miterlimit:10;stroke-dasharray:100, 30, 20, 30, 20, 30;stroke-dashoffset:0;stroke-opacity:1"
         d="m 5026.43,900 -274.81,798.7" /><path
         id="path142"
         style="fill:none;stroke:#000000;stroke-width:10;stroke-linecap:butt;stroke-linejoin:miter;stroke-miterlimit:10;stroke-dasharray:none;stroke-opacity:1"
         d="m 4725.59,1774.35 26.03,-75.65 m -28.37,-9.75 2.34,85.4 54.39,-65.89" /><path
         id="path144"
         style="fill:none;stroke:#000000;stroke-width:10;stroke-linecap:round;stroke-linejoin:round;stroke-miterlimit:10;stroke-dasharray:100, 30, 20, 30, 20, 30;stroke-dashoffset:0;stroke-opacity:1"
         d="M 5850,810 5109.04,1810.45" /><path
         id="path146"
         style="fill:none;stroke:#000000;stroke-width:10;stroke-linecap:butt;stroke-linejoin:miter;stroke-miterlimit:10;stroke-dasharray:none;stroke-opacity:1"
         d="m 5061.43,1874.73 47.61,-64.28 m -24.11,-17.86 -23.5,82.14 71.72,-46.43" /><g
         transform="scale(10)"
         id="g148"><text
           id="text152"
           style="font-variant:normal;font-weight:normal;font-size:22px;font-family:Papyrus;-inkscape-font-specification:Papyrus;writing-mode:lr-tb;fill:#000000;fill-opacity:1;fill-rule:nonzero;stroke:none"
           transform="matrix(1,0,0,-1,39.132,180.5)"><tspan
             id="tspan150"
             y="0"
             x="0 10.384 22.879999 34.672001 42.508724 54.190727 67.522728 72.516724 80.353455 92.035454 105.54345 110.38345 114.98145 125.93745">shared replica</tspan></text>
</g><path
         id="path154"
         style="fill:#000000;fill-opacity:1;fill-rule:nonzero;stroke:none"
         d="m 2070,2382.66 c -10.92,-68.96 -78.36,-91.71 -120.55,-128.8 -19.83,-1.88 -33.23,-26.82 -50.06,-24.47 46.51,55.86 130.18,66.68 153.16,150.93 -22.27,-1.73 -46.96,8.52 -64.59,4.29 10.42,-9.09 30.47,-3.57 37.25,-12.79 -1.44,-10.07 0.34,-8.11 -3.71,-16.07 -61.08,-17.34 -136.88,-38.09 -198.33,-62.3 -63.07,-24.79 -121.16,-57.45 -169.12,-73.23 -5.52,-1.81 -13.21,-0.74 -13.43,-3.25 -20.07,-9.13 -43.72,-27.22 -63.48,-27.7 -3.13,-0.16 0.23,-2.8 -1.39,-6.02 -48.24,-18.16 -90.93,-45.18 -137.75,-65.64 -19.27,-14.07 -41.47,-23.52 -62.85,-34.18 -10.67,-6.12 -23.53,-19.55 -38.31,-10.25 -1.64,7.07 1.36,9.04 3.7,16.09 57.38,14.64 112.86,50.09 167.56,75.68 19.75,9.21 37.77,18.64 57.45,29.1 4.22,2.2 8.8,-1.24 7.87,6.65 66.03,24.21 118.37,53.34 184.57,76.01 3.85,-0.53 2.82,6.49 5.87,7.11 8.17,-2.39 14.31,8.18 19.47,1.88 26.77,16.05 60.6,34.71 92.36,33.76 0.36,1.95 -2.06,2.15 -3.55,2.95 37.68,16.7 78.9,27.75 117.68,42.73 -65.64,28.04 -135.66,7.47 -197.77,13.74 0.35,4.23 -2.78,6.28 -4.18,9.41 2.27,11.03 11.76,10.53 22.86,7.43 61.84,5.28 149.8,9.12 213.99,1.57 19.82,-2.34 32.85,-4.72 45.28,-14.63 z" /><path
         id="path156"
         style="fill:#000000;fill-opacity:1;fill-rule:nonzero;stroke:none"
         d="m 5593.84,3697.96 c 0.39,12.89 27.46,4.03 38.66,7.82 -3.63,-7.55 -29.86,-0.01 -38.66,-7.82 m 282.69,-190.94 c -70.03,42.59 -171.15,90.52 -240.3,148.99 88.59,-38.69 167.23,-96.51 240.3,-148.99 m -179.89,215.02 c -1.17,-8.08 -24.42,-2.08 -32.82,-6.86 1.56,7.44 24.65,1.59 32.82,6.86 m 76.11,1.44 c -5.04,-9.57 -33.29,-3.25 -45.22,-10.31 5.29,9.15 32.13,5.34 45.22,10.31 m 613.11,-660.82 c 1.02,0.99 2.68,0.92 5.12,-0.55 12.65,59.37 -41.48,117.54 -69.42,174.6 -4.13,2.46 -5.38,0.04 -8.06,0.06 6.25,9.55 -14.8,27.22 -30.01,45.39 -27.62,32.97 -69.87,79.07 -101.28,106.33 -9.68,8.37 -30.5,25.31 -35.57,27.67 -1.66,0.77 -3.02,1.01 -3.99,1.08 -3.2,-1.56 -2.77,0.08 0,0 0.71,0.3 1.48,0.78 2.47,1.47 -6.69,0.05 -5.81,5.11 -9.63,8.18 -8.41,6.79 -22.97,13.34 -31.07,20.04 -8.74,7.23 -15.01,16.69 -23.81,24.04 -8.58,7.15 -21.34,12.48 -31.07,20.02 -15.1,11.66 -42.76,43.11 -48.14,35.39 -2.93,4.58 5.21,3.24 -1.6,8.12 -58.39,38.01 -121.28,89.18 -201.81,121.81 -6.7,3.67 3.6,-6.98 -4.34,-3.52 4.44,7.09 -6.25,3.92 -6.72,8.68 -40.13,13.1 -80.46,30.13 -111.07,33.32 23.51,6.35 50.3,7.01 75.21,11.1 1.64,4.47 9.93,-0.33 5.76,6.56 2.91,-4.83 5.44,-2.77 11.06,-5.16 6.17,2.2 13.32,2.78 18.93,5.94 24.43,3.54 58.34,-8.5 67.96,7.1 -4.57,3.44 -10.72,6.61 -14.08,10.25 -10.09,1.71 -15.03,-5.3 -27.07,-0.29 12.33,3.55 26.66,3.72 41.68,2.73 13.68,10.31 40.46,-1.56 53.26,10.25 -52.62,10.84 -100.09,-7.89 -147.68,-10.56 -20.72,-1.1 -42.15,1.8 -60.71,-3.09 -33.42,0.04 -75.82,-7.12 -111.05,-12.86 -16.74,1.19 -40.39,13.99 -49.83,2.93 1.46,-6.76 17.52,-11.1 27.37,-16.46 -5.49,-0.68 -10.59,-2 -13.82,-6.49 5.45,-12.39 28.63,-12.5 44.27,-20.64 12.44,-6.49 17.64,-17.99 27.33,-16.44 14.64,-20.14 45.02,-41.38 66.75,-53.28 34.03,-18.72 94.94,-53.97 139.66,-81.76 60.39,-37.55 105.74,-89.77 165.09,-113.91 4.19,4.42 -0.62,7.36 2.74,11.65 -59.08,46.87 -126.66,102.23 -205.27,154.81 -5.65,0.41 -7.04,0.83 -9.56,2.62 -39.55,27.6 -117.49,76.56 -182.5,105.42 65.62,13.87 152.16,-13.78 244,-60.22 95.53,-48.32 182.82,-121.8 257.65,-181.08 28.01,-22.24 50.41,-47.84 80.1,-65.07 18.77,-23.29 42.94,-43.89 63.29,-66.45 20.56,-22.82 39.87,-45.91 59.67,-68.46 24.52,-55.22 82,-112.26 66.42,-169.49 11.15,-2.81 0.15,-9.3 13.37,-11.78" /><g
         transform="scale(10)"
         id="g158"><text
           id="text162"
           style="font-variant:normal;font-weight:normal;font-size:22px;font-family:Papyrus;-inkscape-font-specification:Papyrus;writing-mode:lr-tb;fill:#000000;fill-opacity:1;fill-rule:nonzero;stroke:none"
           transform="matrix(1,0,0,-1,584.782,279.5)"><tspan
             id="tspan160"
             y="0"
             x="0 10.384 14.982 27.049257 38.929256 43.779999 55.462002 60.456001 70.839996 83.996002 94.952003 106.79316 118.47516">single socket</tspan></text>
</g></g></g></svg>